<svg width="18" height="20" viewBox="0 0 18 20" fill="none" xmlns="http://www.w3.org/2000/svg">
<g id="Group 14">
<g id="_3101_1">
<g id="Group">
<g id="Group_2">
<path id="Vector" d="M11.0955 14.0573C8.98098 16.1718 5.08588 15.6821 2.37043 12.9889C-0.322754 10.2735 -0.790167 6.35612 1.32432 4.2639L1.99205 3.59619L11.7855 13.3673L11.0955 14.0573Z" fill="#CC104A"/>
</g>
<g id="Group_3">
<path id="Vector_2" d="M11.7409 13.4118C9.62646 15.5485 5.7091 15.0366 2.99365 12.3434C0.278208 9.62799 -0.189202 5.73289 1.94754 3.6184C4.06202 1.48166 7.95713 1.97134 10.6503 4.66452C11.4738 5.48806 12.0971 6.42286 12.4754 7.35769C12.609 7.69155 12.7425 7.9809 12.8093 8.29251C13.3435 10.2289 13.0096 12.1654 11.7409 13.4118Z" fill="#F34B58"/>
</g>
<g id="Group_4">
<path id="Vector_3" d="M10.0048 5.33217C12.1192 7.44666 12.4754 10.4737 10.8506 12.1208C9.22574 13.7901 6.15417 13.3895 4.06194 11.2972C1.96972 9.18274 1.59134 6.15568 3.21615 4.50861C4.86322 2.83928 7.91253 3.23994 10.0048 5.33217Z" fill="white"/>
</g>
<g id="Group_5">
<path id="Vector_4" d="M9.38171 5.97777C10.8952 7.51356 11.1846 9.73933 9.98267 10.919C8.80301 12.0987 6.57724 11.8538 5.06371 10.2958C3.52793 8.78225 3.26084 6.55648 4.4405 5.35456C5.62015 4.1749 7.84593 4.44199 9.38171 5.97777Z" fill="#F34B58"/>
</g>
<g id="Group_6">
<path id="Vector_5" d="M8.69166 6.66774C9.671 7.66934 9.84906 9.07157 9.07004 9.82833C8.31328 10.6074 6.91104 10.4293 5.90944 9.44996C4.9301 8.44836 4.75204 7.04613 5.53106 6.28936C6.28782 5.51034 7.71232 5.6884 8.69166 6.66774Z" fill="white"/>
</g>
<g id="Group_7">
<path id="Vector_6" d="M8.04621 7.31337C8.51362 7.78078 8.60266 8.47076 8.24653 8.8714C7.84589 9.24978 7.1559 9.16076 6.68849 8.67109C6.22108 8.20368 6.10979 7.51368 6.48817 7.1353C6.8443 6.77918 7.55654 6.84595 8.04621 7.31337Z" fill="#F34B58"/>
</g>
<g id="Group_8">
<path id="Vector_7" d="M12.8316 8.33695L7.46749 8.35923C6.84428 8.35923 6.82202 7.42437 7.46749 7.42437L12.52 7.37988C12.6313 7.71375 12.7426 8.00308 12.8316 8.33695Z" fill="#1D2943" fill-opacity="0.2"/>
</g>
</g>
<g id="Group_9">
<path id="Vector_8" d="M3.57227 11.7868C2.9268 11.3194 2.41487 10.6739 2.03649 9.98395C1.68036 9.2717 1.45779 8.47043 1.48004 7.69141C1.70262 8.44817 1.96971 9.1604 2.32584 9.82813C2.68196 10.4959 3.10486 11.1413 3.57227 11.7868Z" fill="white"/>
</g>
<g id="Group_10">
<path id="Vector_9" d="M14.1225 1.23667C14.3228 1.43699 14.3228 1.72634 14.1225 1.9044L7.80128 8.20335C7.62322 8.38141 7.33387 8.38141 7.13355 8.20335C6.95548 8.02529 6.95548 7.73593 7.13355 7.53561L13.4547 1.23667C13.6551 1.03635 13.9444 1.03635 14.1225 1.23667Z" fill="#1D2943"/>
</g>
<g id="Group_11">
<path id="Vector_10" d="M14.0112 1.97119L15.1241 2.30508C15.3244 2.34959 15.3912 2.59442 15.2576 2.75023L14.946 3.03959C14.8348 3.17313 14.6344 3.21764 14.4564 3.17313L14.1002 3.06183L14.167 3.15085C14.3673 3.35117 14.3673 3.66279 14.167 3.86311L13.5438 4.48633C13.4325 4.59761 13.2322 4.64214 13.0541 4.59762L11.7632 4.21924L14.0112 1.97119Z" fill="#FFD06C"/>
</g>
<g id="Group_12">
<path id="Vector_11" d="M13.3658 1.32577L13.0542 0.212888C13.0097 0.0125685 12.7649 -0.076457 12.6091 0.0793471L11.7188 0.969643C11.5852 1.10319 11.5407 1.28125 11.5852 1.45932L11.6965 1.83769L11.4517 1.59286C11.3404 1.48157 11.1846 1.48157 11.0733 1.59286L10.873 1.81545C10.7617 1.92674 10.7172 2.12706 10.7617 2.30512L11.1178 3.55155L13.3658 1.32577Z" fill="#FFD06C"/>
</g>
<g id="Group_13">
<path id="Vector_12" d="M11.6741 3.44023C11.8966 3.15088 12.1637 2.83928 12.4308 2.57218C12.5866 2.4609 13.0318 2.01572 12.8537 2.17153C13.0095 2.06024 13.1431 1.92672 13.2989 1.81543C13.1653 1.94898 13.0541 2.10477 12.9205 2.26058C12.8092 2.39412 12.6534 2.52768 12.5421 2.68348C12.2528 2.95057 11.9857 3.1954 11.6741 3.44023Z" fill="white"/>
</g>
</g>
<path id="Vector_13" d="M12.2751 14.458V15.2148C12.2751 15.9048 12.9874 16.4835 13.8554 16.4835C14.7235 16.4835 15.4357 15.9048 15.4357 15.2148V14.458H12.2751Z" fill="#3C3C4F"/>
<path id="Vector_14" d="M12.4753 13.6567L12.6757 15.3038C12.9873 15.5709 13.3879 15.7267 13.8553 15.7267L15.1018 13.7013L12.4753 13.6567Z" fill="#929BB7"/>
<g id="Group_14">
<path id="Vector_15" d="M12.2751 13.6567V14.458C12.2751 14.7919 12.431 15.0812 12.6758 15.3038V13.6567H12.2751Z" fill="#3C3C4F"/>
<path id="Vector_16" d="M15.4358 14.4579V13.7012L13.8555 14.9254V15.7266C14.7458 15.7266 15.4358 15.1479 15.4358 14.4579Z" fill="#3C3C4F"/>
<path id="Vector_17" d="M12.52 13.5899L12.6758 14.5247C12.9874 14.7695 13.3881 14.9254 13.8555 14.9254L15.0351 14.5025C15.28 14.2799 15.4358 13.9905 15.4358 13.6567V12.8999L12.52 13.5899Z" fill="#3C3C4F"/>
</g>
<path id="Vector_18" d="M13.8555 14.9254C14.3229 14.9254 14.7458 14.7696 15.0351 14.5025V12.8999H13.8555V14.9254Z" fill="#DFE4EF"/>
<path id="Vector_19" d="M12.6758 14.5247V12.8999H12.2751V13.6567C12.2751 13.9905 12.431 14.2799 12.6758 14.5247Z" fill="#DFE4EF"/>
<path id="Vector_20" d="M12.5422 12.1206L12.6758 13.7677C12.9874 14.0125 13.388 14.1683 13.8554 14.1683L15.0351 13.7454C15.2799 13.5229 15.4357 13.2335 15.4357 12.8996L15.3022 12.1206H12.5422Z" fill="#929BB7"/>
<path id="Vector_21" d="M12.2751 12.8996C12.2751 13.2335 12.431 13.5229 12.6758 13.7677V12.1206H12.2751V12.8996Z" fill="#3C3C4F"/>
<path id="Vector_22" d="M13.8555 14.1683C14.3229 14.1683 14.7458 14.0125 15.0351 13.7454V12.1206H13.8555V14.1683Z" fill="#3C3C4F"/>
<path id="Vector_23" d="M12.52 12.0538L12.6758 12.9663C12.9874 13.2334 13.3881 13.3892 13.8555 13.3892L15.0351 12.9663L15.0574 13.2334H15.4358V11.3638L12.52 12.0538Z" fill="#3C3C4F"/>
<path id="Vector_24" d="M12.6758 12.9663V11.4305L12.6535 11.3638H12.2751V12.1205C12.2751 12.4544 12.431 12.7438 12.6758 12.9663Z" fill="#DFE4EF"/>
<path id="Vector_25" d="M13.8555 13.3894C14.3229 13.3894 14.7458 13.2335 15.0351 12.9665V11.4307L13.8555 11.8536V13.3894Z" fill="#DFE4EF"/>
<path id="Vector_26" d="M12.5422 10.585L12.6758 12.2098C12.9874 12.4769 13.388 12.6327 13.8554 12.6327L15.0351 12.2098C15.2799 11.9872 15.4357 11.6978 15.4357 11.364V10.585H12.5422Z" fill="#929BB7"/>
<path id="Vector_27" d="M13.8555 12.6326C14.3229 12.6326 14.7458 12.4768 15.0351 12.2097V11.4307L13.8555 11.8536V12.6326Z" fill="#3C3C4F"/>
<path id="Vector_28" d="M12.6758 12.2098V11.4307L12.3864 10.585H12.2751V11.364C12.2751 11.6978 12.431 11.9872 12.6758 12.2098Z" fill="#3C3C4F"/>
<path id="Vector_29" d="M15.4357 10.5851C15.4357 10.919 15.2799 11.2083 15.0351 11.4309L13.8554 11.8538C13.388 11.8538 12.9874 11.698 12.6758 11.4309L12.2751 10.5851C12.2751 10.2067 12.4755 9.85059 12.8093 9.62801L13.8554 9.31641C14.2783 9.31641 14.6567 9.44994 14.9238 9.65026L15.4357 10.5851Z" fill="white"/>
<path id="Vector_30" d="M15.4357 10.5406C15.4357 10.1845 15.2354 9.87284 14.9238 9.65026L14.3006 10.1622L13.8554 9.98415V9.31641C13.8554 9.31641 13.8554 9.31641 13.8332 9.31641C13.4771 9.31641 13.1209 9.42769 12.8093 9.62801L13.3658 10.1177L13.1209 10.5406H12.2751C12.2751 10.5628 12.2751 10.5629 12.2751 10.5851C12.2751 10.919 12.431 11.2083 12.6758 11.4309L13.3213 10.9635L13.8554 11.0748V11.8538C14.3229 11.8538 14.7458 11.698 15.0351 11.4309L14.4119 10.9635L14.6345 10.5406H15.4357Z" fill="#666684"/>
<path id="Vector_31" d="M13.8554 11.2526C14.3471 11.2526 14.7457 10.9338 14.7457 10.5404C14.7457 10.147 14.3471 9.82812 13.8554 9.82812C13.3637 9.82812 12.9651 10.147 12.9651 10.5404C12.9651 10.9338 13.3637 11.2526 13.8554 11.2526Z" fill="white"/>
<path id="Vector_32" d="M13.8555 11.0747C14.2243 11.0747 14.5232 10.8356 14.5232 10.5405C14.5232 10.2455 14.2243 10.0063 13.8555 10.0063C13.4867 10.0063 13.1877 10.2455 13.1877 10.5405C13.1877 10.8356 13.4867 11.0747 13.8555 11.0747Z" fill="#3C3C4F"/>
<path id="Vector_33" d="M9.20361 17.0396L9.51522 18.6644C9.82683 18.9092 10.2275 19.065 10.6949 19.065L11.8745 18.6644C12.1194 18.4418 12.2752 18.1302 12.2752 17.7963V17.0396H9.20361Z" fill="#4A73BA"/>
<path id="Vector_34" d="M9.51514 18.6644V17.0396H9.1145V17.7963C9.1145 18.1302 9.27031 18.4418 9.51514 18.6644Z" fill="#DBECFC"/>
<path id="Vector_35" d="M10.6948 19.065C11.1622 19.065 11.5851 18.9092 11.8745 18.6644V17.0396H10.6948V19.065Z" fill="#DBECFC"/>
<path id="Vector_36" d="M9.20361 16.2607L9.51522 17.9078C9.82683 18.1527 10.2275 18.3084 10.6949 18.3084L11.8745 17.9078C12.1194 17.6852 12.2752 17.3736 12.2752 17.0398V16.2607H9.20361Z" fill="#97BFEF"/>
<path id="Vector_37" d="M9.51514 16.2607H9.1145V17.0398C9.1145 17.3736 9.27031 17.6852 9.51514 17.9078V16.2607Z" fill="#4A73BA"/>
<path id="Vector_38" d="M10.6948 18.3084C11.1622 18.3084 11.5851 18.1527 11.8745 17.9078V16.2607H10.6948V18.3084Z" fill="#4A73BA"/>
<path id="Vector_39" d="M9.24805 15.5039L9.51514 17.1065C9.82675 17.3736 10.2274 17.5294 10.6948 17.5294L11.8745 17.1065C12.1193 16.8839 12.2751 16.5723 12.2751 16.2607V15.5039H9.24805Z" fill="#4A73BA"/>
<path id="Vector_40" d="M9.51514 17.1065V15.5039H9.1145V16.2607C9.1145 16.5723 9.27031 16.8839 9.51514 17.1065Z" fill="#DBECFC"/>
<path id="Vector_41" d="M10.6948 17.5294C11.1622 17.5294 11.5851 17.3513 11.8745 17.1065V15.5039H10.6948V17.5294Z" fill="#DBECFC"/>
<path id="Vector_42" d="M9.20361 14.6802L9.51522 16.3495C9.82683 16.6166 10.2275 16.7724 10.6949 16.7724L11.8745 16.3495C12.1194 16.1269 12.2752 15.8153 12.2752 15.5037V14.7247L9.20361 14.6802Z" fill="#97BFEF"/>
<path id="Vector_43" d="M9.51514 14.7251H9.1145V15.5041C9.1145 15.838 9.27031 16.1273 9.51514 16.3499V14.7251Z" fill="#4A73BA"/>
<path id="Vector_44" d="M10.6948 16.7728C11.1622 16.7728 11.5851 16.617 11.8745 16.3499V14.7251H10.6948V16.7728Z" fill="#4A73BA"/>
<path id="Vector_45" d="M9.22583 13.9683L9.51518 15.5708C9.82679 15.8157 10.2274 15.9937 10.6948 15.9937L11.8745 15.5708C12.1193 15.3482 12.2751 15.0367 12.2751 14.7251V13.9683H9.22583Z" fill="#4A73BA"/>
<path id="Vector_46" d="M9.51514 15.5708V14.035L9.49288 13.9683H9.1145V14.7251C9.1145 15.0367 9.27031 15.3482 9.51514 15.5708Z" fill="#DBECFC"/>
<path id="Vector_47" d="M10.6948 15.9934C11.1622 15.9934 11.5851 15.8153 11.8745 15.5705V14.0347L10.6948 14.4576V15.9934Z" fill="#DBECFC"/>
<path id="Vector_48" d="M9.22583 13.167L9.51518 14.8141C9.82679 15.0812 10.2274 15.237 10.6948 15.237L11.8745 14.8141C12.1193 14.5915 12.2751 14.2799 12.2751 13.9683V13.167H9.22583Z" fill="#97BFEF"/>
<path id="Vector_49" d="M9.1145 13.9681C9.1145 14.2797 9.27031 14.5913 9.51514 14.8139V13.3448L9.1145 13.1445V13.9681Z" fill="#4A73BA"/>
<path id="Vector_50" d="M10.6948 15.2371C11.1622 15.2371 11.5851 15.0813 11.8745 14.8142V13.501H10.6948V15.2371Z" fill="#4A73BA"/>
<path id="Vector_51" d="M12.2751 13.1666C12.2751 13.5005 12.1193 13.8121 11.8745 14.0347L10.6948 14.4576C10.2274 14.4576 9.82675 14.2795 9.51514 14.0347L9.1145 13.1666C9.1145 12.7882 9.31482 12.4544 9.64869 12.2096L10.6948 11.8979C11.1177 11.8979 11.4961 12.0315 11.7632 12.2318L12.2751 13.1666Z" fill="white"/>
<path id="Vector_52" d="M12.2751 13.1444C12.2751 12.7883 12.0748 12.4766 11.7632 12.2318L11.14 12.7437L10.6948 12.5657V11.8979C10.6948 11.8979 10.6948 11.8979 10.6725 11.8979C10.3164 11.8979 9.9603 12.0092 9.64869 12.2096L10.2051 12.7215L9.9603 13.1444H9.1145V13.1666C9.1145 13.5005 9.27031 13.8121 9.51514 14.0347L10.1606 13.545L10.6948 13.6563V14.4576C11.1622 14.4576 11.5851 14.2795 11.8745 14.0347L11.2512 13.5673L11.4738 13.1444H12.2751Z" fill="#7CA8E8"/>
<path id="Vector_53" d="M10.6948 13.8566C11.1865 13.8566 11.5851 13.5378 11.5851 13.1444C11.5851 12.751 11.1865 12.4321 10.6948 12.4321C10.203 12.4321 9.80444 12.751 9.80444 13.1444C9.80444 13.5378 10.203 13.8566 10.6948 13.8566Z" fill="white"/>
<path id="Vector_54" d="M10.6949 13.7013C11.0759 13.7013 11.3849 13.4521 11.3849 13.1448C11.3849 12.8375 11.0759 12.5884 10.6949 12.5884C10.3138 12.5884 10.0049 12.8375 10.0049 13.1448C10.0049 13.4521 10.3138 13.7013 10.6949 13.7013Z" fill="#7CA8E8"/>
<path id="Vector_55" d="M15.0574 17.7295V16.127H14.6345V16.8837C14.6345 17.2176 14.7903 17.5069 15.0574 17.7295Z" fill="#C12140"/>
<path id="Vector_56" d="M14.6345 17.6851V18.4418C14.6345 19.1318 15.3468 19.7105 16.2148 19.7105C17.1051 19.7105 17.8174 19.1318 17.8174 18.4418V17.6851H14.6345Z" fill="#FCDBE5"/>
<path id="Vector_57" d="M16.2148 19.7105C16.6823 19.7105 17.1052 19.5325 17.3945 19.2876V17.6851H16.2148V19.7105Z" fill="#C12140"/>
<path id="Vector_58" d="M15.0574 19.2876V17.6851H14.6345V18.4418C14.6345 18.7535 14.7903 19.065 15.0574 19.2876Z" fill="#C12140"/>
<path id="Vector_59" d="M14.8347 16.8838L15.0573 18.5309C15.3466 18.798 15.7695 18.9538 16.2147 18.9538L17.3944 18.5309C17.6615 18.3083 17.8173 17.9967 17.8173 17.6851V16.8838H14.8347Z" fill="#C12140"/>
<path id="Vector_60" d="M16.2148 18.9538C16.6823 18.9538 17.1052 18.7757 17.3945 18.5309V17.6851H16.2148V18.9538Z" fill="#F487A4"/>
<path id="Vector_61" d="M15.0574 16.8838H14.6345V17.6851C14.6345 17.9967 14.7903 18.3083 15.0574 18.5309V16.8838Z" fill="#F487A4"/>
<path id="Vector_62" d="M14.8347 16.127L15.0573 17.7295C15.3466 17.9966 15.7695 18.1524 16.2147 18.1524L17.3944 17.7295C17.6615 17.5069 17.8173 17.2176 17.8173 16.8837V16.127H14.8347Z" fill="#FCDBE5"/>
<path id="Vector_63" d="M16.2148 18.1524C16.6823 18.1524 17.1052 17.9966 17.3945 17.7295V16.127H16.2148V18.1524Z" fill="#C12140"/>
<path id="Vector_64" d="M15.0574 17.7295V16.127H14.6345V16.8837C14.6345 17.2176 14.7903 17.5069 15.0574 17.7295Z" fill="#C12140"/>
<path id="Vector_65" d="M14.7681 15.3481L15.0574 16.9729C15.3468 17.24 15.7697 17.3959 16.2148 17.3959L17.3945 16.9729C17.6616 16.7504 17.8174 16.461 17.8174 16.1271V15.3481H14.7681Z" fill="#C12140"/>
<path id="Vector_66" d="M16.2148 17.3957C16.6823 17.3957 17.1052 17.2399 17.3945 16.9728V16.127H16.2148V17.3957Z" fill="#F487A4"/>
<path id="Vector_67" d="M15.0574 15.3481H14.6345V16.1271C14.6345 16.461 14.7903 16.7504 15.0574 16.9729V15.3481Z" fill="#F487A4"/>
<path id="Vector_68" d="M14.7681 14.5913L15.0574 16.1939C15.3468 16.461 15.7697 16.6168 16.2148 16.6168L17.3945 16.1939C17.6616 15.9713 17.8174 15.682 17.8174 15.3481V14.5913H14.7681Z" fill="#FCDBE5"/>
<path id="Vector_69" d="M16.2148 16.6169C16.6823 16.6169 17.1052 16.4611 17.3945 16.194V14.6582L16.2148 15.0811V16.6169Z" fill="#C12140"/>
<path id="Vector_70" d="M15.0574 16.1939V14.6581L15.0129 14.5913H14.6345V15.3481C14.6345 15.682 14.7903 15.9713 15.0574 16.1939Z" fill="#C12140"/>
<path id="Vector_71" d="M14.8347 13.8125L15.0573 15.4373C15.3466 15.7044 15.7695 15.8602 16.2147 15.8602L17.3944 15.4373C17.6615 15.2147 17.8173 14.9254 17.8173 14.5915V13.8125H14.8347Z" fill="#C12140"/>
<path id="Vector_72" d="M16.2148 15.8601C16.6823 15.8601 17.1052 15.7043 17.3945 15.4372V14.6582L16.2148 15.0811V15.8601Z" fill="#F487A4"/>
<path id="Vector_73" d="M14.6345 14.5915C14.6345 14.9254 14.7903 15.2147 15.0574 15.4373V14.6583L15.0352 13.8125H14.6345V14.5915Z" fill="#F487A4"/>
<path id="Vector_74" d="M17.8174 13.7676C17.8174 14.1015 17.6616 14.4354 17.3945 14.6579L16.2148 15.0808C15.7697 15.0808 15.3468 14.925 15.0574 14.6579L14.6345 13.8122C14.6345 13.4338 14.8571 13.0776 15.191 12.8551L16.2148 12.5435C16.6377 12.5435 17.0161 12.6548 17.3055 12.8773L17.8174 13.7676Z" fill="#EA4E70"/>
<path id="Vector_75" d="M17.8174 13.7676C17.7951 13.4115 17.5948 13.0999 17.3055 12.8773L16.66 13.3893L16.2148 13.189V12.5435C15.8364 12.5435 15.4803 12.6547 15.191 12.8551L15.7252 13.3447L15.4803 13.7676H14.6345C14.6345 13.7899 14.6345 13.7899 14.6345 13.8122C14.6345 14.1238 14.7903 14.4354 15.0574 14.6579L15.7029 14.1905L16.2148 14.2796V15.0808C16.6822 15.0808 17.1051 14.925 17.3945 14.6579L16.7713 14.1905L16.9938 13.7676H17.8174Z" fill="white"/>
<path id="Vector_76" d="M16.2148 14.4802C16.7065 14.4802 17.1051 14.1613 17.1051 13.7679C17.1051 13.3745 16.7065 13.0557 16.2148 13.0557C15.7231 13.0557 15.3245 13.3745 15.3245 13.7679C15.3245 14.1613 15.7231 14.4802 16.2148 14.4802Z" fill="white"/>
<path id="Vector_77" d="M16.2148 14.3018C16.5836 14.3018 16.8826 14.0626 16.8826 13.7676C16.8826 13.4726 16.5836 13.2334 16.2148 13.2334C15.8461 13.2334 15.5471 13.4726 15.5471 13.7676C15.5471 14.0626 15.8461 14.3018 16.2148 14.3018Z" fill="#EA4E70"/>
<path id="Vector_78" d="M11.6296 17.9521L11.8745 19.577C12.1638 19.844 12.5867 19.9999 13.0541 19.9999L14.2115 19.577C14.4786 19.3544 14.6344 19.065 14.6344 18.7311V17.9521H11.6296Z" fill="#FFB655"/>
<path id="Vector_79" d="M11.8745 19.577V17.9521H11.4739V18.7311C11.4739 19.065 11.6297 19.3544 11.8745 19.577Z" fill="#E87B31"/>
<path id="Vector_80" d="M14.2116 19.577V17.9521H13.0542V19.9999C13.5216 19.9999 13.9223 19.844 14.2116 19.577Z" fill="#E87B31"/>
<path id="Vector_81" d="M11.6296 17.1953L11.8745 18.7979C12.1638 19.065 12.5867 19.2208 13.0541 19.2208L14.2115 18.7979C14.4786 18.5753 14.6344 18.286 14.6344 17.9521V17.1953H11.6296Z" fill="#E87B31"/>
<path id="Vector_82" d="M13.0542 19.2209C13.5216 19.2209 13.9223 19.0651 14.2116 18.798V17.2622L13.0542 17.6851V19.2209Z" fill="#FFE8CC"/>
<path id="Vector_83" d="M11.8745 18.7979V17.2621L11.8523 17.1953H11.4739V17.9521C11.4739 18.2637 11.6297 18.5753 11.8745 18.7979Z" fill="#FFE8CC"/>
<path id="Vector_84" d="M11.6741 16.4165L11.8744 18.0413C12.1637 18.3084 12.5866 18.4642 13.0541 18.4642L14.2115 18.0413C14.4785 17.8187 14.6344 17.5294 14.6344 17.1955V16.4165H11.6741Z" fill="#FFB655"/>
<path id="Vector_85" d="M11.8745 18.0413V17.2623L11.4739 16.4165V17.1955C11.4739 17.5294 11.6297 17.8187 11.8745 18.0413Z" fill="#E87B31"/>
<path id="Vector_86" d="M13.0542 18.4641C13.5216 18.4641 13.9223 18.3083 14.2116 18.0412V17.2622L13.0542 17.6851V18.4641Z" fill="#E87B31"/>
<path id="Vector_87" d="M14.6345 16.4167C14.6345 16.7283 14.4787 17.0399 14.2116 17.2625L13.0542 17.6853C12.5868 17.6853 12.1639 17.5073 11.8745 17.2625L11.4739 16.4167C11.4739 16.016 11.6742 15.6821 12.0081 15.4373L13.0542 15.1479C13.4548 15.1479 13.8332 15.2593 14.1225 15.4818L14.6345 16.4167Z" fill="white"/>
<path id="Vector_88" d="M14.6345 16.4164C14.6345 16.0158 14.4342 15.7042 14.1225 15.4816L13.4993 15.9935L13.0542 15.7932V15.1477C13.0319 15.1477 13.0319 15.1255 13.0319 15.1255C12.6758 15.1255 12.3197 15.2368 12.0081 15.4593L12.5423 15.949L12.3197 16.3719H11.4739C11.4739 16.3719 11.4739 16.3942 11.4739 16.4164C11.4739 16.728 11.6297 17.0397 11.8745 17.2622L12.52 16.7726L13.0542 16.8838V17.6851C13.5216 17.6851 13.9222 17.5071 14.2116 17.2622L13.5884 16.7948L13.8109 16.3719L14.6345 16.4164Z" fill="#FFB655"/>
<path id="Vector_89" d="M13.0541 17.0842C13.5458 17.0842 13.9444 16.7653 13.9444 16.3719C13.9444 15.9785 13.5458 15.6597 13.0541 15.6597C12.5624 15.6597 12.1638 15.9785 12.1638 16.3719C12.1638 16.7653 12.5624 17.0842 13.0541 17.0842Z" fill="white"/>
<path id="Vector_90" d="M13.0542 16.8837C13.4107 16.8837 13.6996 16.6545 13.6996 16.3718C13.6996 16.0891 13.4107 15.8599 13.0542 15.8599C12.6977 15.8599 12.4087 16.0891 12.4087 16.3718C12.4087 16.6545 12.6977 16.8837 13.0542 16.8837Z" fill="#FFB655"/>
</g>
</svg>
