<svg width="20" height="20" viewBox="0 0 20 20" fill="none" xmlns="http://www.w3.org/2000/svg">
<g id="Aviator Icon">
<g id="Group">
<g id="Group_2">
<g id="Group_3">
<g id="Group_4">
<g id="Group_5">
<path id="Vector" d="M3.73477 14.0546C3.33037 13.9595 2.97354 13.7454 2.6643 13.4601L1.66519 12.4612C1.54625 12.3423 1.37973 12.3423 1.26079 12.4612L0.618505 13.0795C0.190316 13.5314 0.190316 14.2448 0.618505 14.6967L2.33126 16.3851L3.73477 14.0546Z" fill="#FDA302"/>
</g>
</g>
</g>
</g>
<g id="Group_6">
<g id="Group_7">
<g id="Group_8">
<g id="Group_9">
<path id="Vector_2" d="M5.94697 16.2661C6.04213 16.6704 6.25622 17.0271 6.54168 17.3363L7.54079 18.3351C7.65973 18.454 7.65973 18.6205 7.54079 18.7394L6.89851 19.3814C6.47032 19.8095 5.75667 19.8095 5.30469 19.3814L3.61572 17.6692L5.94697 16.2661Z" fill="#FDA302"/>
</g>
</g>
</g>
</g>
<g id="Group_10">
<g id="Group_11">
<g id="Group_12">
<path id="Vector_3" d="M7.54086 18.3352L6.70827 17.5029C6.82721 17.6218 6.82721 17.7883 6.70827 17.9072L6.08977 18.5493C5.63779 18.9774 4.92415 18.9774 4.47217 18.5493L5.30476 19.3816C5.75674 19.8097 6.47038 19.8097 6.89857 19.3816L7.54086 18.7396C7.6598 18.6207 7.6598 18.4542 7.54086 18.3352Z" fill="#FD9002"/>
</g>
</g>
</g>
<g id="Group_13">
<g id="Group_14">
<g id="Group_15">
<path id="Vector_4" d="M11.5135 16.8133C11.3707 16.6944 10.7285 16.0047 11.8941 14.8157C12.7505 13.9595 17.6033 9.44114 18.2693 10.0832C18.9116 10.7253 14.3681 15.5767 13.5117 16.4328C12.3223 17.5981 11.6324 16.956 11.5135 16.8133Z" fill="#F9F3F1"/>
</g>
</g>
</g>
<g id="Group_16">
<g id="Group_17">
<g id="Group_18">
<path id="Vector_5" d="M11.5135 16.8133C11.3707 16.6944 10.7285 16.0047 11.8941 14.8157C12.7505 13.9595 17.6033 9.44114 18.2693 10.0832C18.9116 10.7253 14.3681 15.5767 13.5117 16.4328C12.3223 17.5981 11.6324 16.956 11.5135 16.8133Z" fill="#FDA302"/>
</g>
</g>
</g>
<g id="Group_19">
<g id="Group_20">
<g id="Group_21">
<g id="Group_22">
<path id="Vector_6" d="M14.2016 9.13184C13.94 10.3922 14.3444 11.724 15.2721 12.6514L19.0544 16.4327C19.2447 16.6229 19.2447 16.9321 19.0544 17.1223L17.984 18.1925C17.2465 18.9297 16.0333 18.9297 15.2959 18.1925L10.0149 12.8893L14.2016 9.13184Z" fill="#FDD602"/>
</g>
</g>
</g>
</g>
<g id="Group_23">
<g id="Group_24">
<g id="Group_25">
<path id="Vector_7" d="M19.0545 16.4329L18.2219 15.6006C18.4122 15.7908 18.4122 16.1 18.2219 16.2902L17.1515 17.3604C16.414 18.0976 15.2008 18.0976 14.4634 17.3604L15.296 18.1927C16.0334 18.9299 17.2466 18.9299 17.984 18.1927L19.0545 17.1226C19.2448 16.9323 19.2448 16.6232 19.0545 16.4329Z" fill="#FDC102"/>
</g>
</g>
</g>
<g id="Group_26">
<g id="Group_27">
<g id="Group_28">
<path id="Vector_8" d="M11.2756 14.1734L14.5822 17.4553L15.2245 16.8132C15.6527 16.3613 15.6527 15.6479 15.2245 15.2198L13.5117 13.5076C13.0835 13.0795 12.3699 13.0795 11.9179 13.5076L11.2756 14.1734Z" fill="#7CA1B1"/>
</g>
</g>
</g>
<g id="Group_29">
<g id="Group_30">
<g id="Group_31">
<path id="Vector_9" d="M15.8905 5.06545L14.939 4.11418L15.9381 3.11537C16.176 2.87756 16.5804 2.87756 16.8182 3.11537L16.8896 3.18671C17.1275 3.42452 17.1275 3.82879 16.8896 4.0666L15.8905 5.06545Z" fill="#7CA1B1"/>
</g>
</g>
</g>
<g id="Group_32">
<g id="Group_33">
<g id="Group_34">
<path id="Vector_10" d="M3.18771 8.48962C3.30665 8.63231 3.99651 9.2744 5.18592 8.08534C6.0423 7.22922 10.5621 2.37786 9.91979 1.73577C9.27751 1.09367 4.4247 5.63588 3.56832 6.49201C2.37891 7.65729 3.04498 8.34693 3.18771 8.48962Z" fill="#F9F3F1"/>
</g>
</g>
</g>
<g id="Group_35">
<g id="Group_36">
<g id="Group_37">
<path id="Vector_11" d="M3.18771 8.48962C3.30665 8.63231 3.99651 9.2744 5.18592 8.08534C6.0423 7.22922 10.5621 2.37786 9.91979 1.73577C9.27751 1.09367 4.4247 5.63588 3.56832 6.49201C2.37891 7.65729 3.04498 8.34693 3.18771 8.48962Z" fill="#FDA302"/>
</g>
</g>
</g>
<g id="Group_38">
<g id="Group_39">
<g id="Group_40">
<g id="Group_41">
<path id="Vector_12" d="M10.8713 5.80267C9.61052 6.06426 8.27837 5.65999 7.35063 4.73252L3.56829 0.951281C3.37799 0.761031 3.06874 0.761031 2.87843 0.951281L1.80796 2.02143C1.07052 2.75864 1.07052 3.9715 1.80796 4.70871L7.11275 9.98814L10.8713 5.80267Z" fill="#FDD602"/>
</g>
</g>
</g>
</g>
<g id="Group_42">
<g id="Group_43">
<g id="Group_44">
<g id="Group_45">
<path id="Vector_13" d="M11.2757 5.70752L11.0379 5.77886C10.9903 5.77886 10.9427 5.80266 10.8713 5.80266L11.2757 5.70752Z" fill="#FDD602"/>
</g>
</g>
</g>
</g>
<g id="Group_46">
<g id="Group_47">
<g id="Group_48">
<path id="Vector_14" d="M15.9858 4.01883C15.7003 3.75724 14.2968 2.44927 11.918 4.82739C10.1814 6.56341 1.02292 16.3613 2.33128 17.6692C3.63963 18.9772 13.4404 9.82143 15.1769 8.0854C17.5796 5.6835 16.2474 4.30421 15.9858 4.01883Z" fill="#F9F3F1"/>
</g>
</g>
</g>
<g id="Group_49">
<g id="Group_50">
<g id="Group_51">
<path id="Vector_15" d="M15.9857 4.01885C15.9144 3.94751 15.7478 3.8048 15.51 3.66211C15.8668 4.3042 16.0809 5.51707 14.3443 7.25309C12.8219 8.77509 4.97175 16.1235 2.28367 16.8845C2.16473 17.2412 2.18852 17.5265 2.33125 17.6692C3.63961 18.9772 13.4404 9.82144 15.1769 8.08541C17.5795 5.68351 16.2474 4.30422 15.9857 4.01885Z" fill="#EBE5E3"/>
</g>
</g>
</g>
<g id="Group_52">
<g id="Group_53">
<g id="Group_54">
<path id="Vector_16" d="M9.70573 10.3922L9.61058 10.2971C9.32512 10.0117 9.32512 9.55987 9.61058 9.2745L10.9665 7.89518C11.252 7.60981 11.7277 7.60981 12.0132 7.89518L12.0846 7.99033C12.37 8.2757 12.37 8.72753 12.0846 9.0129L10.7286 10.3922C10.4432 10.6776 9.99119 10.6776 9.70573 10.3922Z" fill="#7CA1B1"/>
</g>
</g>
</g>
<g id="Group_55">
<g id="Group_56">
<g id="Group_57">
<path id="Vector_17" d="M5.82819 8.72749L2.54541 5.4219L3.18769 4.7798C3.63967 4.32796 4.35332 4.32796 4.78151 4.7798L6.47048 6.46828C6.92245 6.92012 6.92245 7.63356 6.47048 8.06162L5.82819 8.72749Z" fill="#7CA1B1"/>
</g>
</g>
</g>
</g>
<g id="Group_58">
<g id="Group_59">
<path id="Vector_18" d="M19.9108 7.56241L16.8659 4.49465L17.1038 4.25682C17.2703 4.09035 17.3654 3.87635 17.3654 3.61476C17.3654 3.37694 17.2703 3.1629 17.1038 2.97265L17.0086 2.90131C16.6756 2.54459 16.0809 2.54459 15.7241 2.90131L15.51 3.1391L12.4413 0.0713436C12.3223 -0.0237812 12.1558 -0.0237812 12.0369 0.0713436C11.9179 0.19025 11.9179 0.380482 12.0369 0.499388L14.6774 3.1391C13.7496 3.09154 12.7505 3.59097 11.7038 4.61356C11.5135 4.82759 11.2043 5.13675 10.7999 5.54103C9.9435 5.7075 9.03955 5.51724 8.30211 5.08918C10.3241 2.63971 10.4906 1.90248 10.1338 1.54577C9.77698 1.18905 9.11091 1.52201 8.5162 1.90251C7.99286 2.25922 7.303 2.7824 6.4942 3.44827L3.78234 0.737214C3.63961 0.594527 3.42551 0.499388 3.23521 0.499388C3.02111 0.499388 2.83081 0.594527 2.68808 0.737214L1.6176 1.80736C0.761226 2.66348 0.761226 4.0428 1.6176 4.89892L3.18763 6.46849C2.11716 7.68133 2.75944 8.4899 2.97354 8.70393C3.09248 8.82284 3.42551 9.0844 3.87749 9.0844C4.23431 9.0844 4.68629 8.94172 5.18585 8.48987L6.75587 10.0357C6.44662 10.3924 6.13738 10.7491 5.85192 11.1058C5.75676 11.2247 5.75676 11.415 5.89949 11.5101C6.01844 11.629 6.20874 11.6052 6.3039 11.4863C8.61136 8.70393 11.2756 5.87396 12.132 5.01784C13.0598 4.09037 13.9399 3.63852 14.7012 3.70986C14.9866 3.73365 15.391 3.85255 15.7716 4.23305C16.0809 4.54221 16.2474 4.89893 16.295 5.27943C16.3663 6.06421 15.9144 6.92033 14.9628 7.87157C14.1065 8.75148 11.2281 11.4625 8.39726 13.7931C6.82724 15.1011 5.49509 16.0761 4.49599 16.7182C2.85459 17.7408 2.54535 17.4792 2.54535 17.4554C2.52156 17.4554 2.30746 17.2176 3.02111 15.981C3.47309 15.1724 4.21053 14.1023 5.23342 12.8181C5.32858 12.6992 5.30479 12.5089 5.18585 12.4138C5.04312 12.2949 4.85281 12.3187 4.75766 12.4614C4.37704 12.937 4.04401 13.365 3.75855 13.7693C3.42551 13.6742 3.11627 13.4839 2.8546 13.2461L1.87927 12.2473C1.76033 12.1284 1.6176 12.0809 1.45109 12.0809C1.30836 12.0809 1.16563 12.1284 1.04669 12.2473L0.404401 12.8894C0.14273 13.151 0 13.5077 0 13.8882C0 14.2687 0.14273 14.6254 0.404401 14.887L2.06958 16.5517C1.78412 17.3127 1.92685 17.6694 2.11716 17.8835C2.2361 18.0024 2.40262 18.0975 2.68808 18.0975C2.87838 18.0975 3.11627 18.0499 3.4493 17.9072L5.11448 19.5957C5.37615 19.8573 5.75677 20 6.11359 20C6.47041 20 6.82724 19.8573 7.1127 19.5957L7.75498 18.9536C7.96907 18.7158 7.96907 18.3591 7.75498 18.1213L6.75587 17.1225C6.51799 16.8846 6.32768 16.5755 6.23253 16.2426C6.94618 15.7194 7.77877 15.0535 8.77788 14.245C9.18228 13.912 9.56289 13.579 9.9435 13.2461L11.5135 14.8157C10.4668 16.0047 11.0853 16.8133 11.2994 17.0274C11.4184 17.1463 11.7514 17.4078 12.2272 17.4078C12.584 17.4078 13.0122 17.2651 13.5117 16.8133L15.0818 18.3829C15.51 18.8109 16.0571 19.025 16.6518 19.025C17.2227 19.025 17.7698 18.8109 18.198 18.3829L19.2685 17.3127C19.5778 17.0273 19.5778 16.5279 19.2685 16.2188L16.5566 13.5077C16.8421 13.151 17.1276 12.8181 17.3654 12.5089C17.4606 12.3662 17.4368 12.1997 17.2941 12.1046C17.1751 11.9857 16.9848 12.0095 16.8897 12.1522C16.6756 12.4376 16.4139 12.7467 16.1285 13.1034L15.4862 12.4376C15.4148 12.3662 15.3197 12.2711 15.2483 12.176C17.1514 10.6064 17.8174 10.3448 18.0315 10.2973C18.0077 10.3686 17.9839 10.4637 17.9126 10.6064C17.8412 10.7491 17.9126 10.9156 18.0553 10.9869C18.198 11.0582 18.3883 11.0107 18.4359 10.8442C18.5311 10.6778 18.769 10.1783 18.4597 9.86919C18.1029 9.51247 17.3417 9.67895 14.9153 11.7003C14.4633 10.9394 14.2492 10.0119 14.4871 9.17955C14.8677 8.79905 15.1769 8.4899 15.391 8.29965C16.4139 7.25328 16.9135 6.25447 16.8659 5.327L19.5064 7.96668C19.554 8.01425 19.6491 8.06183 19.7205 8.06183C19.7919 8.06183 19.8632 8.01425 19.9108 7.96668C20.0297 7.84778 20.0297 7.65753 19.9108 7.56241ZM9.68183 1.97385C9.65804 2.1641 9.42016 2.82997 7.80256 4.75624C7.73119 4.6849 7.63604 4.58976 7.56467 4.51842L6.8986 3.87635C8.82545 2.25923 9.49153 2.02141 9.68183 1.97385ZM2.94975 5.42211L3.40172 4.99403C3.71097 4.6611 4.2581 4.6611 4.56735 4.99403L6.28011 6.68251C6.58935 7.01545 6.58935 7.53864 6.28011 7.87157L5.82813 8.29965L2.94975 5.42211ZM3.37794 8.27585C3.0449 7.94291 3.11627 7.4435 3.59203 6.89654L4.78145 8.0856C4.21053 8.56122 3.73476 8.63257 3.37794 8.27585ZM6.25632 8.7277L6.68451 8.27585C7.23164 7.72888 7.23164 6.82521 6.68451 6.27824L4.99554 4.56599C4.42462 4.01902 3.54445 4.01902 2.97354 4.56599L2.54535 5.01784L2.022 4.49465C1.71276 4.18549 1.54624 3.78122 1.54624 3.35316C1.54624 2.9251 1.71276 2.52082 2.022 2.23544L3.09248 1.14149C3.14005 1.11771 3.18763 1.09392 3.23521 1.09392C3.28278 1.09392 3.33036 1.11771 3.35415 1.14149L7.13648 4.92269C7.96907 5.75503 9.08712 6.18311 10.229 6.15932C9.34879 7.11057 8.25453 8.32341 7.13648 9.60759L6.25632 8.7277ZM0.832591 14.4827C0.666073 14.3163 0.57092 14.1022 0.57092 13.8882C0.57092 13.6742 0.666073 13.4602 0.832591 13.2937L1.45109 12.6754L2.45019 13.6504C2.71187 13.9358 3.0449 14.126 3.40172 14.2687C2.92596 14.9584 2.56914 15.5291 2.33125 15.981L0.832591 14.4827ZM6.35147 17.5505L7.32679 18.5493L6.7083 19.1676C6.37526 19.5006 5.85192 19.5006 5.51888 19.1676L4.02022 17.6694C4.4722 17.4316 5.01933 17.0749 5.73298 16.5993C5.8757 16.956 6.06601 17.2652 6.35147 17.5505ZM11.7038 14.1736L12.132 13.7218C12.2985 13.5553 12.5126 13.4839 12.7267 13.4839C12.9408 13.4839 13.1549 13.5553 13.3214 13.7218L15.0104 15.434C15.1769 15.5767 15.2483 15.7907 15.2483 16.0047C15.2483 16.2426 15.1769 16.4328 15.0104 16.5993L14.5822 17.0511L11.7038 14.1736ZM11.7276 16.6231C11.3708 16.2664 11.4422 15.7907 11.9179 15.22L13.1073 16.409C12.5602 16.8846 12.0607 16.956 11.7276 16.6231ZM15.058 12.8656L18.8403 16.6468C18.9117 16.7182 18.9117 16.8371 18.8403 16.9084L17.7698 17.9786C17.4844 18.2877 17.08 18.4542 16.6518 18.4542C16.2236 18.4542 15.8192 18.2877 15.51 17.9786L14.9866 17.4554L15.4386 17.0274C15.9857 16.4566 15.9857 15.5529 15.4386 15.0059L13.7258 13.3175C13.1787 12.7467 12.2748 12.7467 11.7276 13.3175L11.2756 13.7455L10.3955 12.8656C11.68 11.7479 12.8932 10.654 13.821 9.77408C13.7972 10.9156 14.2492 12.0333 15.058 12.8656ZM16.6042 3.32936L16.6756 3.4007C16.747 3.44826 16.7707 3.54341 16.7707 3.61476C16.7707 3.70988 16.747 3.7812 16.6756 3.85255L16.4377 4.09037C16.3663 3.99525 16.2712 3.90012 16.176 3.82878C16.0809 3.73365 15.9857 3.63853 15.8906 3.56718L16.1522 3.32936C16.2712 3.18667 16.4853 3.18667 16.6042 3.32936Z" fill="#666386"/>
<path id="Vector_19" d="M14.368 7.11062C14.3918 7.11062 14.4156 7.11062 14.4632 7.11062C14.5821 7.11062 14.6773 7.03928 14.7248 6.92037C14.9151 6.42096 14.7962 5.92154 14.4394 5.56482C14.0825 5.20811 13.583 5.08921 13.0834 5.27946C12.9169 5.32702 12.8456 5.49348 12.8931 5.63616C12.9407 5.80263 13.131 5.87398 13.2737 5.82642C13.6306 5.70751 13.8922 5.82641 14.035 5.9691C14.2253 6.18313 14.2729 6.42096 14.1777 6.73012C14.1301 6.8728 14.2015 7.03928 14.368 7.11062Z" fill="#666386"/>
<path id="Vector_20" d="M10.2051 10.8918C10.4906 10.8918 10.7522 10.7967 10.9426 10.6064L12.2985 9.22716C12.7029 8.82288 12.7029 8.18078 12.2985 7.7765L12.2033 7.70516C12.013 7.51491 11.7751 7.396 11.4897 7.396C11.228 7.396 10.9663 7.51491 10.776 7.70516L9.39632 9.06067C8.99192 9.46495 8.99192 10.107 9.39632 10.5113L9.49147 10.6064C9.68178 10.7967 9.94345 10.8918 10.2051 10.8918ZM9.82451 9.48875L11.1804 8.10944C11.2756 8.0381 11.3707 7.99053 11.4897 7.99053C11.6086 7.99053 11.7276 8.0381 11.7989 8.10944L11.8941 8.20455C12.0606 8.37102 12.0606 8.65638 11.8941 8.82285L10.5144 10.1784C10.443 10.2735 10.3241 10.3211 10.2051 10.3211C10.0862 10.3211 9.99102 10.2735 9.89587 10.1784L9.82451 10.0833C9.65799 9.91682 9.65799 9.65522 9.82451 9.48875Z" fill="#666386"/>
</g>
</g>
</g>
</svg>
