<svg width="21" height="20" viewBox="0 0 21 20" fill="none" xmlns="http://www.w3.org/2000/svg">
<g id="Group 15">
<path id="Vector" fill-rule="evenodd" clip-rule="evenodd" d="M9.69239 13.3892C9.50428 13.631 9.31617 13.846 9.12805 14.061C8.05312 15.136 6.65571 15.6734 5.58077 15.4584C5.52703 15.4584 5.47328 15.4316 5.44641 15.3778C5.39266 15.3241 5.36579 15.2703 5.33891 15.2166C5.12393 14.1417 5.68827 12.7711 6.7632 11.6962C6.95131 11.4812 7.19317 11.2931 7.40816 11.1318L9.69239 13.3892Z" fill="#FDDA81"/>
<path id="Vector_2" fill-rule="evenodd" clip-rule="evenodd" d="M10.3103 14.2221L6.60181 10.4867L8.48294 9.94922L10.8478 12.3141L10.3103 14.2221Z" fill="#566371"/>
<path id="Vector_3" fill-rule="evenodd" clip-rule="evenodd" d="M16.0614 10.1374C15.0402 13.6846 12.541 15.2164 12.541 15.2164L12.0842 12.3947L8.40251 8.71308L5.58081 8.25624C5.58081 8.25624 7.11259 5.75703 10.6867 4.73584L16.0614 10.1374Z" fill="#DD4453"/>
<path id="Vector_4" fill-rule="evenodd" clip-rule="evenodd" d="M0.877848 19.9196C0.797228 19.839 0.797228 19.7046 0.877848 19.624L3.88766 16.6142C3.96828 16.5336 4.10265 16.5336 4.18327 16.6142C4.26389 16.6948 4.26389 16.8292 4.18327 16.9098L1.17345 19.9196C1.09283 20.0271 0.958468 20.0271 0.877848 19.9196Z" fill="#C8CACF"/>
<path id="Vector_5" fill-rule="evenodd" clip-rule="evenodd" d="M4.64019 19.0327C4.5327 18.9521 4.5327 18.8177 4.64019 18.7371L6.68256 16.6947C6.76318 16.6141 6.89755 16.6141 6.97817 16.6947C7.05879 16.7754 7.05879 16.9097 6.97817 16.9904L4.9358 19.0327C4.85518 19.1133 4.72081 19.1133 4.64019 19.0327Z" fill="#C8CACF"/>
<path id="Vector_6" fill-rule="evenodd" clip-rule="evenodd" d="M8.96672 17.5547C8.88609 17.4741 8.88609 17.3397 8.96672 17.2591L10.3641 15.8617C10.4716 15.7811 10.606 15.7811 10.6866 15.8617C10.7672 15.9424 10.7672 16.0767 10.6866 16.1573L9.28919 17.5547C9.1817 17.6353 9.04734 17.6353 8.96672 17.5547Z" fill="#C8CACF"/>
<path id="Vector_7" fill-rule="evenodd" clip-rule="evenodd" d="M3.24284 11.8303C3.16222 11.7497 3.16222 11.6153 3.24284 11.5347L4.64025 10.1373C4.72087 10.0298 4.85524 10.0298 4.93586 10.1373C5.01648 10.2179 5.01648 10.3522 4.93586 10.4329L3.53844 11.8303C3.45782 11.9109 3.32346 11.9109 3.24284 11.8303Z" fill="#C8CACF"/>
<path id="Vector_8" fill-rule="evenodd" clip-rule="evenodd" d="M1.76481 16.1841C1.68419 16.0766 1.68419 15.9691 1.76481 15.8617L3.80718 13.8193C3.8878 13.7386 4.02217 13.7386 4.12966 13.8193C4.21028 13.8999 4.21028 14.0342 4.12966 14.1149L2.06042 16.1841C1.9798 16.2647 1.84543 16.2647 1.76481 16.1841Z" fill="#C8CACF"/>
<path id="Vector_9" fill-rule="evenodd" clip-rule="evenodd" d="M10.9822 12.5561L8.24109 9.81504C8.16047 9.73442 8.13359 9.62693 8.16047 9.51943C8.48295 8.36388 8.88605 7.50391 8.93979 7.39642C9.58475 6.1065 10.4984 4.81659 11.6003 3.71478C12.9439 2.37112 14.5026 1.32304 16.0881 0.678085C17.6468 0.059998 19.1517 -0.154966 20.4416 0.113768C20.5759 0.140641 20.6566 0.24811 20.6834 0.382476C20.9522 1.64552 20.7641 3.15046 20.1191 4.73598C19.501 6.29464 18.453 7.85326 17.1093 9.19693C15.9806 10.2987 14.7176 11.2393 13.4008 11.8843C13.3201 11.9111 12.4602 12.3411 11.3046 12.6367C11.1703 12.6636 11.0628 12.6367 10.9822 12.5561Z" fill="#DEE1E6"/>
<path id="Vector_10" fill-rule="evenodd" clip-rule="evenodd" d="M20.3072 4.2789C19.5279 3.95642 18.6411 3.39208 18.023 2.774C17.4586 2.18278 16.8405 1.29597 16.5181 0.516647C17.9155 0.0329268 19.286 -0.128297 20.4416 0.113563C20.5759 0.140437 20.6566 0.247905 20.6834 0.382272C20.9253 1.53783 20.7909 2.85461 20.3072 4.2789Z" fill="#DD4453"/>
<path id="Vector_11" fill-rule="evenodd" clip-rule="evenodd" d="M16.8944 4.95105C17.0825 5.7035 16.5988 6.48283 15.8464 6.67094C15.0939 6.83218 14.3146 6.37535 14.1265 5.59602C13.9652 4.84357 14.4221 4.06423 15.2014 3.90299C15.9539 3.71488 16.7332 4.1986 16.8944 4.95105Z" fill="#566371"/>
<path id="Vector_12" fill-rule="evenodd" clip-rule="evenodd" d="M16.4913 5.27359C16.4913 4.73613 16.0613 4.30615 15.5238 4.30615C14.9864 4.30615 14.5564 4.73613 14.5564 5.27359C14.5564 5.81106 14.9864 6.26789 15.5238 6.26789C16.0613 6.26789 16.4913 5.81106 16.4913 5.27359Z" fill="#FDDA81"/>
</g>
</svg>
