<svg width="20" height="21" viewBox="0 0 20 21" fill="none" xmlns="http://www.w3.org/2000/svg">
<g id="fi_7037815">
<path id="Vector" d="M18.4375 1.15625C18.4375 1.15625 19.375 2.26469 19.375 3.34375C19.375 5.84375 16.9181 5.69031 15.9375 7.40625C14.6875 9.59375 16.25 10.8438 15.625 13.6562C14.3225 19.5172 6.5625 18.3438 6.5625 18.3438L1.67687 12.4375C0.578124 4.59375 7.5 3.34375 7.5 3.34375C5.3125 4.59375 5.9375 6.46875 7.1875 7.09375C8.4375 7.71875 10.0194 6.67625 10 5.21875C9.97344 3.21875 11.8956 2.375 13.3906 3.34375C16.5806 5.41469 18.4375 2.40625 18.4375 1.15625Z" fill="#FFF575"/>
<path id="Vector_2" d="M18.3913 3.55719C18.0319 3.98505 17.5874 4.33337 17.086 4.57995C16.5846 4.82653 16.0373 4.96597 15.4791 4.98938C14.5476 4.9622 13.6444 4.66363 12.8803 4.13031C12.6429 3.97125 12.3645 3.88441 12.0788 3.88031C11.932 3.87787 11.7861 3.90478 11.6499 3.95947C11.5136 4.01415 11.3897 4.0955 11.2853 4.19875C11.163 4.33494 11.0692 4.49426 11.0094 4.6673C10.9497 4.84034 10.9252 5.0236 10.9375 5.20625C10.9421 5.59729 10.8685 5.98531 10.7209 6.34746C10.5733 6.70961 10.3548 7.03857 10.0781 7.315C9.80375 7.59626 9.4766 7.82063 9.11539 7.97528C8.75418 8.12993 8.36602 8.21182 7.97312 8.21625C7.55479 8.21721 7.14207 8.12003 6.76813 7.9325C6.29468 7.70113 5.89177 7.34729 5.6012 6.90769C5.31062 6.46809 5.14297 5.95874 5.11563 5.4325V5.39219C3.63625 6.44187 2.14406 8.41594 2.5725 12.0484L2.52719 13.4641L6.5625 18.3438C6.5625 18.3438 14.3225 19.5172 15.625 13.6562C16.25 10.8438 14.6875 9.59375 15.9375 7.40625C16.9181 5.69031 19.375 5.84375 19.375 3.34375C19.3537 2.87187 19.2218 2.41159 18.99 2C18.9165 2.55914 18.7113 3.09283 18.3913 3.55719Z" fill="#FFD83F"/>
<path id="Vector_3" d="M18.75 8.34375C18.75 8.34375 16.3725 9.02406 17.1875 11.4688C17.4141 12.1673 17.4465 12.9143 17.2814 13.6298C17.1163 14.3454 16.7598 15.0026 16.25 15.5312C16.25 15.5312 19.0625 14.5938 19.0625 11.7812C19.0625 10.2188 18.125 10.2188 18.75 8.34375Z" fill="#FFD83F"/>
<path id="Vector_4" d="M6.25 2.09362C6.25 2.09362 3.4375 2.40612 2.1875 4.59362C2.1875 4.59362 1.875 2.71862 3.4375 1.78112C4.88063 0.915187 6.25 2.09362 6.25 2.09362Z" fill="#FFD83F"/>
<path id="Vector_5" d="M9.375 2.40625C9.54759 2.40625 9.6875 2.26634 9.6875 2.09375C9.6875 1.92116 9.54759 1.78125 9.375 1.78125C9.20241 1.78125 9.0625 1.92116 9.0625 2.09375C9.0625 2.26634 9.20241 2.40625 9.375 2.40625Z" fill="#FFD83F"/>
<path id="Vector_6" d="M8.125 5.84375C8.47018 5.84375 8.75 5.56393 8.75 5.21875C8.75 4.87357 8.47018 4.59375 8.125 4.59375C7.77982 4.59375 7.5 4.87357 7.5 5.21875C7.5 5.56393 7.77982 5.84375 8.125 5.84375Z" fill="#FFD83F"/>
<path id="Vector_7" d="M16.875 18.0312C17.0476 18.0312 17.1875 17.8913 17.1875 17.7188C17.1875 17.5462 17.0476 17.4062 16.875 17.4062C16.7024 17.4062 16.5625 17.5462 16.5625 17.7188C16.5625 17.8913 16.7024 18.0312 16.875 18.0312Z" fill="#FFD83F"/>
<path id="Vector_8" d="M5.625 19.5938C8.38642 19.5938 10.625 17.3552 10.625 14.5938C10.625 11.8323 8.38642 9.59375 5.625 9.59375C2.86358 9.59375 0.625 11.8323 0.625 14.5938C0.625 17.3552 2.86358 19.5938 5.625 19.5938Z" fill="#D7184A"/>
<path id="Vector_9" d="M2.08938 18.1294C2.1925 18.2323 2.30031 18.3266 2.40969 18.4188C3.46999 18.9603 4.68874 19.1057 5.84668 18.8288C7.00462 18.552 8.02576 17.871 8.72641 16.9084C9.42705 15.9458 9.76121 14.7648 9.66878 13.5778C9.57635 12.3908 9.0634 11.2757 8.22219 10.4332C8.11906 10.3304 8.01125 10.236 7.90188 10.1438C6.84157 9.60229 5.62283 9.45689 4.46488 9.73378C3.30694 10.0107 2.2858 10.6917 1.58516 11.6542C0.884513 12.6168 0.550349 13.7979 0.642779 14.9849C0.735209 16.1719 1.24817 17.2869 2.08938 18.1294Z" fill="#F01D64"/>
<g id="Icon">
<path id="Vector_10" d="M3.08375 15.809L3.74688 15.1462C3.77672 15.1173 3.80053 15.0829 3.81691 15.0447C3.83329 15.0066 3.84191 14.9656 3.84227 14.9241C3.84263 14.8826 3.83472 14.8415 3.81901 14.8031C3.80329 14.7646 3.78009 14.7298 3.75075 14.7004C3.72141 14.6711 3.68652 14.6479 3.64811 14.6322C3.60971 14.6164 3.56856 14.6085 3.52706 14.6089C3.48557 14.6093 3.44456 14.6179 3.40644 14.6343C3.36831 14.6506 3.33383 14.6744 3.305 14.7043L2.64188 15.3671C2.58495 15.426 2.55345 15.505 2.55417 15.5869C2.55488 15.6689 2.58774 15.7472 2.64568 15.8052C2.70362 15.8631 2.782 15.896 2.86394 15.8967C2.94587 15.8974 3.02481 15.8659 3.08375 15.809Z" fill="#F1F8FF"/>
<path id="Vector_11" d="M4.63062 14.2622L5.29344 13.5994C5.3522 13.5408 5.38528 13.4613 5.38539 13.3783C5.38551 13.2953 5.35266 13.2157 5.29406 13.1569C5.23547 13.0981 5.15593 13.0651 5.07294 13.0649C4.98996 13.0648 4.91032 13.0977 4.85156 13.1563L4.1875 13.8203C4.13058 13.8793 4.09908 13.9582 4.09979 14.0401C4.1005 14.1221 4.13337 14.2005 4.19131 14.2584C4.24925 14.3163 4.32763 14.3492 4.40956 14.3499C4.4915 14.3506 4.57044 14.3191 4.62937 14.2622H4.63062Z" fill="#F1F8FF"/>
<path id="Vector_12" d="M6.1775 12.7155L6.84031 12.0524C6.87016 12.0236 6.89397 11.9891 6.91035 11.951C6.92672 11.9129 6.93534 11.8718 6.9357 11.8304C6.93606 11.7889 6.92816 11.7477 6.91245 11.7093C6.89673 11.6709 6.87353 11.636 6.84419 11.6067C6.81485 11.5773 6.77995 11.5541 6.74155 11.5384C6.70314 11.5227 6.66199 11.5148 6.6205 11.5151C6.57901 11.5155 6.538 11.5241 6.49987 11.5405C6.46175 11.5569 6.42727 11.5807 6.39844 11.6105L5.73563 12.2737C5.6787 12.3326 5.6472 12.4115 5.64792 12.4935C5.64863 12.5754 5.68149 12.6538 5.73943 12.7117C5.79737 12.7697 5.87575 12.8025 5.95769 12.8033C6.03962 12.804 6.11856 12.7725 6.1775 12.7155Z" fill="#F1F8FF"/>
<path id="Vector_13" d="M5.0725 16.472L4.40969 17.1351C4.35276 17.1941 4.32126 17.273 4.32198 17.3549C4.32269 17.4369 4.35555 17.5153 4.41349 17.5732C4.47143 17.6311 4.54981 17.664 4.63175 17.6647C4.71369 17.6654 4.79262 17.6339 4.85156 17.577L5.51437 16.9139C5.5713 16.8549 5.6028 16.776 5.60208 16.6941C5.60137 16.6121 5.56851 16.5337 5.51057 16.4758C5.45263 16.4179 5.37425 16.385 5.29231 16.3843C5.21038 16.3836 5.13144 16.4151 5.0725 16.472Z" fill="#F1F8FF"/>
<path id="Vector_14" d="M6.61937 14.9251L5.95656 15.5879C5.92747 15.617 5.90437 15.6514 5.88859 15.6894C5.87281 15.7273 5.86466 15.768 5.86461 15.8091C5.86455 15.8501 5.87258 15.8908 5.88825 15.9288C5.90392 15.9668 5.92692 16.0013 5.95594 16.0304C5.98495 16.0595 6.01941 16.0826 6.05735 16.0984C6.09529 16.1142 6.13597 16.1223 6.17706 16.1224C6.26004 16.1225 6.33968 16.0897 6.39844 16.0311L7.0625 15.367C7.11942 15.3081 7.15092 15.2291 7.15021 15.1472C7.1495 15.0653 7.11663 14.9869 7.05869 14.9289C7.00075 14.871 6.92237 14.8381 6.84044 14.8374C6.7585 14.8367 6.67956 14.8682 6.62063 14.9251H6.61937Z" fill="#F1F8FF"/>
<path id="Vector_15" d="M8.16625 13.3782L7.50312 14.0411C7.47328 14.0699 7.44947 14.1044 7.43309 14.1425C7.41672 14.1806 7.40809 14.2216 7.40773 14.2631C7.40737 14.3046 7.41528 14.3458 7.43099 14.3842C7.44671 14.4226 7.46991 14.4575 7.49925 14.4868C7.52859 14.5162 7.56348 14.5394 7.60189 14.5551C7.64029 14.5708 7.68144 14.5787 7.72294 14.5783C7.76443 14.578 7.80544 14.5693 7.84356 14.553C7.88169 14.5366 7.91617 14.5128 7.945 14.4829L8.60812 13.8201C8.66505 13.7612 8.69655 13.6822 8.69584 13.6003C8.69512 13.5184 8.66226 13.44 8.60432 13.3821C8.54638 13.3241 8.468 13.2913 8.38606 13.2905C8.30413 13.2898 8.22519 13.3213 8.16625 13.3782Z" fill="#F1F8FF"/>
<path id="Vector_16" d="M1.49063 17.4021L2.2 16.693C2.25872 16.6344 2.29174 16.5548 2.2918 16.4718C2.29186 16.3888 2.25895 16.3092 2.20031 16.2505C2.17128 16.2214 2.1368 16.1983 2.09885 16.1826C2.0609 16.1668 2.02022 16.1587 1.97913 16.1587C1.89614 16.1586 1.81653 16.1915 1.75781 16.2502L1.16406 16.8439C1.26071 17.0369 1.36979 17.2233 1.49063 17.4021Z" fill="#F1F8FF"/>
<path id="Vector_17" d="M7.72406 11.1687L8.43312 10.4593C8.25509 10.3383 8.06938 10.2289 7.87719 10.1318L7.28344 10.7256C7.2248 10.7842 7.19184 10.8637 7.19181 10.9466C7.19178 11.0295 7.22468 11.109 7.28328 11.1676C7.34188 11.2263 7.42137 11.2592 7.50426 11.2592C7.58716 11.2593 7.66667 11.2264 7.72531 11.1678L7.72406 11.1687Z" fill="#F1F8FF"/>
</g>
<path id="Vector_18" d="M3.52594 18.0188L2.81688 18.7281C2.99491 18.8492 3.18061 18.9586 3.37281 19.0556L3.96656 18.4619C4.0252 18.4033 4.05816 18.3238 4.05819 18.2409C4.05822 18.158 4.02532 18.0785 3.96672 18.0198C3.90812 17.9612 3.82863 17.9283 3.74574 17.9282C3.66284 17.9282 3.58333 17.9611 3.52469 18.0197L3.52594 18.0188Z" fill="#DCEDFF"/>
<path id="Vector_19" d="M9.05 12.9373C9.07902 12.9663 9.11349 12.9894 9.15142 13.0051C9.18936 13.0208 9.23003 13.0289 9.27109 13.0289C9.31216 13.0289 9.35282 13.0208 9.39076 13.0051C9.4287 12.9894 9.46316 12.9663 9.49219 12.9373L10.0859 12.3435C9.98891 12.1513 9.87951 11.9656 9.75844 11.7876L9.04906 12.4967C8.99098 12.5553 8.95848 12.6346 8.95866 12.7172C8.95883 12.7997 8.99167 12.8789 9.05 12.9373Z" fill="#DCEDFF"/>
<path id="Vector_20" d="M2.08938 18.1296C2.16406 18.2039 2.24344 18.2705 2.32156 18.3393L9.37031 11.2905C9.30156 11.2124 9.235 11.1343 9.16063 11.0583C9.08625 10.9824 9.00656 10.9174 8.92844 10.8486L1.87969 17.8974C1.94844 17.9755 2.015 18.0549 2.08938 18.1296Z" fill="#DCEDFF"/>
<path id="Vector_21" d="M3.96875 18.0187C3.91015 17.9602 3.83068 17.9272 3.74781 17.9272C3.66495 17.9272 3.58548 17.9602 3.52688 18.0187L2.90625 18.6378C3.12775 18.7219 3.355 18.79 3.58625 18.8416L3.96875 18.4609C3.9978 18.4319 4.02085 18.3974 4.03658 18.3595C4.05231 18.3216 4.0604 18.2809 4.0604 18.2398C4.0604 18.1988 4.05231 18.1581 4.03658 18.1202C4.02085 18.0822 3.9978 18.0478 3.96875 18.0187Z" fill="#F1F8FF"/>
<path id="Vector_22" d="M9.05 12.9374C9.07902 12.9665 9.11349 12.9895 9.15142 13.0052C9.18936 13.021 9.23003 13.0291 9.27109 13.0291C9.31216 13.0291 9.35283 13.021 9.39076 13.0052C9.4287 12.9895 9.46316 12.9665 9.49219 12.9374L9.56031 12.869C9.50875 12.6377 9.44066 12.4105 9.35656 12.189L9.05 12.4955C8.99141 12.5541 8.9585 12.6336 8.9585 12.7165C8.9585 12.7993 8.99141 12.8788 9.05 12.9374Z" fill="#F1F8FF"/>
<path id="Vector_23" d="M2.08938 18.1292C2.16406 18.2036 2.24344 18.2701 2.32156 18.3389L9.07906 11.5817C8.97621 11.3946 8.86139 11.2143 8.73531 11.042L1.87969 17.897C1.94844 17.9751 2.015 18.0545 2.08938 18.1292Z" fill="#F1F8FF"/>
</g>
</svg>
