<svg width="20" height="21" viewBox="0 0 20 21" fill="none" xmlns="http://www.w3.org/2000/svg">
<g id="10-Casino chip">
<path id="Vector" d="M7.41935 2.47685C10.2698 2.47685 12.5806 2.188 12.5806 1.83168C12.5806 1.47537 10.2698 1.18652 7.41935 1.18652C4.56884 1.18652 2.25806 1.47537 2.25806 1.83168C2.25806 2.188 4.56884 2.47685 7.41935 2.47685Z" fill="#F7F3E1"/>
<path id="Vector_2" d="M2.25806 1.83165C2.25806 2.18649 4.56774 2.47681 7.41935 2.47681C10.271 2.47681 12.5806 2.18649 12.5806 1.83165C12.5806 1.47681 10.271 1.18649 7.41935 1.18649C4.56774 1.18649 2.25806 1.47681 2.25806 1.83165ZM7.41935 0.21875C11.5161 0.21875 14.8387 0.941331 14.8387 1.83165C14.8387 2.4994 12.9774 3.07036 10.3226 3.31875C9.43226 3.39939 8.44839 3.44456 7.41935 3.44456C6.39032 3.44456 5.40645 3.39939 4.51613 3.31875C1.86129 3.07036 0 2.4994 0 1.83165C0 0.941331 3.32258 0.21875 7.41935 0.21875Z" fill="#D1013E"/>
<path id="Vector_3" d="M10.3226 16.867C12.9774 16.6186 14.8387 16.0476 14.8387 15.3799V17.3154C14.8387 18.0347 12.671 18.6444 9.67743 18.8541V16.9186C9.89678 16.9025 10.1129 16.8831 10.3226 16.867Z" fill="#8F0029"/>
<path id="Vector_4" d="M4.51613 16.867C4.72581 16.8831 4.94194 16.9025 5.16129 16.9186V18.8541C2.16774 18.6444 0 18.0347 0 17.3154V15.3799C0 16.0476 1.86129 16.6186 4.51613 16.867Z" fill="#8F0029"/>
<path id="Vector_5" d="M9.67743 14.9833C9.89679 14.9671 10.1129 14.9478 10.3226 14.9316V16.8671C10.1129 16.8833 9.89679 16.9026 9.67743 16.9187C8.96453 16.9671 8.20647 16.9929 7.41937 16.9929C6.63227 16.9929 5.87421 16.9671 5.16131 16.9187C4.94195 16.9026 4.72582 16.8833 4.51614 16.8671V14.9316C4.72582 14.9478 4.94195 14.9671 5.16131 14.9833C5.87421 15.0316 6.63227 15.0574 7.41937 15.0574C8.20647 15.0574 8.96453 15.0316 9.67743 14.9833Z" fill="#8F0029"/>
<path id="Vector_6" d="M5.16129 13.048V14.9835C4.94194 14.9673 4.72581 14.948 4.51613 14.9319C1.86129 14.6835 0 14.1125 0 13.4448V11.5093C0 12.177 1.86129 12.748 4.51613 12.9964C4.72581 13.0125 4.94194 13.0319 5.16129 13.048Z" fill="#8F0029"/>
<path id="Vector_7" d="M10.3226 14.9319C10.1129 14.948 9.89678 14.9673 9.67743 14.9835V13.048C9.89678 13.0319 10.1129 13.0125 10.3226 12.9964C12.9774 12.748 14.8387 12.177 14.8387 11.5093V13.4448C14.8387 14.1125 12.9774 14.6835 10.3226 14.9319Z" fill="#8F0029"/>
<path id="Vector_8" d="M9.67743 11.1122C9.89679 11.096 10.1129 11.0767 10.3226 11.0605V12.996C10.1129 13.0122 9.89679 13.0315 9.67743 13.0476C8.96453 13.096 8.20647 13.1218 7.41937 13.1218C6.63227 13.1218 5.87421 13.096 5.16131 13.0476C4.94195 13.0315 4.72582 13.0122 4.51614 12.996V11.0605C4.72582 11.0767 4.94195 11.096 5.16131 11.1122C5.87421 11.1605 6.63227 11.1864 7.41937 11.1864C8.20647 11.1864 8.96453 11.1605 9.67743 11.1122Z" fill="#8F0029"/>
<path id="Vector_9" d="M10.3226 11.0608C10.1129 11.0769 9.89678 11.0962 9.67743 11.1124V9.17689C9.89678 9.16076 10.1129 9.14141 10.3226 9.12528C12.9774 8.87689 14.8387 8.30593 14.8387 7.63818V9.57367C14.8387 10.2414 12.9774 10.8124 10.3226 11.0608Z" fill="#A80132"/>
<path id="Vector_10" d="M5.16129 9.17689V11.1124C4.94194 11.0962 4.72581 11.0769 4.51613 11.0608C1.86129 10.8124 0 10.2414 0 9.57367V7.63818C0 8.30593 1.86129 8.87689 4.51613 9.12528C4.72581 9.14141 4.94194 9.16076 5.16129 9.17689Z" fill="#A80132"/>
<path id="Vector_11" d="M9.67743 7.24155C9.89679 7.22543 10.1129 7.20607 10.3226 7.18994V9.12543C10.1129 9.14155 9.89679 9.16091 9.67743 9.17704C8.96453 9.22543 8.20647 9.25123 7.41937 9.25123C6.63227 9.25123 5.87421 9.22543 5.16131 9.17704C4.94195 9.16091 4.72582 9.14155 4.51614 9.12543V7.18994C4.72582 7.20607 4.94195 7.22543 5.16131 7.24155C5.87421 7.28994 6.63227 7.31575 7.41937 7.31575C8.20647 7.31575 8.96453 7.28994 9.67743 7.24155Z" fill="#A80132"/>
<path id="Vector_12" d="M5.16129 5.3058V7.24128C4.94194 7.22515 4.72581 7.2058 4.51613 7.18967C1.86129 6.94128 0 6.37032 0 5.70257V3.76709C0 4.43483 1.86129 5.0058 4.51613 5.25419C4.72581 5.27032 4.94194 5.28967 5.16129 5.3058Z" fill="#A80132"/>
<path id="Vector_13" d="M10.3226 7.18967C10.1129 7.2058 9.89678 7.22515 9.67743 7.24128V5.3058C9.89678 5.28967 10.1129 5.27032 10.3226 5.25419C12.9774 5.0058 14.8387 4.43483 14.8387 3.76709V5.70257C14.8387 6.37032 12.9774 6.94128 10.3226 7.18967Z" fill="#A80132"/>
<path id="Vector_14" d="M9.67743 5.30594C8.96453 5.35433 8.20647 5.38014 7.41937 5.38014C6.63227 5.38014 5.87421 5.35433 5.16131 5.30594C4.94195 5.28982 4.72582 5.27046 4.51614 5.25433V3.31885C5.40647 3.39949 6.39034 3.44465 7.41937 3.44465C8.4484 3.44465 9.43227 3.39949 10.3226 3.31885V5.25433C10.1129 5.27046 9.89679 5.28982 9.67743 5.30594Z" fill="#A80132"/>
<path id="Vector_15" d="M9.67741 16.9189V18.8544C8.96451 18.9028 8.20645 18.9286 7.41935 18.9286C6.63225 18.9286 5.87419 18.9028 5.16129 18.8544V16.9189C5.87419 16.9673 6.63225 16.9931 7.41935 16.9931C8.20645 16.9931 8.96451 16.9673 9.67741 16.9189Z" fill="#E3DECB"/>
<g id="Icon">
<path id="Vector_16" d="M14.8387 13.4443V15.3798C14.8387 16.0476 12.9774 16.6185 10.3226 16.8669V14.9314C12.9774 14.683 14.8387 14.1121 14.8387 13.4443Z" fill="#F7F3E1"/>
<path id="Vector_17" d="M4.51613 14.9314V16.8669C1.86129 16.6185 0 16.0476 0 15.3798V13.4443C0 14.1121 1.86129 14.683 4.51613 14.9314Z" fill="#F7F3E1"/>
<path id="Vector_18" d="M9.67741 13.0479V14.9833C8.96451 15.0317 8.20645 15.0575 7.41935 15.0575C6.63225 15.0575 5.87419 15.0317 5.16129 14.9833V13.0479C5.87419 13.0962 6.63225 13.122 7.41935 13.122C8.20645 13.122 8.96451 13.0962 9.67741 13.0479Z" fill="#F7F3E1"/>
<path id="Vector_19" d="M14.8387 9.57324V11.5087C14.8387 12.1765 12.9774 12.7474 10.3226 12.9958V11.0603C12.9774 10.812 14.8387 10.241 14.8387 9.57324Z" fill="#F7F3E1"/>
<path id="Vector_20" d="M4.51613 11.0603V12.9958C1.86129 12.7474 0 12.1765 0 11.5087V9.57324C0 10.241 1.86129 10.812 4.51613 11.0603Z" fill="#F7F3E1"/>
<path id="Vector_21" d="M9.67741 9.17676V11.1122C8.96451 11.1606 8.20645 11.1864 7.41935 11.1864C6.63225 11.1864 5.87419 11.1606 5.16129 11.1122V9.17676C5.87419 9.22514 6.63225 9.25095 7.41935 9.25095C8.20645 9.25095 8.96451 9.22514 9.67741 9.17676Z" fill="#F7F3E1"/>
<path id="Vector_22" d="M14.8387 5.70264V7.63812C14.8387 8.30586 12.9774 8.87683 10.3226 9.12522V7.18973C12.9774 6.94135 14.8387 6.37038 14.8387 5.70264Z" fill="#F7F3E1"/>
<path id="Vector_23" d="M4.51613 7.18973V9.12522C1.86129 8.87683 0 8.30586 0 7.63812V5.70264C0 6.37038 1.86129 6.94135 4.51613 7.18973Z" fill="#F7F3E1"/>
<path id="Vector_24" d="M9.67741 5.30566V7.24115C8.96451 7.28953 8.20645 7.31534 7.41935 7.31534C6.63225 7.31534 5.87419 7.28953 5.16129 7.24115V5.30566C5.87419 5.35405 6.63225 5.37986 7.41935 5.37986C8.20645 5.37986 8.96451 5.35405 9.67741 5.30566Z" fill="#F7F3E1"/>
<path id="Vector_25" d="M10.3226 3.31864C12.9774 3.07025 14.8387 2.49928 14.8387 1.83154V3.76703C14.8387 4.43477 12.9774 5.00574 10.3226 5.25412V3.31864Z" fill="#F7F3E1"/>
<path id="Vector_26" d="M4.51613 3.31864V5.25412C1.86129 5.00574 0 4.43477 0 3.76703V1.83154C0 2.49928 1.86129 3.07025 4.51613 3.31864Z" fill="#F7F3E1"/>
</g>
<path id="Vector_27" d="M12.5806 1.83168C12.5806 1.88652 12.5258 1.94136 12.4193 1.99297C11.8452 1.71556 9.8258 1.5091 7.41935 1.5091C5.0129 1.5091 2.99354 1.71556 2.41935 1.99297C2.3129 1.94136 2.25806 1.88652 2.25806 1.83168C2.25806 1.47685 4.56773 1.18652 7.41935 1.18652C10.271 1.18652 12.5806 1.47685 12.5806 1.83168Z" fill="#C7C3B2"/>
<path id="Vector_28" d="M9.67741 6.59619V7.24135C8.96451 7.28974 8.20645 7.31555 7.41935 7.31555C6.63225 7.31555 5.87419 7.28974 5.16129 7.24135V6.59619C5.87419 6.64458 6.63225 6.67038 7.41935 6.67038C8.20645 6.67038 8.96451 6.64458 9.67741 6.59619Z" fill="#E3DECB"/>
<path id="Vector_29" d="M14.8387 5.05762V5.70278C14.8387 6.37052 12.9774 6.94149 10.3226 7.18988C10.1129 7.206 9.89678 7.22536 9.67743 7.24149V6.59633C9.89678 6.5802 10.1129 6.56084 10.3226 6.54471C12.9774 6.29633 14.8387 5.72536 14.8387 5.05762Z" fill="#7D0126"/>
<path id="Vector_30" d="M9.67741 10.4673V11.1124C8.96451 11.1608 8.20645 11.1866 7.41935 11.1866C6.63225 11.1866 5.87419 11.1608 5.16129 11.1124V10.4673C5.87419 10.5157 6.63225 10.5415 7.41935 10.5415C8.20645 10.5415 8.96451 10.5157 9.67741 10.4673Z" fill="#E3DECB"/>
<path id="Vector_31" d="M14.8387 8.92822V9.57338C14.8387 10.2411 12.9774 10.8121 10.3226 11.0605C10.1129 11.0766 9.89678 11.096 9.67743 11.1121V10.4669C9.89678 10.4508 10.1129 10.4314 10.3226 10.4153C12.9774 10.1669 14.8387 9.59596 14.8387 8.92822Z" fill="#7D0126"/>
<path id="Vector_32" d="M9.67741 14.3379V14.9831C8.96451 15.0314 8.20645 15.0572 7.41935 15.0572C6.63225 15.0572 5.87419 15.0314 5.16129 14.9831V14.3379C5.87419 14.3863 6.63225 14.4121 7.41935 14.4121C8.20645 14.4121 8.96451 14.3863 9.67741 14.3379Z" fill="#E3DECB"/>
<path id="Vector_33" d="M14.8387 12.7993V13.4445C14.8387 14.1122 12.9774 14.6832 10.3226 14.9316C10.1129 14.9477 9.89678 14.9671 9.67743 14.9832V14.338C9.89678 14.3219 10.1129 14.3025 10.3226 14.2864C12.9774 14.038 14.8387 13.4671 14.8387 12.7993Z" fill="#7D0126"/>
<path id="Vector_34" d="M10.3226 4.60889V5.25405C10.1129 5.27018 9.89679 5.28953 9.67743 5.30566C8.96453 5.35405 8.20647 5.37985 7.41937 5.37985C6.63227 5.37985 5.87421 5.35405 5.16131 5.30566C4.94195 5.28953 4.72582 5.27018 4.51614 5.25405V4.60889C5.40647 4.68953 6.39034 4.73469 7.41937 4.73469C8.4484 4.73469 9.43227 4.68953 10.3226 4.60889Z" fill="#7D0126"/>
<path id="Vector_35" d="M14.8387 3.12207V3.76723C14.8387 4.43497 12.9774 5.00594 10.3226 5.25433V4.60917C12.9774 4.36078 14.8387 3.78981 14.8387 3.12207Z" fill="#E3DECB"/>
<path id="Vector_36" d="M10.3226 8.47998V9.12514C10.1129 9.14127 9.89679 9.16063 9.67743 9.17675C8.96453 9.22514 8.20647 9.25095 7.41937 9.25095C6.63227 9.25095 5.87421 9.22514 5.16131 9.17675C4.94195 9.16063 4.72582 9.14127 4.51614 9.12514V8.47998C5.40647 8.56063 6.39034 8.60579 7.41937 8.60579C8.4484 8.60579 9.43227 8.56063 10.3226 8.47998Z" fill="#7D0126"/>
<path id="Vector_37" d="M14.8387 6.99316V7.63833C14.8387 8.30607 12.9774 8.87704 10.3226 9.12542V8.48026C12.9774 8.23187 14.8387 7.66091 14.8387 6.99316Z" fill="#E3DECB"/>
<path id="Vector_38" d="M10.3226 12.3511V12.9962C10.1129 13.0124 9.89679 13.0317 9.67743 13.0478C8.96453 13.0962 8.20647 13.122 7.41937 13.122C6.63227 13.122 5.87421 13.0962 5.16131 13.0478C4.94195 13.0317 4.72582 13.0124 4.51614 12.9962V12.3511C5.40647 12.4317 6.39034 12.4769 7.41937 12.4769C8.4484 12.4769 9.43227 12.4317 10.3226 12.3511Z" fill="#7D0126"/>
<path id="Vector_39" d="M14.8387 10.8638V11.5089C14.8387 12.1767 12.9774 12.7476 10.3226 12.996V12.3509C12.9774 12.1025 14.8387 11.5315 14.8387 10.8638Z" fill="#E3DECB"/>
<path id="Vector_40" d="M14.8387 14.7349V15.38C14.8387 16.0478 12.9774 16.6187 10.3226 16.8671V16.222C12.9774 15.9736 14.8387 15.4026 14.8387 14.7349Z" fill="#E3DECB"/>
<path id="Vector_41" d="M14.8387 15.3799V17.3154C14.8387 18.0347 12.671 18.6444 9.67743 18.8541V16.9186C9.89678 16.9025 10.1129 16.8831 10.3226 16.867C10.8807 16.8154 11.4 16.7476 11.8774 16.6702H13.5484C13.8906 16.6702 14.2188 16.5343 14.4608 16.2923C14.7028 16.0503 14.8387 15.7221 14.8387 15.3799Z" fill="#7D0126"/>
<path id="Vector_42" d="M4.51613 16.867C4.72581 16.8831 4.94194 16.9025 5.16129 16.9186V18.8541C2.16774 18.6444 0 18.0347 0 17.3154V15.3799C0 16.0476 1.86129 16.6186 4.51613 16.867Z" fill="#7D0126"/>
<path id="Vector_43" d="M8.72195 16.3216C7.71329 16.0464 6.75669 15.6073 5.89034 15.022H5.88711C5.6398 15.0123 5.39786 14.9994 5.16131 14.9833C4.94195 14.9671 4.72582 14.9478 4.51614 14.9316V16.8671C4.72582 16.8833 4.94195 16.9026 5.16131 16.9187C5.87421 16.9671 6.63227 16.9929 7.41937 16.9929C8.20647 16.9929 8.96453 16.9671 9.67743 16.9187C9.89679 16.9026 10.1129 16.8833 10.3226 16.8671V16.222C9.81711 16.2678 9.27905 16.3007 8.72195 16.3216Z" fill="#7D0126"/>
<path id="Vector_44" d="M4.9771 14.3235C4.47826 13.8949 4.02431 13.4168 3.62226 12.8964C1.45484 12.6125 0 12.0996 0 11.5093V13.4448C0 14.1125 1.86129 14.6835 4.51613 14.9319C4.72581 14.948 4.94194 14.9673 5.16129 14.9835V14.3383C5.09871 14.3338 5.03903 14.3286 4.9771 14.3235Z" fill="#7D0126"/>
<path id="Vector_45" d="M4.51613 10.4156C3.70817 10.3451 2.90535 10.2246 2.11226 10.055C1.96108 9.60633 1.84482 9.14668 1.76452 8.68012C0.664516 8.4027 0 8.03818 0 7.63818V9.57367C0 10.2414 1.86129 10.8124 4.51613 11.0608C4.72581 11.0769 4.94194 11.0962 5.16129 11.1124V10.4672C4.94194 10.4511 4.72581 10.4317 4.51613 10.4156Z" fill="#7D0126"/>
<path id="Vector_46" d="M4.51613 6.54451C3.5366 6.4644 2.56547 6.30254 1.6129 6.06064V4.77032C0.603226 4.49612 0 4.14773 0 3.76709V5.70257C0 6.37032 1.86129 6.94128 4.51613 7.18967C4.72581 7.2058 4.94194 7.22515 5.16129 7.24128V6.59612C4.94194 6.57999 4.72581 6.56064 4.51613 6.54451Z" fill="#7D0126"/>
<path id="Vector_47" d="M9.67741 16.9189V18.8544C8.96451 18.9028 8.20645 18.9286 7.41935 18.9286C6.63225 18.9286 5.87419 18.9028 5.16129 18.8544V16.9189C5.87419 16.9673 6.63225 16.9931 7.41935 16.9931C8.20645 16.9931 8.96451 16.9673 9.67741 16.9189Z" fill="#D9D4C2"/>
<path id="Vector_48" d="M4.51613 14.9314V16.8669C1.86129 16.6185 0 16.0476 0 15.3798V13.4443C0 14.1121 1.86129 14.683 4.51613 14.9314Z" fill="#E3DECB"/>
<path id="Vector_49" d="M4.51613 12.3512C4.02323 12.305 3.55774 12.2476 3.12645 12.1808C2.83704 11.7279 2.58543 11.2519 2.37419 10.7576V10.7544C0.912903 10.4608 0 10.0415 0 9.57373V11.5092C0 12.0989 1.45355 12.6131 3.62194 12.8963C3.90817 12.9333 4.20602 12.9666 4.51548 12.9963L4.51613 12.3512Z" fill="#E3DECB"/>
<path id="Vector_50" d="M1.67 8.01167C1.63258 7.67338 1.61352 7.33331 1.6129 6.99296V6.70586C0.603226 6.43167 0 6.08328 0 5.70264V7.63812C0 8.30586 1.86129 8.87683 4.51613 9.12522V8.48006C3.55633 8.40105 2.6045 8.24441 1.67 8.01167Z" fill="#E3DECB"/>
<path id="Vector_51" d="M1.6129 4.12606V2.83574C0.603226 2.56058 0 2.21219 0 1.83154V3.76703C0 4.43477 1.86129 5.00574 4.51613 5.25412V4.60896C3.53662 4.52917 2.5655 4.36764 1.6129 4.12606Z" fill="#E3DECB"/>
<path id="Vector_52" d="M19.8387 11.2608C20.0538 12.2753 20.0538 13.3237 19.8387 14.3382L19.4 14.1479C19.1742 14.0027 18.8581 14.1414 18.6968 14.4543L17.5161 16.7317C17.4325 16.8611 17.3979 17.0161 17.4186 17.1687C17.4393 17.3214 17.5139 17.4616 17.629 17.564L17.9839 17.8801C17.044 18.8827 15.8431 19.6033 14.5161 19.9608V19.4446C14.4968 19.2916 14.4186 19.1521 14.2982 19.0558C14.1777 18.9594 14.0245 18.9138 13.871 18.9285H11.2903C11.1368 18.9138 10.9835 18.9594 10.8631 19.0558C10.7427 19.1521 10.6645 19.2916 10.6451 19.4446V19.9608C9.31938 19.6044 8.11947 18.8849 7.18063 17.8833L7.5387 17.564C7.65281 17.461 7.72675 17.3209 7.74742 17.1685C7.76808 17.0162 7.73414 16.8614 7.6516 16.7317L6.47095 14.4543C6.30644 14.1414 5.99353 14.0027 5.76773 14.1479L5.32257 14.3382C5.21462 13.8324 5.16055 13.3166 5.16128 12.7995C5.16002 12.281 5.21519 11.764 5.32579 11.2575L5.76773 11.4479C5.99353 11.593 6.30644 11.4575 6.47095 11.1414L7.6516 8.86722C7.73433 8.73757 7.76839 8.58279 7.74771 8.43039C7.72704 8.27799 7.65298 8.13787 7.5387 8.03496L7.18386 7.7156C8.12094 6.71343 9.32 5.99378 10.6451 5.63818V6.15431C10.6645 6.30733 10.7427 6.4468 10.8631 6.54316C10.9835 6.63951 11.1368 6.68516 11.2903 6.67044H13.871C14.0245 6.68516 14.1777 6.63951 14.2982 6.54316C14.4186 6.4468 14.4968 6.30733 14.5161 6.15431V5.63818C15.8425 5.99491 17.0425 6.71563 17.9806 7.71883L17.629 8.03496C17.5139 8.13736 17.4393 8.27756 17.4186 8.4302C17.3979 8.58284 17.4325 8.73786 17.5161 8.86722L18.6968 11.1414C18.8581 11.4575 19.1742 11.593 19.4 11.4479L19.8387 11.2608ZM17.4193 12.7995C17.4193 11.8425 17.1356 10.907 16.6039 10.1112C16.0722 9.31551 15.3165 8.69532 14.4323 8.32909C13.5482 7.96286 12.5753 7.86704 11.6366 8.05374C10.698 8.24044 9.83585 8.70128 9.15915 9.37799C8.48244 10.0547 8.0216 10.9169 7.8349 11.8555C7.64819 12.7941 7.74402 13.767 8.11025 14.6512C8.47648 15.5353 9.09667 16.291 9.89239 16.8227C10.6881 17.3544 11.6236 17.6382 12.5806 17.6382C13.8638 17.6378 15.0943 17.1278 16.0016 16.2205C16.909 15.3131 17.4189 14.0826 17.4193 12.7995Z" fill="#D1013E"/>
<path id="Vector_53" d="M12.5807 7.96045C13.5377 7.96045 14.4732 8.24423 15.2689 8.77592C16.0646 9.3076 16.6848 10.0633 17.051 10.9475C17.4173 11.8316 17.5131 12.8045 17.3264 13.7431C17.1397 14.6818 16.6788 15.5439 16.0021 16.2206C15.3254 16.8973 14.4633 17.3582 13.5246 17.5449C12.586 17.7316 11.6131 17.6358 10.729 17.2695C9.8448 16.9033 9.0891 16.2831 8.55741 15.4874C8.02573 14.6917 7.74194 13.7562 7.74194 12.7992C7.74237 11.516 8.2523 10.2855 9.15964 9.37815C10.067 8.4708 11.2975 7.96088 12.5807 7.96045ZM15.1613 12.7992C13.6871 12.383 12.5807 9.89593 12.5807 9.89593C12.5807 9.89593 11.4742 12.383 10 12.7992C11.4742 13.2153 12.5807 15.7024 12.5807 15.7024C12.5807 15.7024 13.6871 13.2153 15.1613 12.7992Z" fill="#FFFCED"/>
<path id="Vector_54" d="M12.5806 9.896C12.5806 9.896 13.6871 12.3831 15.1613 12.7992C13.6871 13.2154 12.5806 15.7024 12.5806 15.7024C12.5806 15.7024 11.4742 13.2154 10 12.7992C11.4742 12.3831 12.5806 9.896 12.5806 9.896Z" fill="#D1013E"/>
<path id="Vector_55" d="M14.5161 19.4446V19.9607C13.2488 20.3048 11.9126 20.3048 10.6452 19.9607V19.4446C10.6645 19.2916 10.7427 19.1521 10.8631 19.0558C10.9836 18.9594 11.1368 18.9138 11.2903 18.9285H13.871C14.0245 18.9138 14.1777 18.9594 14.2982 19.0558C14.4186 19.1521 14.4968 19.2916 14.5161 19.4446Z" fill="#F7F3E1"/>
<path id="Vector_56" d="M5.76773 14.148C5.99354 14.0028 6.30644 14.1415 6.47096 14.4544L7.6516 16.7319C7.73414 16.8616 7.76809 17.0163 7.74742 17.1686C7.72676 17.321 7.65281 17.4611 7.5387 17.5641L7.18064 17.8835C6.24736 16.8949 5.60448 15.6683 5.32257 14.3383L5.76773 14.148Z" fill="#F7F3E1"/>
<path id="Vector_57" d="M6.47097 11.1411C6.30645 11.4573 5.99355 11.5928 5.76774 11.4476L5.32581 11.2573C5.60505 9.92728 6.24833 8.70103 7.18387 7.71533L7.53871 8.03469C7.65299 8.1376 7.72705 8.27772 7.74773 8.43012C7.7684 8.58251 7.73434 8.7373 7.65161 8.86694L6.47097 11.1411Z" fill="#F7F3E1"/>
<path id="Vector_58" d="M14.5161 5.63795V6.15408C14.4968 6.3071 14.4186 6.44657 14.2982 6.54292C14.1777 6.63927 14.0245 6.68493 13.871 6.67021H11.2903C11.1368 6.68493 10.9836 6.63927 10.8631 6.54292C10.7427 6.44657 10.6645 6.3071 10.6452 6.15408V5.63795C11.9126 5.29386 13.2488 5.29386 14.5161 5.63795Z" fill="#F7F3E1"/>
<path id="Vector_59" d="M19.4 11.4478C19.1742 11.5929 18.8581 11.4575 18.6968 11.1413L17.5161 8.86714C17.4325 8.73778 17.3979 8.58276 17.4186 8.43012C17.4393 8.27748 17.514 8.13728 17.629 8.03488L17.9806 7.71875C18.915 8.70528 19.5581 9.93118 19.8387 11.2607L19.4 11.4478Z" fill="#F7F3E1"/>
<path id="Vector_60" d="M18.6968 14.4544C18.8581 14.1415 19.1742 14.0028 19.4 14.148L19.8387 14.3383C19.5579 15.6671 18.9161 16.8926 17.9839 17.8802L17.629 17.5641C17.514 17.4617 17.4393 17.3215 17.4186 17.1689C17.3979 17.0162 17.4325 16.8612 17.5161 16.7319L18.6968 14.4544Z" fill="#F7F3E1"/>
<path id="Vector_61" d="M12.5806 7.63818C11.5598 7.63818 10.5619 7.94089 9.71318 8.50802C8.86441 9.07515 8.20287 9.88123 7.81222 10.8243C7.42158 11.7674 7.31937 12.8052 7.51852 13.8064C7.71767 14.8076 8.20923 15.7272 8.93105 16.4491C9.65287 17.1709 10.5725 17.6624 11.5737 17.8616C12.5749 18.0607 13.6127 17.9585 14.5558 17.5679C15.4989 17.1772 16.305 16.5157 16.8721 15.6669C17.4392 14.8182 17.7419 13.8203 17.7419 12.7995C17.7419 11.4306 17.1981 10.1178 16.2302 9.14989C15.2623 8.18196 13.9495 7.63818 12.5806 7.63818ZM12.5806 17.6382C11.6236 17.6382 10.6881 17.3544 9.89239 16.8227C9.09667 16.291 8.47648 15.5353 8.11025 14.6512C7.74402 13.767 7.6482 12.7941 7.8349 11.8555C8.0216 10.9169 8.48244 10.0547 9.15915 9.37799C9.83586 8.70128 10.698 8.24044 11.6366 8.05374C12.5753 7.86704 13.5482 7.96286 14.4323 8.32909C15.3165 8.69532 16.0722 9.31551 16.6039 10.1112C17.1356 10.907 17.4193 11.8425 17.4193 12.7995C17.4189 14.0826 16.909 15.3131 16.0016 16.2205C15.0943 17.1278 13.8638 17.6378 12.5806 17.6382Z" fill="#A80132"/>
<path id="Vector_62" d="M12.5807 7.96045C11.6236 7.96045 10.6881 8.24423 9.89241 8.77592C9.09669 9.3076 8.4765 10.0633 8.11027 10.9475C7.74404 11.8316 7.64822 12.8045 7.83492 13.7431C8.02162 14.6818 8.48246 15.5439 9.15917 16.2206C9.83588 16.8973 10.6981 17.3582 11.6367 17.5449C12.5753 17.7316 13.5482 17.6358 14.4323 17.2695C15.3165 16.9033 16.0722 16.2831 16.6039 15.4874C17.1356 14.6917 17.4194 13.7562 17.4194 12.7992C17.4189 11.516 16.909 10.2855 16.0017 9.37815C15.0943 8.4708 13.8638 7.96088 12.5807 7.96045ZM12.5807 17.3153C11.6874 17.3153 10.8143 17.0504 10.0716 16.5542C9.32895 16.0579 8.75011 15.3526 8.4083 14.5274C8.06648 13.7022 7.97705 12.7941 8.1513 11.9181C8.32556 11.0421 8.75568 10.2374 9.38727 9.60577C10.0189 8.97418 10.8236 8.54406 11.6996 8.36981C12.5756 8.19555 13.4837 8.28498 14.3089 8.6268C15.1341 8.96861 15.8394 9.54746 16.3357 10.2901C16.8319 11.0328 17.0968 11.906 17.0968 12.7992C17.0968 13.9969 16.621 15.1456 15.774 15.9925C14.9271 16.8395 13.7784 17.3153 12.5807 17.3153Z" fill="#E3DECB"/>
<path id="Vector_63" d="M14.5161 19.4446V19.9607C13.2488 20.3048 11.9126 20.3048 10.6452 19.9607V19.4446C10.6645 19.2916 10.7427 19.1521 10.8631 19.0558C10.9836 18.9594 11.1368 18.9138 11.2903 18.9285H13.871C14.0245 18.9138 14.1777 18.9594 14.2982 19.0558C14.4186 19.1521 14.4968 19.2916 14.5161 19.4446Z" fill="#E3DECB"/>
<path id="Vector_64" d="M7.5387 17.5641L7.18064 17.8835C6.24736 16.8949 5.60448 15.6683 5.32257 14.3383L5.76773 14.148C5.99354 14.0028 6.30644 14.1415 6.47096 14.4544L7.6516 16.7319C7.73414 16.8616 7.76809 17.0163 7.74742 17.1686C7.72676 17.321 7.65281 17.4611 7.5387 17.5641Z" fill="#E3DECB"/>
<path id="Vector_65" d="M19.8387 14.3383C19.5579 15.6671 18.9161 16.8926 17.9839 17.8802L17.629 17.5641C17.514 17.4617 17.4393 17.3215 17.4186 17.1689C17.3979 17.0162 17.4325 16.8612 17.5161 16.7319L18.6968 14.4544C18.8581 14.1415 19.1742 14.0028 19.4 14.148L19.8387 14.3383Z" fill="#E3DECB"/>
<path id="Vector_66" d="M5.48386 12.7996C5.48371 12.325 5.53094 11.8516 5.62482 11.3864L5.32579 11.2573C5.21516 11.7639 5.16 12.281 5.16128 12.7996C5.16055 13.3167 5.21462 13.8325 5.32257 14.3383L5.6245 14.2093C5.5309 13.7452 5.48378 13.273 5.48386 12.7996Z" fill="#8F0029"/>
<path id="Vector_67" d="M10.6452 5.97205V5.63818C9.32001 5.99378 8.12095 6.71343 7.18387 7.7156L7.42129 7.92947C8.29956 6.998 9.41357 6.32161 10.6452 5.97205Z" fill="#8F0029"/>
<path id="Vector_68" d="M7.42096 17.6704L7.18063 17.8846C8.11963 18.8857 9.31953 19.6048 10.6451 19.9607V19.6269C9.41355 19.2776 8.29943 18.6016 7.42096 17.6704Z" fill="#8F0029"/>
<path id="Vector_69" d="M17.742 7.93238L17.9797 7.71883C17.0419 6.71578 15.8421 5.99508 14.5161 5.63818V5.97205C15.7488 6.3221 16.8635 6.99953 17.742 7.93238Z" fill="#8F0029"/>
<path id="Vector_70" d="M19.8387 11.2607L19.5368 11.3898C19.7241 12.3198 19.7241 13.2778 19.5368 14.2078L19.8384 14.3385C20.0535 13.324 20.0535 12.2756 19.8384 11.2611L19.8387 11.2607Z" fill="#8F0029"/>
<path id="Vector_71" d="M14.5161 19.627V19.9609C15.8431 19.6034 17.044 18.8828 17.9839 17.8802L17.7436 17.666C16.8647 18.5993 15.7494 19.277 14.5161 19.627Z" fill="#8F0029"/>
<path id="Vector_72" d="M12.5807 19.8963C11.9262 19.8962 11.2748 19.8056 10.6452 19.627V19.9608C11.9126 20.3049 13.2488 20.3049 14.5161 19.9608V19.627C13.8865 19.8056 13.2352 19.8962 12.5807 19.8963Z" fill="#C7C3B2"/>
<path id="Vector_73" d="M5.62451 14.209L5.32257 14.338C5.60448 15.668 6.24736 16.8946 7.18064 17.8832L7.42096 17.669C6.5099 16.7067 5.88745 15.5078 5.62451 14.209Z" fill="#C7C3B2"/>
<path id="Vector_74" d="M7.42129 7.92823L7.18387 7.71436C6.24833 8.70005 5.60505 9.9263 5.32581 11.2563L5.62484 11.3853C5.88837 10.0876 6.51078 8.88979 7.42129 7.92823Z" fill="#E3DECB"/>
<path id="Vector_75" d="M12.5807 5.70246C13.2352 5.70257 13.8865 5.79321 14.5161 5.97182V5.63795C13.2488 5.29386 11.9126 5.29386 10.6452 5.63795V5.97182C11.2748 5.79321 11.9262 5.70257 12.5807 5.70246Z" fill="#E3DECB"/>
<path id="Vector_76" d="M19.5368 11.3892L19.8387 11.2602C19.5581 9.93069 18.915 8.70479 17.9807 7.71826L17.7419 7.93213C18.6519 8.89385 19.2738 10.0916 19.5368 11.3892Z" fill="#E3DECB"/>
<path id="Vector_77" d="M17.7436 17.6659L17.9839 17.8801C18.9161 16.8925 19.5579 15.6669 19.8387 14.3382L19.5371 14.2075C19.2746 15.5054 18.6532 16.7036 17.7436 17.6659Z" fill="#C7C3B2"/>
<path id="Vector_78" d="M18.7097 13.1222C18.8878 13.1222 19.0322 12.9778 19.0322 12.7996C19.0322 12.6215 18.8878 12.4771 18.7097 12.4771C18.5315 12.4771 18.3871 12.6215 18.3871 12.7996C18.3871 12.9778 18.5315 13.1222 18.7097 13.1222Z" fill="#FFFCED"/>
<path id="Vector_79" d="M6.45161 13.1222C6.62977 13.1222 6.77419 12.9778 6.77419 12.7996C6.77419 12.6215 6.62977 12.4771 6.45161 12.4771C6.27345 12.4771 6.12903 12.6215 6.12903 12.7996C6.12903 12.9778 6.27345 13.1222 6.45161 13.1222Z" fill="#FFFCED"/>
<path id="Vector_80" d="M9.35484 18.2833C9.53299 18.2833 9.67742 18.1389 9.67742 17.9608C9.67742 17.7826 9.53299 17.6382 9.35484 17.6382C9.17668 17.6382 9.03226 17.7826 9.03226 17.9608C9.03226 18.1389 9.17668 18.2833 9.35484 18.2833Z" fill="#FFFCED"/>
<path id="Vector_81" d="M15.8065 18.2833C15.9846 18.2833 16.129 18.1389 16.129 17.9608C16.129 17.7826 15.9846 17.6382 15.8065 17.6382C15.6283 17.6382 15.4839 17.7826 15.4839 17.9608C15.4839 18.1389 15.6283 18.2833 15.8065 18.2833Z" fill="#FFFCED"/>
<path id="Vector_82" d="M9.35484 7.96059C9.53299 7.96059 9.67742 7.81617 9.67742 7.63801C9.67742 7.45985 9.53299 7.31543 9.35484 7.31543C9.17668 7.31543 9.03226 7.45985 9.03226 7.63801C9.03226 7.81617 9.17668 7.96059 9.35484 7.96059Z" fill="#FFFCED"/>
<path id="Vector_83" d="M15.8065 7.96059C15.9846 7.96059 16.129 7.81617 16.129 7.63801C16.129 7.45985 15.9846 7.31543 15.8065 7.31543C15.6283 7.31543 15.4839 7.45985 15.4839 7.63801C15.4839 7.81617 15.6283 7.96059 15.8065 7.96059Z" fill="#FFFCED"/>
</g>
</svg>
