<svg width="32" height="33" viewBox="0 0 32 33" fill="none" xmlns="http://www.w3.org/2000/svg">
<g id="fi_3318660">
<g id="Play">
<path id="Vector" d="M24.8827 13.5691L10.216 5.29439C9.73702 5.02066 9.19409 4.87869 8.64243 4.8829C8.09077 4.88712 7.55007 5.03738 7.07533 5.31839C6.61282 5.58291 6.22856 5.96514 5.96159 6.42625C5.69462 6.88735 5.55446 7.41091 5.55533 7.94372V24.4931C5.55446 25.0259 5.69462 25.5494 5.96159 26.0105C6.22856 26.4716 6.61282 26.8539 7.07533 27.1184C7.55012 27.3993 8.0908 27.5494 8.64243 27.5537C9.19406 27.5579 9.73698 27.416 10.216 27.1424L24.8827 18.8677C25.3557 18.6057 25.7499 18.2218 26.0244 17.7559C26.299 17.29 26.4437 16.7591 26.4437 16.2184C26.4437 15.6776 26.299 15.1468 26.0244 14.6809C25.7499 14.215 25.3557 13.8311 24.8827 13.5691Z" fill="#706C93"/>
</g>
</g>
</svg>
