<svg width="20" height="21" viewBox="0 0 20 21" fill="none" xmlns="http://www.w3.org/2000/svg">
<g id="fi_2108654" clip-path="url(#clip0_171_962)">
<path id="Vector" d="M12.7795 17.7423C16.7673 17.7423 20 14.5096 20 10.5218C20 6.53401 16.7673 3.30127 12.7795 3.30127C8.79172 3.30127 5.55898 6.53401 5.55898 10.5218C5.55898 14.5096 8.79168 17.7423 12.7795 17.7423Z" fill="url(#paint0_linear_171_962)"/>
<path id="Vector_2" d="M19.8425 9.01693L16.7887 9.66991C16.345 9.76478 15.882 9.65517 15.5278 9.37176L13.2733 7.56748C12.9148 7.28035 12.7061 6.84599 12.7058 6.38701V6.38419L12.7107 3.30203C12.7336 3.30176 12.7565 3.30176 12.7795 3.30176C16.251 3.30168 19.1505 5.75188 19.8425 9.01693Z" fill="url(#paint1_linear_171_962)"/>
<path id="Vector_3" d="M12.7058 6.38417V6.38699C12.7058 6.84597 12.4969 7.28036 12.1387 7.56746L9.88415 9.37174C9.57662 9.6175 9.18756 9.73276 8.80023 9.6968C8.74106 9.69142 8.68188 9.68236 8.62298 9.66989L6.04058 9.11774L5.70984 9.04695C6.38572 5.7915 9.25384 3.3388 12.701 3.30225L12.7058 6.38417Z" fill="url(#paint2_linear_171_962)"/>
<path id="Vector_4" d="M10.207 14.147L10.1877 14.1688L8.46074 16.0824C8.41968 16.1279 8.37552 16.1698 8.32909 16.2081C6.64262 14.8863 5.55898 12.8309 5.55898 10.522C5.55898 10.0505 5.604 9.58984 5.69035 9.14388C5.80447 9.11867 5.92227 9.10961 6.04062 9.11753C6.09839 9.12149 6.1567 9.12941 6.21447 9.14188L8.73541 9.68074C8.75721 9.68557 8.77901 9.69067 8.80023 9.69659C9.20176 9.80533 9.52313 10.1097 9.65227 10.5084L10.446 12.9608C10.5788 13.3714 10.4876 13.8211 10.207 14.147Z" fill="url(#paint3_linear_171_962)"/>
<path id="Vector_5" d="M20 10.5221C20 12.8309 18.9163 14.8864 17.2299 16.2081C17.1834 16.1699 17.1393 16.128 17.0982 16.0824L15.3712 14.1689L15.352 14.147C15.0714 13.8211 14.9802 13.3715 15.113 12.9609L15.9067 10.5085C16.0426 10.0885 16.392 9.77309 16.8236 9.68077L19.3445 9.14191C19.5203 9.10454 19.6987 9.10622 19.8686 9.14391C19.955 9.58991 20 10.0506 20 10.5221Z" fill="url(#paint4_linear_171_962)"/>
<path id="Vector_6" d="M17.1678 16.2567C15.9517 17.1888 14.4303 17.7427 12.7794 17.7427C11.1286 17.7427 9.60721 17.1888 8.39105 16.2567C8.44231 16.1632 8.50431 16.0746 8.57682 15.9925L10.1877 14.169L10.2069 14.1472L10.2344 14.1163C10.5133 13.8006 10.9145 13.6196 11.3359 13.6196H14.2229C14.6443 13.6196 15.0455 13.8006 15.3244 14.1163L15.3519 14.1472L15.3712 14.169L16.982 15.9925C17.0546 16.0746 17.1166 16.1632 17.1678 16.2567Z" fill="url(#paint5_linear_171_962)"/>
<path id="Vector_7" d="M11.9869 7.68236L10.148 9.0184C9.67533 9.36178 9.47757 9.97048 9.65808 10.5261L10.3605 12.6879C10.541 13.2435 11.0588 13.6197 11.643 13.6197H13.916C14.5002 13.6197 15.018 13.2435 15.1985 12.6879L15.9009 10.5261C16.0814 9.97048 15.8836 9.36181 15.411 9.0184L13.5721 7.68236C13.0995 7.33895 12.4595 7.33895 11.9869 7.68236Z" fill="url(#paint6_linear_171_962)"/>
<path id="Vector_8" d="M14.6557 3.54735L13.572 4.33452C13.0995 4.67798 12.4595 4.67798 11.9869 4.33452L10.9033 3.54735C11.5016 3.3868 12.1305 3.30127 12.7795 3.30127C13.4285 3.30127 14.0574 3.3868 14.6557 3.54735Z" fill="url(#paint7_linear_171_962)"/>
<path id="Vector_9" d="M19.9949 10.2503L19.509 9.91162C19.0296 9.57778 18.8198 8.97296 18.9894 8.41401L19.2949 7.40625C19.71 8.27272 19.9575 9.2346 19.9949 10.2503Z" fill="url(#paint8_linear_171_962)"/>
<path id="Vector_10" d="M6.04996 9.91162L5.56404 10.2503C5.60141 9.2346 5.8489 8.27272 6.264 7.40625L6.56953 8.41401C6.73918 8.97296 6.52934 9.57778 6.04996 9.91162Z" fill="url(#paint9_linear_171_962)"/>
<path id="Vector_11" d="M10.0598 17.2126C8.92654 16.7516 7.93693 16.0109 7.17635 15.0762L8.56493 15.1603C9.14823 15.1957 9.64235 15.6023 9.78874 16.1678L10.0598 17.2126Z" fill="url(#paint10_linear_171_962)"/>
<path id="Vector_12" d="M18.3826 15.0762C17.622 16.0109 16.6324 16.7516 15.4992 17.2126L15.7702 16.1677C15.9166 15.6023 16.4107 15.1957 16.994 15.1602L18.3826 15.0762Z" fill="url(#paint11_linear_171_962)"/>
<path id="Vector_13" d="M13.4465 3.96875C9.45871 3.96875 6.22597 7.2015 6.22597 11.1893C6.22597 13.0134 6.90271 14.6793 8.01844 15.9503C9.28946 17.066 10.9553 17.7428 12.7795 17.7428C16.7673 17.7428 20 14.51 20 10.5223C20 8.69812 19.3233 7.03224 18.2075 5.76122C16.9365 4.64549 15.2706 3.96875 13.4465 3.96875Z" fill="url(#paint12_linear_171_962)"/>
<path id="Vector_14" d="M16.6319 4.41455C17.3367 5.52945 17.7449 6.85047 17.7449 8.26698C17.7449 12.2547 14.5121 15.4875 10.5244 15.4875C9.10784 15.4875 7.78686 15.0793 6.67192 14.3746C7.95118 16.3984 10.2082 17.7426 12.7795 17.7426C16.7673 17.7426 20 14.5099 20 10.5221C20 7.95083 18.6557 5.69381 16.6319 4.41455Z" fill="url(#paint13_linear_171_962)"/>
<path id="Vector_15" d="M5.72125 16.4898H0.191373C0.0856863 16.4898 0 16.4041 0 16.2985V15.4131C0 15.3074 0.0856863 15.2217 0.191373 15.2217H5.72122C5.8269 15.2217 5.91259 15.3074 5.91259 15.4131V16.2985C5.91263 16.4041 5.82694 16.4898 5.72125 16.4898Z" fill="url(#paint14_linear_171_962)"/>
<path id="Vector_16" d="M5.0193 16.4899H0.893338C0.801574 16.4899 0.727142 16.4155 0.727142 16.3237V15.3879C0.727142 15.2961 0.801535 15.2217 0.893338 15.2217H5.01926C5.11102 15.2217 5.18546 15.2961 5.18546 15.3879V16.3237C5.1855 16.4155 5.11106 16.4899 5.0193 16.4899Z" fill="url(#paint15_linear_171_962)"/>
<path id="Vector_17" d="M3.66671 16.4898H2.24593C2.19059 16.4898 2.14569 16.445 2.14569 16.3896V15.3219C2.14569 15.2665 2.19055 15.2217 2.24593 15.2217H3.66671C3.72204 15.2217 3.76695 15.2665 3.76695 15.3219V16.3896C3.76691 16.445 3.72204 16.4898 3.66671 16.4898Z" fill="url(#paint16_linear_171_962)"/>
<path id="Vector_18" d="M0.358273 15.376C0.252587 15.376 0.166901 15.4617 0.166901 15.5673V16.4528C0.166901 16.465 0.168156 16.477 0.170391 16.4886C0.177293 16.4894 0.184312 16.4899 0.19141 16.4899H5.72125C5.82694 16.4899 5.91263 16.4042 5.91263 16.2985V15.4131C5.91263 15.4008 5.91137 15.3888 5.90914 15.3772C5.90223 15.3764 5.89522 15.376 5.88812 15.376H0.358273Z" fill="url(#paint17_linear_171_962)"/>
<path id="Vector_19" d="M5.72125 15.2218H0.191373C0.0856863 15.2218 0 15.1361 0 15.0304V14.145C0 14.0393 0.0856863 13.9536 0.191373 13.9536H5.72122C5.8269 13.9536 5.91259 14.0393 5.91259 14.145V15.0304C5.91263 15.1361 5.82694 15.2218 5.72125 15.2218Z" fill="url(#paint18_linear_171_962)"/>
<path id="Vector_20" d="M5.0193 15.2213H0.893338C0.801574 15.2213 0.727142 15.1469 0.727142 15.0551V14.1193C0.727142 14.0275 0.801535 13.9531 0.893338 13.9531H5.01926C5.11102 13.9531 5.18546 14.0275 5.18546 14.1193V15.0551C5.1855 15.1469 5.11106 15.2213 5.0193 15.2213Z" fill="url(#paint19_linear_171_962)"/>
<path id="Vector_21" d="M3.66671 15.2218H2.24593C2.19059 15.2218 2.14569 15.1769 2.14569 15.1215V14.0538C2.14569 13.9985 2.19055 13.9536 2.24593 13.9536H3.66671C3.72204 13.9536 3.76695 13.9985 3.76695 14.0538V15.1215C3.76691 15.1769 3.72204 15.2218 3.66671 15.2218Z" fill="url(#paint20_linear_171_962)"/>
<path id="Vector_22" d="M0.358273 14.1074C0.252587 14.1074 0.166901 14.1931 0.166901 14.2988V15.1842C0.166901 15.1965 0.168156 15.2084 0.170391 15.2201C0.177293 15.2208 0.184312 15.2213 0.19141 15.2213H5.72125C5.82694 15.2213 5.91263 15.1356 5.91263 15.0299V14.1445C5.91263 14.1322 5.91137 14.1203 5.90914 14.1086C5.90223 14.1079 5.89522 14.1074 5.88812 14.1074H0.358273Z" fill="url(#paint21_linear_171_962)"/>
<path id="Vector_23" d="M5.72125 13.9532H0.191373C0.0856863 13.9532 0 13.8675 0 13.7618V12.8764C0 12.7707 0.0856863 12.6851 0.191373 12.6851H5.72122C5.8269 12.6851 5.91259 12.7707 5.91259 12.8764V13.7618C5.91263 13.8675 5.82694 13.9532 5.72125 13.9532Z" fill="url(#paint22_linear_171_962)"/>
<path id="Vector_24" d="M5.0193 13.9532H0.893338C0.801574 13.9532 0.727142 13.8788 0.727142 13.787V12.8513C0.727142 12.7595 0.801535 12.6851 0.893338 12.6851H5.01926C5.11102 12.6851 5.18546 12.7595 5.18546 12.8513V13.787C5.1855 13.8788 5.11106 13.9532 5.0193 13.9532Z" fill="url(#paint23_linear_171_962)"/>
<path id="Vector_25" d="M3.66671 13.9532H2.24593C2.19059 13.9532 2.14569 13.9084 2.14569 13.853V12.7853C2.14569 12.7299 2.19055 12.6851 2.24593 12.6851H3.66671C3.72204 12.6851 3.76695 12.7299 3.76695 12.7853V13.853C3.76691 13.9084 3.72204 13.9532 3.66671 13.9532Z" fill="url(#paint24_linear_171_962)"/>
<path id="Vector_26" d="M0.358273 12.8394C0.252587 12.8394 0.166901 12.925 0.166901 13.0307V13.9161C0.166901 13.9284 0.168156 13.9404 0.170391 13.952C0.177293 13.9528 0.184312 13.9532 0.19141 13.9532H5.72125C5.82694 13.9532 5.91263 13.8676 5.91263 13.7619V12.8765C5.91263 12.8642 5.91137 12.8522 5.90914 12.8406C5.90223 12.8398 5.89522 12.8394 5.88812 12.8394H0.358273Z" fill="url(#paint25_linear_171_962)"/>
<path id="Vector_27" d="M5.72125 12.6851H0.191373C0.0856863 12.6851 0 12.5995 0 12.4938V11.6084C0 11.5027 0.0856863 11.417 0.191373 11.417H5.72122C5.8269 11.417 5.91259 11.5027 5.91259 11.6084V12.4938C5.91263 12.5995 5.82694 12.6851 5.72125 12.6851Z" fill="url(#paint26_linear_171_962)"/>
<path id="Vector_28" d="M5.0193 12.6851H0.893338C0.801574 12.6851 0.727142 12.6108 0.727142 12.519V11.5832C0.727142 11.4914 0.801535 11.417 0.893338 11.417H5.01926C5.11102 11.417 5.18546 11.4914 5.18546 11.5832V12.519C5.1855 12.6107 5.11106 12.6851 5.0193 12.6851Z" fill="url(#paint27_linear_171_962)"/>
<path id="Vector_29" d="M3.66671 12.6852H2.24593C2.19059 12.6852 2.14569 12.6403 2.14569 12.585V11.5172C2.14569 11.4619 2.19055 11.417 2.24593 11.417H3.66671C3.72204 11.417 3.76695 11.4619 3.76695 11.5172V12.585C3.76691 12.6403 3.72204 12.6852 3.66671 12.6852Z" fill="url(#paint28_linear_171_962)"/>
<path id="Vector_30" d="M0.358273 11.5713C0.252587 11.5713 0.166901 11.657 0.166901 11.7627V12.6481C0.166901 12.6603 0.168156 12.6723 0.170391 12.684C0.177293 12.6847 0.184312 12.6852 0.19141 12.6852H5.72125C5.82694 12.6852 5.91263 12.5995 5.91263 12.4938V11.6084C5.91263 11.5961 5.91137 11.5842 5.90914 11.5725C5.90223 11.5718 5.89522 11.5713 5.88812 11.5713H0.358273Z" fill="url(#paint29_linear_171_962)"/>
<path id="Vector_31" d="M5.72125 11.417H0.191373C0.0856863 11.417 0 11.3314 0 11.2257V10.3403C0 10.2346 0.0856863 10.1489 0.191373 10.1489H5.72122C5.8269 10.1489 5.91259 10.2346 5.91259 10.3403V11.2257C5.91263 11.3314 5.82694 11.417 5.72125 11.417Z" fill="url(#paint30_linear_171_962)"/>
<path id="Vector_32" d="M5.0193 11.4171H0.893338C0.801574 11.4171 0.727142 11.3427 0.727142 11.2509V10.3151C0.727142 10.2234 0.801535 10.1489 0.893338 10.1489H5.01926C5.11102 10.1489 5.18546 10.2233 5.18546 10.3151V11.2509C5.1855 11.3427 5.11106 11.4171 5.0193 11.4171Z" fill="url(#paint31_linear_171_962)"/>
<path id="Vector_33" d="M3.66671 11.4171H2.24593C2.19059 11.4171 2.14569 11.3722 2.14569 11.3168V10.2491C2.14569 10.1938 2.19055 10.1489 2.24593 10.1489H3.66671C3.72204 10.1489 3.76695 10.1938 3.76695 10.2491V11.3168C3.76691 11.3722 3.72204 11.4171 3.66671 11.4171Z" fill="url(#paint32_linear_171_962)"/>
<path id="Vector_34" d="M0.358273 10.3032C0.252587 10.3032 0.166901 10.3889 0.166901 10.4946V11.38C0.166901 11.3923 0.168156 11.4042 0.170391 11.4159C0.177293 11.4166 0.184312 11.4171 0.19141 11.4171H5.72125C5.82694 11.4171 5.91263 11.3314 5.91263 11.2257V10.3403C5.91263 10.328 5.91137 10.3161 5.90914 10.3044C5.90223 10.3037 5.89522 10.3032 5.88812 10.3032H0.358273Z" fill="url(#paint33_linear_171_962)"/>
<path id="Vector_35" d="M5.72125 10.149H0.191373C0.0856863 10.149 0 10.0633 0 9.95764V9.07223C0 8.96655 0.0856863 8.88086 0.191373 8.88086H5.72122C5.8269 8.88086 5.91259 8.96655 5.91259 9.07223V9.95764C5.91263 10.0633 5.82694 10.149 5.72125 10.149Z" fill="url(#paint34_linear_171_962)"/>
<path id="Vector_36" d="M5.0193 10.1491H0.893338C0.801574 10.1491 0.727142 10.0747 0.727142 9.98286V9.04706C0.727142 8.95529 0.801535 8.88086 0.893338 8.88086H5.01926C5.11102 8.88086 5.18546 8.95525 5.18546 9.04706V9.98286C5.1855 10.0747 5.11106 10.1491 5.0193 10.1491Z" fill="url(#paint35_linear_171_962)"/>
<path id="Vector_37" d="M3.66671 10.149H2.24593C2.19059 10.149 2.14569 10.1041 2.14569 10.0488V8.98106C2.14569 8.92572 2.19055 8.88086 2.24593 8.88086H3.66671C3.72204 8.88086 3.76695 8.92572 3.76695 8.98106V10.0488C3.76691 10.1041 3.72204 10.149 3.66671 10.149Z" fill="url(#paint36_linear_171_962)"/>
<path id="Vector_38" d="M0.358273 9.03516C0.252587 9.03516 0.166901 9.12084 0.166901 9.22653V10.1119C0.166901 10.1242 0.168156 10.1361 0.170391 10.1478C0.177293 10.1485 0.184312 10.149 0.19141 10.149H5.72125C5.82694 10.149 5.91263 10.0633 5.91263 9.95763V9.07225C5.91263 9.05998 5.91137 9.04802 5.90914 9.03637C5.90223 9.03563 5.89522 9.03516 5.88812 9.03516H0.358273Z" fill="url(#paint37_linear_171_962)"/>
<path id="Vector_39" d="M16.7491 16.5539C17.7722 15.8792 18.6135 14.9514 19.1836 13.8594L16.7491 11.4248V16.5539Z" fill="url(#paint38_linear_171_962)"/>
<path id="Vector_40" d="M16.448 18.403H4.15232C3.95279 18.403 3.79106 18.2413 3.79106 18.0418V11.624C3.79106 11.4245 3.95279 11.2627 4.15232 11.2627H16.448C16.6475 11.2627 16.8092 11.4244 16.8092 11.624V18.0418C16.8092 18.2413 16.6475 18.403 16.448 18.403Z" fill="url(#paint39_linear_171_962)"/>
<path id="Vector_41" d="M16.1807 18.1555H4.41961C4.23145 18.1555 4.0789 18.0029 4.0789 17.8148V11.851C4.0789 11.6628 4.23145 11.5103 4.41961 11.5103H16.1806C16.3688 11.5103 16.5213 11.6628 16.5213 11.851V17.8148C16.5214 18.003 16.3688 18.1555 16.1807 18.1555Z" fill="url(#paint40_linear_171_962)"/>
<path id="Vector_42" d="M15.7174 13.4465C15.1144 13.4465 14.6255 12.9576 14.6255 12.3546C14.6255 12.3298 14.6264 12.3053 14.628 12.2809C14.6359 12.1641 14.5436 12.0649 14.4265 12.0649H6.1738C6.05666 12.0649 5.96439 12.1641 5.97231 12.2809C5.97396 12.3053 5.97478 12.3298 5.97478 12.3546C5.97478 12.9576 5.48596 13.4465 4.88294 13.4465C4.88223 13.4465 4.88153 13.4465 4.88078 13.4465C4.76753 13.4462 4.67455 13.5354 4.67455 13.6486V16.0173C4.67455 16.1305 4.76753 16.2196 4.88078 16.2194H4.88294C5.48596 16.2194 5.97478 16.7082 5.97478 17.3113C5.97478 17.336 5.97396 17.3606 5.97231 17.3849C5.96439 17.5018 6.05666 17.6009 6.1738 17.6009H14.4265C14.5436 17.6009 14.6359 17.5018 14.628 17.3849C14.6264 17.3606 14.6255 17.336 14.6255 17.3113C14.6255 16.7082 15.1144 16.2194 15.7174 16.2194H15.7195C15.8327 16.2196 15.9257 16.1305 15.9257 16.0173V13.6486C15.9257 13.5354 15.8327 13.4462 15.7195 13.4465C15.7188 13.4464 15.7181 13.4465 15.7174 13.4465Z" fill="url(#paint41_linear_171_962)"/>
<path id="Vector_43" d="M10.3002 17.3202C11.6738 17.3202 12.7874 16.2066 12.7874 14.833C12.7874 13.4593 11.6738 12.3457 10.3002 12.3457C8.92648 12.3457 7.8129 13.4593 7.8129 14.833C7.8129 16.2066 8.92648 17.3202 10.3002 17.3202Z" fill="url(#paint42_linear_171_962)"/>
<path id="Vector_44" d="M11.2768 13.3314C11.2389 13.2723 11.1657 13.223 11.0567 13.1838C10.9392 13.1416 10.814 13.113 10.6813 13.0973C10.6742 13.0927 10.667 13.0888 10.6596 13.0854L10.4631 12.8749C10.4323 12.8522 10.3991 12.8408 10.3634 12.8408C10.3245 12.8408 10.2912 12.8522 10.2637 12.8749C10.2361 12.8976 10.2223 12.9235 10.2223 12.9527V13.0938C9.9596 13.123 9.73984 13.2106 9.56305 13.3565C9.38623 13.5025 9.29792 13.7164 9.29792 13.9981C9.29792 14.0985 9.30925 14.1899 9.33196 14.2725C9.35462 14.355 9.39196 14.427 9.44388 14.4885C9.49572 14.55 9.54521 14.6026 9.59227 14.6463C9.59258 14.6466 9.59298 14.6469 9.59333 14.6472C9.59333 14.6472 10.2051 15.259 10.2054 15.2593C10.2111 15.2654 10.2167 15.2711 10.2223 15.2769V16.0907C10.0786 16.081 9.95204 16.0438 9.84254 15.9791C9.73309 15.9143 9.64709 15.8537 9.58447 15.797C9.52184 15.7403 9.47129 15.712 9.43282 15.712C9.37474 15.712 9.32321 15.7428 9.27803 15.8043C9.23286 15.8658 9.21039 15.9273 9.21039 15.9888C9.21039 16.0871 9.2658 16.184 9.37658 16.2795L11.5003 18.4032H16.3486L11.2768 13.3314Z" fill="url(#paint43_linear_171_962)"/>
<path id="Vector_45" d="M9.21031 15.9888C9.21031 15.9273 9.23282 15.8658 9.27796 15.8043C9.3231 15.7428 9.37466 15.712 9.43274 15.712C9.47121 15.712 9.52176 15.7404 9.58439 15.797C9.64706 15.8537 9.73302 15.9144 9.84247 15.9791C9.95196 16.0439 10.0785 16.0811 10.2223 16.0908V14.9498C10.125 14.9142 10.0503 14.8859 9.99847 14.8648C9.94655 14.8438 9.87761 14.8131 9.79172 14.7726C9.70576 14.7322 9.63921 14.69 9.59223 14.6463C9.54517 14.6026 9.49568 14.55 9.44384 14.4885C9.39192 14.427 9.35459 14.355 9.33192 14.2725C9.30921 14.1899 9.29788 14.0985 9.29788 13.9981C9.29788 13.7164 9.38619 13.5025 9.56302 13.3565C9.73976 13.2105 9.95953 13.123 10.2222 13.0938V12.9527C10.2222 12.9235 10.236 12.8976 10.2636 12.8749C10.2911 12.8522 10.3244 12.8408 10.3633 12.8408C10.399 12.8408 10.4322 12.8522 10.4631 12.8749C10.4938 12.8976 10.5093 12.9235 10.5093 12.9527V13.0841C10.7071 13.0906 10.8895 13.1238 11.0566 13.1838C11.2236 13.2438 11.3072 13.3273 11.3072 13.4343C11.3072 13.4927 11.2875 13.5536 11.2483 13.6168C11.2091 13.68 11.1567 13.7116 11.0913 13.7116C11.0654 13.7116 10.9944 13.6841 10.8782 13.6289C10.762 13.5738 10.639 13.5414 10.5093 13.5316V14.5176C10.6383 14.5662 10.7456 14.6123 10.831 14.656C10.9165 14.6998 11.0069 14.7604 11.102 14.8381C11.1972 14.9158 11.269 15.0137 11.3173 15.1318C11.3657 15.25 11.3899 15.3884 11.3899 15.547C11.3899 15.8367 11.3109 16.0671 11.1528 16.238C10.9947 16.4089 10.7802 16.5139 10.5093 16.5529V16.7155C10.5093 16.7442 10.4938 16.7696 10.4631 16.792C10.4322 16.8142 10.399 16.8254 10.3633 16.8254C10.3244 16.8254 10.2911 16.8142 10.2636 16.792C10.236 16.7697 10.2222 16.7442 10.2222 16.7156V16.5676C9.94008 16.5643 9.70082 16.4998 9.50463 16.3739C9.30839 16.248 9.21031 16.1196 9.21031 15.9888ZM9.77957 13.9496C9.77957 14.0758 9.81886 14.1722 9.89753 14.2384C9.97612 14.3048 10.0941 14.3671 10.2514 14.4254V13.5409C9.93682 13.5798 9.77957 13.716 9.77957 13.9496ZM10.4802 16.081C10.7655 16.0293 10.9083 15.869 10.9083 15.6003C10.9083 15.458 10.871 15.3463 10.7964 15.2654C10.7217 15.1845 10.6164 15.1149 10.4802 15.0566V16.081Z" fill="url(#paint44_linear_171_962)"/>
<path id="Vector_46" d="M4.99917 13.111C5.28439 13.111 5.51561 12.8798 5.51561 12.5946C5.51561 12.3093 5.28439 12.0781 4.99917 12.0781C4.71396 12.0781 4.48274 12.3093 4.48274 12.5946C4.48274 12.8798 4.71396 13.111 4.99917 13.111Z" fill="url(#paint45_linear_171_962)"/>
<path id="Vector_47" d="M15.6011 13.111C15.8863 13.111 16.1175 12.8798 16.1175 12.5946C16.1175 12.3093 15.8863 12.0781 15.6011 12.0781C15.3159 12.0781 15.0847 12.3093 15.0847 12.5946C15.0847 12.8798 15.3159 13.111 15.6011 13.111Z" fill="url(#paint46_linear_171_962)"/>
<path id="Vector_48" d="M4.99917 17.5875C5.28439 17.5875 5.51561 17.3563 5.51561 17.0711C5.51561 16.7859 5.28439 16.5547 4.99917 16.5547C4.71396 16.5547 4.48274 16.7859 4.48274 17.0711C4.48274 17.3563 4.71396 17.5875 4.99917 17.5875Z" fill="url(#paint47_linear_171_962)"/>
<path id="Vector_49" d="M15.6011 17.5875C15.8863 17.5875 16.1175 17.3563 16.1175 17.0711C16.1175 16.7859 15.8863 16.5547 15.6011 16.5547C15.3159 16.5547 15.0847 16.7859 15.0847 17.0711C15.0847 17.3563 15.3159 17.5875 15.6011 17.5875Z" fill="url(#paint48_linear_171_962)"/>
<path id="Vector_50" d="M11.8698 18.403H16.448C16.6475 18.403 16.8092 18.2413 16.8092 18.0418V15.33L12.7419 11.2627H11.8698V18.403Z" fill="url(#paint49_linear_171_962)"/>
<path id="Vector_51" d="M12.4159 18.5964H8.18436C7.97918 18.5964 7.81287 18.4301 7.81287 18.2249V11.4408C7.81287 11.2356 7.97918 11.0693 8.18436 11.0693H12.4159C12.6211 11.0693 12.7874 11.2356 12.7874 11.4408V18.225C12.7874 18.4301 12.6211 18.5964 12.4159 18.5964Z" fill="url(#paint50_linear_171_962)"/>
<path id="Vector_52" d="M8.53964 11.4248C8.33447 11.4248 8.16815 11.5911 8.16815 11.7963V18.5805C8.16815 18.5857 8.1687 18.5907 8.16894 18.5959C8.17407 18.5961 8.17913 18.5966 8.18435 18.5966H12.4159C12.6211 18.5966 12.7874 18.4303 12.7874 18.2252V11.441C12.7874 11.4358 12.7869 11.4307 12.7866 11.4256C12.7815 11.4254 12.7764 11.4248 12.7712 11.4248H8.53964Z" fill="url(#paint51_linear_171_962)"/>
<path id="Vector_53" d="M12.7874 18.2252V14.8421L11.2768 13.3314C11.2389 13.2723 11.1657 13.223 11.0567 13.1838C10.9392 13.1416 10.814 13.113 10.6813 13.0973C10.6742 13.0927 10.667 13.0888 10.6596 13.0854L10.4631 12.8749C10.4323 12.8522 10.3991 12.8408 10.3634 12.8408C10.3245 12.8408 10.2912 12.8522 10.2637 12.8749C10.2361 12.8976 10.2223 12.9235 10.2223 12.9527V13.0938C9.9596 13.123 9.73984 13.2106 9.56305 13.3565C9.38623 13.5025 9.29792 13.7164 9.29792 13.9981C9.29792 14.0985 9.30925 14.1899 9.33196 14.2725C9.35462 14.355 9.39196 14.427 9.44388 14.4885C9.49572 14.55 9.54521 14.6026 9.59227 14.6463C9.59258 14.6466 9.59298 14.6469 9.59333 14.6472C9.59333 14.6472 10.2051 15.259 10.2054 15.2593C10.2111 15.2654 10.2167 15.2711 10.2223 15.2769V16.0907C10.0786 16.081 9.95204 16.0438 9.84254 15.9791C9.73309 15.9143 9.64709 15.8537 9.58447 15.797C9.52184 15.7403 9.47129 15.712 9.43282 15.712C9.37474 15.712 9.32321 15.7428 9.27803 15.8043C9.23286 15.8658 9.21039 15.9273 9.21039 15.9888C9.21039 16.0871 9.2658 16.184 9.37658 16.2795L11.6937 18.5966H12.416C12.6211 18.5967 12.7874 18.4304 12.7874 18.2252Z" fill="url(#paint52_linear_171_962)"/>
<path id="Vector_54" d="M9.21031 15.9888C9.21031 15.9273 9.23282 15.8658 9.27796 15.8043C9.3231 15.7428 9.37466 15.712 9.43274 15.712C9.47121 15.712 9.52176 15.7404 9.58439 15.797C9.64706 15.8537 9.73302 15.9144 9.84247 15.9791C9.95196 16.0439 10.0785 16.0811 10.2223 16.0908V14.9498C10.125 14.9142 10.0503 14.8859 9.99847 14.8648C9.94655 14.8438 9.87761 14.8131 9.79172 14.7726C9.70576 14.7322 9.63921 14.69 9.59223 14.6463C9.54517 14.6026 9.49568 14.55 9.44384 14.4885C9.39192 14.427 9.35459 14.355 9.33192 14.2725C9.30921 14.1899 9.29788 14.0985 9.29788 13.9981C9.29788 13.7164 9.38619 13.5025 9.56302 13.3565C9.73976 13.2105 9.95953 13.123 10.2222 13.0938V12.9527C10.2222 12.9235 10.236 12.8976 10.2636 12.8749C10.2911 12.8522 10.3244 12.8408 10.3633 12.8408C10.399 12.8408 10.4322 12.8522 10.4631 12.8749C10.4938 12.8976 10.5093 12.9235 10.5093 12.9527V13.0841C10.7071 13.0906 10.8895 13.1238 11.0566 13.1838C11.2236 13.2438 11.3072 13.3273 11.3072 13.4343C11.3072 13.4927 11.2875 13.5536 11.2483 13.6168C11.2091 13.68 11.1567 13.7116 11.0913 13.7116C11.0654 13.7116 10.9944 13.6841 10.8782 13.6289C10.762 13.5738 10.639 13.5414 10.5093 13.5316V14.5176C10.6383 14.5662 10.7456 14.6123 10.831 14.656C10.9165 14.6998 11.0069 14.7604 11.102 14.8381C11.1972 14.9158 11.269 15.0137 11.3173 15.1318C11.3657 15.25 11.3899 15.3884 11.3899 15.547C11.3899 15.8367 11.3109 16.0671 11.1528 16.238C10.9947 16.4089 10.7802 16.5139 10.5093 16.5529V16.7155C10.5093 16.7442 10.4938 16.7696 10.4631 16.792C10.4322 16.8142 10.399 16.8254 10.3633 16.8254C10.3244 16.8254 10.2911 16.8142 10.2636 16.792C10.236 16.7697 10.2222 16.7442 10.2222 16.7156V16.5676C9.94008 16.5643 9.70082 16.4998 9.50463 16.3739C9.30839 16.248 9.21031 16.1196 9.21031 15.9888ZM9.77957 13.9496C9.77957 14.0758 9.81886 14.1722 9.89753 14.2384C9.97612 14.3048 10.0941 14.3671 10.2514 14.4254V13.5409C9.93682 13.5798 9.77957 13.716 9.77957 13.9496ZM10.4802 16.081C10.7655 16.0293 10.9083 15.869 10.9083 15.6003C10.9083 15.458 10.871 15.3463 10.7964 15.2654C10.7217 15.1845 10.6164 15.1149 10.4802 15.0566V16.081Z" fill="url(#paint53_linear_171_962)"/>
<path id="Vector_55" d="M6.02835 6.64512C5.5318 6.96872 5.10815 7.39492 4.78729 7.89355C4.71513 8.00566 4.54862 8.00535 4.4769 7.893C4.15788 7.39323 3.7358 6.96547 3.24043 6.6401C3.13047 6.56786 3.13078 6.40363 3.24098 6.33182C3.73752 6.00825 4.16117 5.58202 4.482 5.08343C4.55415 4.97131 4.72066 4.97159 4.79239 5.08398C5.11141 5.58374 5.53353 6.01151 6.0289 6.33688C6.13886 6.40908 6.13855 6.57327 6.02835 6.64512Z" fill="url(#paint54_linear_171_962)"/>
<path id="Vector_56" d="M3.62608 4.24087C3.27494 4.4697 2.97533 4.77111 2.74843 5.1237C2.69741 5.20299 2.57964 5.20276 2.52894 5.12331C2.30333 4.76989 2.00486 4.46738 1.65455 4.23731C1.57678 4.18625 1.57702 4.07009 1.65494 4.01931C2.00608 3.79048 2.30568 3.48907 2.53255 3.13648C2.58357 3.05719 2.70133 3.05742 2.75204 3.13687C2.97764 3.49029 3.27615 3.7928 3.62647 4.02287C3.70423 4.07393 3.70404 4.19009 3.62608 4.24087Z" fill="url(#paint55_linear_171_962)"/>
<path id="Vector_57" d="M8.79847 3.00455C8.44733 3.23337 8.14772 3.53478 7.92082 3.88737C7.8698 3.96666 7.75204 3.96643 7.70133 3.88698C7.47572 3.53357 7.17725 3.23106 6.82694 3.00098C6.74917 2.94992 6.74941 2.83376 6.82733 2.78298C7.17847 2.55415 7.47808 2.25274 7.70494 1.90015C7.75596 1.82086 7.87372 1.8211 7.92443 1.90055C8.15004 2.25396 8.44855 2.55647 8.79886 2.78655C8.87659 2.83764 8.87639 2.95376 8.79847 3.00455Z" fill="url(#paint56_linear_171_962)"/>
</g>
<defs>
<linearGradient id="paint0_linear_171_962" x1="11.5186" y1="9.26092" x2="15.7475" y2="13.4898" gradientUnits="userSpaceOnUse">
<stop stop-color="#E4F2FF"/>
<stop offset="1" stop-color="#B2CBFF"/>
</linearGradient>
<linearGradient id="paint1_linear_171_962" x1="12.4911" y1="3.41046" x2="18.9656" y2="9.88493" gradientUnits="userSpaceOnUse">
<stop stop-color="#E4F2FF"/>
<stop offset="1" stop-color="#B2CBFF"/>
</linearGradient>
<linearGradient id="paint2_linear_171_962" x1="8.75847" y1="5.72762" x2="11.7085" y2="8.67766" gradientUnits="userSpaceOnUse">
<stop stop-color="#E4F2FF"/>
<stop offset="1" stop-color="#B2CBFF"/>
</linearGradient>
<linearGradient id="paint3_linear_171_962" x1="7.09074" y1="11.3999" x2="9.1016" y2="13.4108" gradientUnits="userSpaceOnUse">
<stop stop-color="#E4F2FF"/>
<stop offset="1" stop-color="#B2CBFF"/>
</linearGradient>
<linearGradient id="paint4_linear_171_962" x1="16.0149" y1="10.1458" x2="19.6883" y2="13.8192" gradientUnits="userSpaceOnUse">
<stop stop-color="#E4F2FF"/>
<stop offset="1" stop-color="#B2CBFF"/>
</linearGradient>
<linearGradient id="paint5_linear_171_962" x1="10.6856" y1="14.0123" x2="14.3467" y2="17.6734" gradientUnits="userSpaceOnUse">
<stop stop-color="#E4F2FF"/>
<stop offset="1" stop-color="#B2CBFF"/>
</linearGradient>
<linearGradient id="paint6_linear_171_962" x1="12.2268" y1="10.2864" x2="14.0804" y2="12.1399" gradientUnits="userSpaceOnUse">
<stop stop-color="#8A7889"/>
<stop offset="1" stop-color="#6E566E"/>
</linearGradient>
<linearGradient id="paint7_linear_171_962" x1="12.5478" y1="3.31566" x2="13.3248" y2="4.09268" gradientUnits="userSpaceOnUse">
<stop stop-color="#8A7889"/>
<stop offset="1" stop-color="#6E566E"/>
</linearGradient>
<linearGradient id="paint8_linear_171_962" x1="19.3818" y1="8.65378" x2="20.1157" y2="9.38762" gradientUnits="userSpaceOnUse">
<stop stop-color="#8A7889"/>
<stop offset="1" stop-color="#6E566E"/>
</linearGradient>
<linearGradient id="paint9_linear_171_962" x1="5.81502" y1="8.72927" x2="6.29569" y2="9.2099" gradientUnits="userSpaceOnUse">
<stop stop-color="#8A7889"/>
<stop offset="1" stop-color="#6E566E"/>
</linearGradient>
<linearGradient id="paint10_linear_171_962" x1="8.55399" y1="15.5886" x2="9.59344" y2="16.6281" gradientUnits="userSpaceOnUse">
<stop stop-color="#8A7889"/>
<stop offset="1" stop-color="#6E566E"/>
</linearGradient>
<linearGradient id="paint11_linear_171_962" x1="16.5816" y1="15.785" x2="16.9622" y2="16.1656" gradientUnits="userSpaceOnUse">
<stop stop-color="#8A7889"/>
<stop offset="1" stop-color="#6E566E"/>
</linearGradient>
<linearGradient id="paint12_linear_171_962" x1="14.5409" y1="12.7284" x2="4.74938" y2="-0.112937" gradientUnits="userSpaceOnUse">
<stop stop-color="white" stop-opacity="0"/>
<stop offset="1" stop-color="white"/>
</linearGradient>
<linearGradient id="paint13_linear_171_962" x1="13.2216" y1="11.0011" x2="34.8024" y2="12.2125" gradientUnits="userSpaceOnUse">
<stop stop-color="#3F3CED" stop-opacity="0"/>
<stop offset="0.2796" stop-color="#3C3DE4" stop-opacity="0.28"/>
<stop offset="0.7305" stop-color="#3541CC" stop-opacity="0.731"/>
<stop offset="1" stop-color="#2F43BB"/>
</linearGradient>
<linearGradient id="paint14_linear_171_962" x1="2.95631" y1="15.2478" x2="2.95631" y2="16.892" gradientUnits="userSpaceOnUse">
<stop stop-color="#FFD945"/>
<stop offset="0.3043" stop-color="#FFCD3E"/>
<stop offset="0.8558" stop-color="#FFAD2B"/>
<stop offset="1" stop-color="#FFA325"/>
</linearGradient>
<linearGradient id="paint15_linear_171_962" x1="2.95632" y1="15.2717" x2="2.95632" y2="18.0369" gradientUnits="userSpaceOnUse">
<stop stop-color="#E87264" stop-opacity="0"/>
<stop offset="1" stop-color="#FF7044"/>
</linearGradient>
<linearGradient id="paint16_linear_171_962" x1="2.95632" y1="15.2717" x2="2.95632" y2="18.0369" gradientUnits="userSpaceOnUse">
<stop stop-color="#E87264" stop-opacity="0"/>
<stop offset="1" stop-color="#FF7044"/>
</linearGradient>
<linearGradient id="paint17_linear_171_962" x1="2.94949" y1="15.7146" x2="2.29388" y2="14.1292" gradientUnits="userSpaceOnUse">
<stop stop-color="#FFD945" stop-opacity="0"/>
<stop offset="1" stop-color="#FBED21"/>
</linearGradient>
<linearGradient id="paint18_linear_171_962" x1="2.95631" y1="13.9797" x2="2.95631" y2="15.624" gradientUnits="userSpaceOnUse">
<stop stop-color="#FFD945"/>
<stop offset="0.3043" stop-color="#FFCD3E"/>
<stop offset="0.8558" stop-color="#FFAD2B"/>
<stop offset="1" stop-color="#FFA325"/>
</linearGradient>
<linearGradient id="paint19_linear_171_962" x1="2.95632" y1="14.0031" x2="2.95632" y2="16.7683" gradientUnits="userSpaceOnUse">
<stop stop-color="#E87264" stop-opacity="0"/>
<stop offset="1" stop-color="#FF7044"/>
</linearGradient>
<linearGradient id="paint20_linear_171_962" x1="2.95632" y1="14.0036" x2="2.95632" y2="16.7688" gradientUnits="userSpaceOnUse">
<stop stop-color="#E87264" stop-opacity="0"/>
<stop offset="1" stop-color="#FF7044"/>
</linearGradient>
<linearGradient id="paint21_linear_171_962" x1="2.94949" y1="14.4461" x2="2.29388" y2="12.8607" gradientUnits="userSpaceOnUse">
<stop stop-color="#FFD945" stop-opacity="0"/>
<stop offset="1" stop-color="#FBED21"/>
</linearGradient>
<linearGradient id="paint22_linear_171_962" x1="2.95631" y1="12.7112" x2="2.95631" y2="14.3554" gradientUnits="userSpaceOnUse">
<stop stop-color="#FFD945"/>
<stop offset="0.3043" stop-color="#FFCD3E"/>
<stop offset="0.8558" stop-color="#FFAD2B"/>
<stop offset="1" stop-color="#FFA325"/>
</linearGradient>
<linearGradient id="paint23_linear_171_962" x1="2.95632" y1="12.735" x2="2.95632" y2="15.5002" gradientUnits="userSpaceOnUse">
<stop stop-color="#E87264" stop-opacity="0"/>
<stop offset="1" stop-color="#FF7044"/>
</linearGradient>
<linearGradient id="paint24_linear_171_962" x1="2.95632" y1="12.735" x2="2.95632" y2="15.5002" gradientUnits="userSpaceOnUse">
<stop stop-color="#E87264" stop-opacity="0"/>
<stop offset="1" stop-color="#FF7044"/>
</linearGradient>
<linearGradient id="paint25_linear_171_962" x1="2.94949" y1="13.178" x2="2.29388" y2="11.5926" gradientUnits="userSpaceOnUse">
<stop stop-color="#FFD945" stop-opacity="0"/>
<stop offset="1" stop-color="#FBED21"/>
</linearGradient>
<linearGradient id="paint26_linear_171_962" x1="2.95631" y1="11.4431" x2="2.95631" y2="13.0873" gradientUnits="userSpaceOnUse">
<stop stop-color="#FFD945"/>
<stop offset="0.3043" stop-color="#FFCD3E"/>
<stop offset="0.8558" stop-color="#FFAD2B"/>
<stop offset="1" stop-color="#FFA325"/>
</linearGradient>
<linearGradient id="paint27_linear_171_962" x1="2.95632" y1="11.467" x2="2.95632" y2="14.2322" gradientUnits="userSpaceOnUse">
<stop stop-color="#E87264" stop-opacity="0"/>
<stop offset="1" stop-color="#FF7044"/>
</linearGradient>
<linearGradient id="paint28_linear_171_962" x1="2.95632" y1="11.467" x2="2.95632" y2="14.2322" gradientUnits="userSpaceOnUse">
<stop stop-color="#E87264" stop-opacity="0"/>
<stop offset="1" stop-color="#FF7044"/>
</linearGradient>
<linearGradient id="paint29_linear_171_962" x1="2.94949" y1="11.91" x2="2.29388" y2="10.3245" gradientUnits="userSpaceOnUse">
<stop stop-color="#FFD945" stop-opacity="0"/>
<stop offset="1" stop-color="#FBED21"/>
</linearGradient>
<linearGradient id="paint30_linear_171_962" x1="2.95631" y1="10.175" x2="2.95631" y2="11.8192" gradientUnits="userSpaceOnUse">
<stop stop-color="#FFD945"/>
<stop offset="0.3043" stop-color="#FFCD3E"/>
<stop offset="0.8558" stop-color="#FFAD2B"/>
<stop offset="1" stop-color="#FFA325"/>
</linearGradient>
<linearGradient id="paint31_linear_171_962" x1="2.95632" y1="10.1989" x2="2.95632" y2="12.9641" gradientUnits="userSpaceOnUse">
<stop stop-color="#E87264" stop-opacity="0"/>
<stop offset="1" stop-color="#FF7044"/>
</linearGradient>
<linearGradient id="paint32_linear_171_962" x1="2.95632" y1="10.1989" x2="2.95632" y2="12.9641" gradientUnits="userSpaceOnUse">
<stop stop-color="#E87264" stop-opacity="0"/>
<stop offset="1" stop-color="#FF7044"/>
</linearGradient>
<linearGradient id="paint33_linear_171_962" x1="2.94949" y1="10.6419" x2="2.29388" y2="9.05644" gradientUnits="userSpaceOnUse">
<stop stop-color="#FFD945" stop-opacity="0"/>
<stop offset="1" stop-color="#FBED21"/>
</linearGradient>
<linearGradient id="paint34_linear_171_962" x1="2.95631" y1="8.90698" x2="2.95631" y2="10.5512" gradientUnits="userSpaceOnUse">
<stop stop-color="#FFD945"/>
<stop offset="0.3043" stop-color="#FFCD3E"/>
<stop offset="0.8558" stop-color="#FFAD2B"/>
<stop offset="1" stop-color="#FFA325"/>
</linearGradient>
<linearGradient id="paint35_linear_171_962" x1="2.95632" y1="8.93086" x2="2.95632" y2="11.6961" gradientUnits="userSpaceOnUse">
<stop stop-color="#E87264" stop-opacity="0"/>
<stop offset="1" stop-color="#FF7044"/>
</linearGradient>
<linearGradient id="paint36_linear_171_962" x1="2.95632" y1="8.93078" x2="2.95632" y2="11.696" gradientUnits="userSpaceOnUse">
<stop stop-color="#E87264" stop-opacity="0"/>
<stop offset="1" stop-color="#FF7044"/>
</linearGradient>
<linearGradient id="paint37_linear_171_962" x1="2.94949" y1="9.37386" x2="2.29388" y2="7.78841" gradientUnits="userSpaceOnUse">
<stop stop-color="#FFD945" stop-opacity="0"/>
<stop offset="1" stop-color="#FBED21"/>
</linearGradient>
<linearGradient id="paint38_linear_171_962" x1="19.1582" y1="14.7475" x2="15.7962" y2="13.6894" gradientUnits="userSpaceOnUse">
<stop stop-color="#3F3CED" stop-opacity="0"/>
<stop offset="0.2796" stop-color="#3C3DE4" stop-opacity="0.28"/>
<stop offset="0.7305" stop-color="#3541CC" stop-opacity="0.731"/>
<stop offset="1" stop-color="#2F43BB"/>
</linearGradient>
<linearGradient id="paint39_linear_171_962" x1="9.61612" y1="13.1023" x2="13.266" y2="22.3362" gradientUnits="userSpaceOnUse">
<stop stop-color="#4AB272"/>
<stop offset="1" stop-color="#077565"/>
</linearGradient>
<linearGradient id="paint40_linear_171_962" x1="10.8491" y1="16.0138" x2="3.83012" y2="0.915155" gradientUnits="userSpaceOnUse">
<stop stop-color="#92F37F" stop-opacity="0"/>
<stop offset="1" stop-color="#FFEE83"/>
</linearGradient>
<linearGradient id="paint41_linear_171_962" x1="9.84937" y1="13.4656" x2="11.8823" y2="19.6322" gradientUnits="userSpaceOnUse">
<stop stop-color="#91F27F"/>
<stop offset="1" stop-color="#00B302"/>
</linearGradient>
<linearGradient id="paint42_linear_171_962" x1="12.2081" y1="16.0731" x2="4.72305" y2="11.2079" gradientUnits="userSpaceOnUse">
<stop stop-color="#92F37F"/>
<stop offset="1" stop-color="#4AB272"/>
</linearGradient>
<linearGradient id="paint43_linear_171_962" x1="12.0543" y1="16.1115" x2="6.79266" y2="13.7822" gradientUnits="userSpaceOnUse">
<stop stop-color="#4AB272" stop-opacity="0"/>
<stop offset="1" stop-color="#009245"/>
</linearGradient>
<linearGradient id="paint44_linear_171_962" x1="10.0638" y1="14.62" x2="12.1019" y2="15.9926" gradientUnits="userSpaceOnUse">
<stop stop-color="#4AB272"/>
<stop offset="1" stop-color="#077565"/>
</linearGradient>
<linearGradient id="paint45_linear_171_962" x1="4.83537" y1="12.4176" x2="5.80839" y2="13.4685" gradientUnits="userSpaceOnUse">
<stop stop-color="#91F27F"/>
<stop offset="1" stop-color="#00B302"/>
</linearGradient>
<linearGradient id="paint46_linear_171_962" x1="15.4373" y1="12.4176" x2="16.4104" y2="13.4685" gradientUnits="userSpaceOnUse">
<stop stop-color="#91F27F"/>
<stop offset="1" stop-color="#00B302"/>
</linearGradient>
<linearGradient id="paint47_linear_171_962" x1="4.83537" y1="16.8942" x2="5.80839" y2="17.9451" gradientUnits="userSpaceOnUse">
<stop stop-color="#91F27F"/>
<stop offset="1" stop-color="#00B302"/>
</linearGradient>
<linearGradient id="paint48_linear_171_962" x1="15.4373" y1="16.8942" x2="16.4104" y2="17.9451" gradientUnits="userSpaceOnUse">
<stop stop-color="#91F27F"/>
<stop offset="1" stop-color="#00B302"/>
</linearGradient>
<linearGradient id="paint49_linear_171_962" x1="15.7045" y1="14.93" x2="9.1931" y2="14.744" gradientUnits="userSpaceOnUse">
<stop stop-color="#005A01" stop-opacity="0"/>
<stop offset="1" stop-color="#005A01"/>
</linearGradient>
<linearGradient id="paint50_linear_171_962" x1="8.61083" y1="13.54" x2="14.7931" y2="18.2717" gradientUnits="userSpaceOnUse">
<stop stop-color="#FFD945"/>
<stop offset="0.3043" stop-color="#FFCD3E"/>
<stop offset="0.8558" stop-color="#FFAD2B"/>
<stop offset="1" stop-color="#FFA325"/>
</linearGradient>
<linearGradient id="paint51_linear_171_962" x1="12.4066" y1="16.3229" x2="6.73243" y2="12.4626" gradientUnits="userSpaceOnUse">
<stop stop-color="#FFD945" stop-opacity="0"/>
<stop offset="1" stop-color="#FBED21"/>
</linearGradient>
<linearGradient id="paint52_linear_171_962" x1="11.5942" y1="15.9994" x2="7.77462" y2="14.0286" gradientUnits="userSpaceOnUse">
<stop stop-color="#E87264" stop-opacity="0"/>
<stop offset="1" stop-color="#FF7044"/>
</linearGradient>
<linearGradient id="paint53_linear_171_962" x1="8.05423" y1="13.438" x2="10.7053" y2="15.0252" gradientUnits="userSpaceOnUse">
<stop stop-color="#FFD945"/>
<stop offset="0.3043" stop-color="#FFCD3E"/>
<stop offset="0.8558" stop-color="#FFAD2B"/>
<stop offset="1" stop-color="#FFA325"/>
</linearGradient>
<linearGradient id="paint54_linear_171_962" x1="4.15213" y1="5.84502" x2="5.71438" y2="7.93678" gradientUnits="userSpaceOnUse">
<stop stop-color="#FFD945"/>
<stop offset="0.3043" stop-color="#FFCD3E"/>
<stop offset="0.8558" stop-color="#FFAD2B"/>
<stop offset="1" stop-color="#FFA325"/>
</linearGradient>
<linearGradient id="paint55_linear_171_962" x1="2.2994" y1="3.67499" x2="3.40417" y2="5.15418" gradientUnits="userSpaceOnUse">
<stop stop-color="#FFD945"/>
<stop offset="0.3043" stop-color="#FFCD3E"/>
<stop offset="0.8558" stop-color="#FFAD2B"/>
<stop offset="1" stop-color="#FFA325"/>
</linearGradient>
<linearGradient id="paint56_linear_171_962" x1="7.47201" y1="2.43971" x2="8.57678" y2="3.9189" gradientUnits="userSpaceOnUse">
<stop stop-color="#FFD945"/>
<stop offset="0.3043" stop-color="#FFCD3E"/>
<stop offset="0.8558" stop-color="#FFAD2B"/>
<stop offset="1" stop-color="#FFA325"/>
</linearGradient>
<clipPath id="clip0_171_962">
<rect width="20" height="20" fill="white" transform="translate(0 0.21875)"/>
</clipPath>
</defs>
</svg>
