<svg width="20" height="21" viewBox="0 0 20 21" fill="none" xmlns="http://www.w3.org/2000/svg">
<g id="fi_502142" clip-path="url(#clip0_171_1024)">
<path id="Vector" d="M20 10.3362C20 10.4003 19.9992 10.4648 19.998 10.5286C19.9915 10.865 19.9685 11.1978 19.9294 11.5249C19.8483 12.2001 19.6991 12.8544 19.4893 13.4804C19.1009 14.6381 18.5043 15.7002 17.7436 16.6219C17.648 16.7381 17.5495 16.8518 17.4487 16.9631C17.3592 17.0624 17.2676 17.1596 17.174 17.2548C17.0962 17.3347 17.0167 17.4129 16.9356 17.4899C16.7642 17.6537 16.5863 17.811 16.4032 17.9623C15.3919 18.7969 14.2116 19.4342 12.9213 19.8154C12.0327 20.0779 11.0916 20.2187 10.1175 20.2187C7.45039 20.2187 5.03059 19.1623 3.25293 17.4456C2.77172 16.9805 2.3377 16.4678 1.95852 15.914C1.35387 15.0314 0.888792 14.0456 0.59512 12.9883C0.360354 12.1445 0.234924 11.2551 0.234924 10.3362C0.234924 9.77268 0.282112 9.22049 0.373284 8.68279C0.421682 8.39275 0.483401 8.10678 0.556799 7.82564C0.701213 7.27385 0.891995 6.741 1.12516 6.23111C1.13082 6.21943 1.13606 6.20732 1.14168 6.19561C1.15016 6.17666 1.15903 6.15768 1.16789 6.13912C1.21832 6.03182 1.27035 5.92572 1.32481 5.82045C1.46961 5.5385 1.62774 5.26459 1.79875 4.9992C1.8536 4.91287 1.91047 4.82818 1.96817 4.74385C2.04399 4.63373 2.12145 4.52561 2.20133 4.41873C2.44578 4.09279 2.70957 3.78221 2.99153 3.48936C3.08227 3.39455 3.17547 3.30139 3.27024 3.21021C3.56348 2.92826 3.87406 2.66447 4.2 2.42002C4.30688 2.34014 4.41539 2.26229 4.52551 2.18729C4.60903 2.1292 4.69371 2.07271 4.77965 2.01787C5.04508 1.84686 5.31938 1.68873 5.60133 1.5435C5.7066 1.48943 5.81309 1.43701 5.92039 1.38658C5.93895 1.37771 5.9575 1.36885 5.97645 1.36037C5.98813 1.35514 5.99985 1.34947 6.01153 1.34424C6.52137 1.11107 7.05465 0.919902 7.60684 0.775488C8.40832 0.565332 9.24977 0.453613 10.1174 0.453613C12.8059 0.453613 15.243 1.52697 17.0247 3.26834C17.4781 3.71123 17.8888 4.19729 18.2502 4.72006C18.5575 5.16416 18.829 5.63451 19.0613 6.12701C19.6636 7.40408 20 8.83076 20 10.3362Z" fill="#4BC999"/>
<g id="Icon">
<path id="Vector_2" d="M18.2502 4.71979H14.3311C14.1306 4.71979 13.9491 4.63869 13.818 4.50721C13.6865 4.37611 13.6054 4.19459 13.6054 3.99373C13.6054 3.59279 13.9301 3.26807 14.3311 3.26807H17.0248C17.4781 3.71096 17.8888 4.19701 18.2502 4.71979Z" fill="#5BD3A2"/>
<path id="Vector_3" d="M20 10.3361C20 10.4002 19.9992 10.4647 19.998 10.5285H15.1781C14.9777 10.5285 14.7962 10.447 14.6647 10.3159C14.5336 10.1844 14.4521 10.0029 14.4521 9.80242C14.4521 9.40148 14.7772 9.07637 15.1781 9.07637H17.3854C17.5858 9.07637 17.7674 8.99488 17.8988 8.86379C18.0299 8.7323 18.1114 8.55078 18.1114 8.35031C18.1114 7.94937 17.7863 7.62426 17.3854 7.62426H16.7694C16.569 7.62426 16.3874 7.54277 16.256 7.41168C16.1245 7.28019 16.0434 7.09867 16.0434 6.8982C16.0434 6.49727 16.3685 6.17215 16.7694 6.17215H18.8085C18.8972 6.17215 18.9827 6.15602 19.0614 6.12695C19.6636 7.40398 20 8.83066 20 10.3361Z" fill="#5BD3A2"/>
<path id="Vector_4" d="M8.48422 12.3125C8.48422 12.7139 8.1591 13.0386 7.75817 13.0386H0.86094C0.766956 13.0386 0.677424 13.0209 0.59512 12.9882C0.360354 12.1443 0.234924 11.2549 0.234924 10.336C0.234924 9.7725 0.282112 9.22031 0.373284 8.68262H6.62871C6.82918 8.68262 7.0107 8.7641 7.14219 8.8952C7.27367 9.02668 7.35477 9.2082 7.35477 9.40867C7.35477 9.80961 7.02965 10.1347 6.62871 10.1347H4.28918C3.88824 10.1347 3.56313 10.4598 3.56313 10.8608C3.56313 11.2617 3.88824 11.5868 4.28918 11.5868H7.75817C7.95864 11.5868 8.14016 11.6679 8.27164 11.7994C8.40313 11.9305 8.48422 12.1121 8.48422 12.3125Z" fill="#5BD3A2"/>
<path id="Vector_5" d="M17.4487 16.9626C17.3591 17.0619 17.2676 17.1591 17.174 17.2543C17.0961 17.3342 17.0167 17.4124 16.9356 17.4894C16.7641 17.6532 16.5862 17.8105 16.4031 17.9618C15.3919 18.7963 14.2116 19.4337 12.9212 19.8149H12.8829C12.6825 19.8149 12.5009 19.7338 12.3694 19.6023C12.2384 19.4708 12.1569 19.2893 12.1569 19.0888C12.1569 18.6874 11.8318 18.3628 11.4308 18.3628H10.2812C10.0807 18.3628 9.89921 18.2817 9.76812 18.1502C9.63664 18.0187 9.55554 17.8372 9.55554 17.6367C9.55554 17.2358 9.88027 16.9106 10.2812 16.9106H17.1788C17.2744 16.9106 17.3656 16.9292 17.4487 16.9626Z" fill="#5BD3A2"/>
</g>
<path id="Vector_6" d="M19.9294 11.5249C19.8483 12.2001 19.6991 12.8544 19.4893 13.4804L3.25294 17.4456C2.77173 16.9805 2.33771 16.4678 1.95853 15.914L19.9294 11.5249Z" fill="#FCF8F2"/>
<g id="Icon_2">
<path id="Vector_7" d="M10.4195 12.9165C10.3425 12.9936 10.2175 12.9936 10.1404 12.9165L0.859133 3.63528C0.782063 3.55821 0.782063 3.43325 0.859133 3.35614C0.936204 3.27907 1.06116 3.27907 1.13827 3.35614L10.4195 12.6374C10.4966 12.7145 10.4966 12.8395 10.4195 12.9165Z" fill="#F9EED7"/>
<path id="Vector_8" d="M13.0898 8.75284C13.0127 8.82991 12.8877 8.82991 12.8106 8.75284L5.02265 0.964873C4.94558 0.887803 4.94558 0.762842 5.02265 0.685732C5.09972 0.608662 5.22468 0.608662 5.30179 0.685732L13.0898 8.4737C13.1668 8.55077 13.1668 8.67573 13.0898 8.75284Z" fill="#F9EED7"/>
<path id="Vector_9" d="M8.5339 13.3085C8.45683 13.3856 8.33187 13.3856 8.25476 13.3085L0.46683 5.52055C0.38976 5.44348 0.38976 5.31852 0.46683 5.24141C0.5439 5.1643 0.668861 5.16434 0.74597 5.24141L8.53394 13.0294C8.61097 13.1064 8.61097 13.2314 8.5339 13.3085Z" fill="#F9EED7"/>
<path id="Vector_10" d="M12.6974 10.6382C12.6204 10.7153 12.4954 10.7153 12.4183 10.6382L3.13706 1.35696C3.05999 1.27989 3.05999 1.15493 3.13706 1.07782C3.21413 1.00075 3.33909 1.00075 3.4162 1.07782L12.6974 10.3591C12.7745 10.4361 12.7745 10.5611 12.6974 10.6382Z" fill="#F9EED7"/>
<path id="Vector_11" d="M11.9562 12.1754C11.8791 12.2525 11.7542 12.2525 11.6771 12.1754L1.60034 2.09866C1.52327 2.02159 1.52327 1.89663 1.60034 1.81952C1.67741 1.74245 1.80238 1.74245 1.87948 1.81952L11.9562 11.8963C12.0333 11.9733 12.0333 12.0983 11.9562 12.1754Z" fill="#F9EED7"/>
<path id="Vector_12" d="M9.43254 2.34423L2.12527 9.65153C2.0482 9.7286 1.92324 9.7286 1.84613 9.65153C1.76906 9.57446 1.76906 9.4495 1.84613 9.37239L9.1534 2.06513C9.23047 1.98806 9.35543 1.98806 9.43254 2.06513C9.50961 2.1422 9.50961 2.26716 9.43254 2.34423Z" fill="#F9EED7"/>
<path id="Vector_13" d="M12.436 6.17435L5.95555 12.6548C5.87848 12.7319 5.75352 12.7319 5.67641 12.6548C5.5993 12.5777 5.59934 12.4528 5.67641 12.3757L12.1569 5.89521C12.2339 5.81813 12.3589 5.81813 12.436 5.89521C12.5131 5.97228 12.5131 6.09728 12.436 6.17435Z" fill="#F9EED7"/>
<path id="Vector_14" d="M7.8802 1.61868L1.39973 8.09915C1.32266 8.17622 1.1977 8.17622 1.12059 8.09915C1.04348 8.02208 1.04352 7.89712 1.12059 7.82001L7.60106 1.33954C7.67813 1.26247 7.80309 1.26247 7.8802 1.33954C7.95731 1.41661 7.95731 1.54157 7.8802 1.61868Z" fill="#F9EED7"/>
<path id="Vector_15" d="M6.14969 1.20653L0.987501 6.36872C0.910431 6.44579 0.78547 6.44579 0.708361 6.36872C0.631251 6.29165 0.63129 6.16669 0.708361 6.08958L5.87055 0.927432C5.94762 0.850361 6.07258 0.850361 6.14969 0.927432C6.22676 1.0045 6.22676 1.12946 6.14969 1.20653Z" fill="#F9EED7"/>
<path id="Vector_16" d="M12.8483 7.90481L7.68605 13.067C7.60898 13.1441 7.48402 13.1441 7.40691 13.067C7.3298 12.9899 7.32984 12.865 7.40691 12.7879L12.5691 7.62567C12.6462 7.5486 12.7712 7.5486 12.8483 7.62567C12.9253 7.70278 12.9253 7.82774 12.8483 7.90481Z" fill="#F9EED7"/>
<path id="Vector_17" d="M11.7105 4.62206L4.40317 11.9294C4.3261 12.0064 4.20114 12.0064 4.12403 11.9294C4.04696 11.8523 4.04696 11.7273 4.12403 11.6502L11.4313 4.34296C11.5084 4.26589 11.6333 4.26589 11.7104 4.34296C11.7875 4.41999 11.7876 4.54495 11.7105 4.62206Z" fill="#F9EED7"/>
<path id="Vector_18" d="M10.5596 3.49515L3.27609 10.7787C3.19902 10.8558 3.07406 10.8558 2.99695 10.7787C2.91988 10.7016 2.91988 10.5767 2.99695 10.4996L10.2805 3.21601C10.3576 3.13894 10.4825 3.13894 10.5596 3.21601C10.6367 3.29312 10.6367 3.41808 10.5596 3.49515Z" fill="#F9EED7"/>
</g>
<path id="Vector_19" d="M16.0352 15.9216L15.703 16.2539C15.5664 16.3904 15.3458 16.3929 15.2062 16.2595L14.9006 15.9672C13.5898 14.7157 11.8769 13.905 10.0776 13.6847L9.01636 13.5547L9.10276 12.8494L10.164 12.9794C11.6803 13.1651 13.14 13.7376 14.3824 14.6209C13.4183 13.297 12.8205 11.7314 12.6645 10.0776L12.6108 9.51145C12.6095 9.49813 12.609 9.48477 12.6092 9.47145L12.9678 9.47758L13.3181 9.44434L13.3718 10.0107C13.5669 12.0772 14.5096 13.9949 16.0264 15.4107C16.0969 15.4764 16.1376 15.568 16.1392 15.6643C16.1409 15.7606 16.1033 15.8535 16.0352 15.9216Z" fill="#FF525D"/>
<path id="Vector_20" d="M17.7436 16.6219C17.5629 16.8409 17.3729 17.0523 17.174 17.2548C17.0961 17.3347 17.0167 17.4129 16.9356 17.4899C16.7641 17.6537 16.5863 17.811 16.4031 17.9623L15.1156 16.6747C14.9454 16.5041 14.9006 16.2556 14.9809 16.0443C15.0095 15.9685 15.0547 15.8979 15.1156 15.8369L15.6182 15.3343C15.6759 15.2771 15.7424 15.2335 15.8134 15.2048C16.0272 15.1177 16.2821 15.1608 16.456 15.3343L17.2167 16.0955C17.2212 16.0995 17.2252 16.1036 17.2296 16.108L17.7436 16.6219Z" fill="#279FC9"/>
<path id="Vector_21" d="M17.7435 16.6219C17.5628 16.8409 17.3728 17.0522 17.174 17.2547C17.0961 17.3346 17.0167 17.4129 16.9356 17.4899L15.7013 16.2556L15.6182 16.1725C15.3867 15.941 15.3867 15.5658 15.6182 15.3343C15.6759 15.2771 15.7424 15.2335 15.8134 15.2048C16.0272 15.1177 16.2821 15.1608 16.456 15.3343L17.2167 16.0955C17.2212 16.0995 17.2252 16.1036 17.2296 16.108L17.7435 16.6219Z" fill="#34ABE0"/>
<path id="Vector_22" d="M13.4505 7.85854C13.1782 6.10268 12.2444 4.35206 10.8218 2.92936C9.86535 1.97296 8.76093 1.23764 7.60691 0.775379C7.04339 0.549871 6.46816 0.389754 5.89257 0.300184C4.07539 0.0186605 2.46554 0.472449 1.35949 1.57807C0.253471 2.68413 -0.200318 4.29397 0.0816355 6.11112C0.171167 6.68714 0.331323 7.26233 0.556792 7.82546C1.01867 8.97991 1.75398 10.0839 2.71039 11.0403C4.13347 12.463 5.88371 13.3968 7.63956 13.6691C8.39144 13.7856 9.10824 13.7764 9.76816 13.6465C10.2631 13.5501 10.7262 13.3855 11.1485 13.156C11.524 12.9519 11.8677 12.6961 12.1726 12.3912C12.4582 12.1056 12.7002 11.7865 12.8967 11.4392C13.1181 11.0496 13.2827 10.6244 13.3888 10.1706C13.555 9.46069 13.578 8.681 13.4505 7.85854ZM11.5543 11.4937C11.5107 11.5429 11.4655 11.5909 11.4187 11.6377C11.3719 11.6845 11.3243 11.7292 11.2751 11.7728C10.9629 12.0503 10.6015 12.2665 10.2009 12.4182C10.0638 12.4702 9.92179 12.515 9.77578 12.5513C9.28246 12.6764 8.74035 12.7143 8.16511 12.6606C8.14292 12.659 8.12074 12.6566 8.09855 12.6542C8.00093 12.6441 7.90249 12.6312 7.80289 12.6158C7.73914 12.6058 7.67542 12.5949 7.61167 12.5828C7.57738 12.5767 7.54351 12.5703 7.50921 12.563C7.13124 12.486 6.7541 12.3738 6.3814 12.2286C6.24992 12.1774 6.11921 12.1221 5.98894 12.0628C5.61261 11.891 5.24269 11.6857 4.8841 11.4485C4.77277 11.3759 4.66304 11.2997 4.55414 11.2202C4.23023 10.9846 3.91683 10.7228 3.61792 10.4364C3.56628 10.3876 3.51507 10.3376 3.46425 10.2868C3.42191 10.2444 3.37953 10.2013 3.338 10.1581C3.05121 9.86042 2.7882 9.5478 2.55144 9.22472C2.47156 9.11663 2.39535 9.00729 2.32152 8.89679C2.32152 8.89639 2.32152 8.89639 2.32152 8.89639C2.08355 8.53901 1.87699 8.17073 1.70355 7.79518C1.64343 7.66569 1.58777 7.53542 1.53574 7.40472C1.38406 7.02069 1.2671 6.63147 1.18761 6.24139C1.18316 6.22124 1.17914 6.20065 1.1755 6.1805C1.17269 6.16679 1.16984 6.15265 1.16785 6.13893C1.15574 6.07518 1.14445 6.01147 1.13476 5.94772C1.12144 5.86343 1.11054 5.77952 1.10128 5.69643C1.09683 5.65932 1.0932 5.62222 1.08999 5.5855C1.03675 5.0103 1.07425 4.46815 1.19929 3.97483C1.23601 3.82843 1.28039 3.68682 1.33242 3.54968C1.48449 3.14913 1.70031 2.78772 1.97781 2.4755C2.02136 2.42628 2.06613 2.3787 2.11292 2.3319C2.15972 2.28511 2.2073 2.24034 2.25652 2.19636C2.56874 1.91925 2.93015 1.70304 3.33109 1.55097C3.46824 1.49893 3.61023 1.45456 3.75625 1.41784C4.24957 1.2928 4.79089 1.2553 5.36609 1.30811C5.4032 1.31136 5.44031 1.31538 5.47781 1.31979C5.56089 1.32909 5.6448 1.33995 5.7291 1.35327C5.79285 1.36335 5.85656 1.37425 5.92031 1.38636C5.93402 1.38839 5.94773 1.3912 5.96144 1.39401C5.9816 1.39764 6.00218 1.40167 6.02234 1.40612C6.41238 1.48518 6.80164 1.60218 7.18566 1.75464C7.31636 1.80628 7.44703 1.86194 7.57652 1.92202C7.95164 2.09546 8.32035 2.30241 8.67773 2.54038C8.78824 2.61378 8.89796 2.69042 9.00609 2.7703C9.32917 3.0071 9.6414 3.27007 9.9391 3.55686C9.98226 3.598 10.0254 3.64038 10.0678 3.68272C10.1186 3.73354 10.1686 3.78479 10.2178 3.83639C10.5034 4.1353 10.7652 4.44831 11.0012 4.77261C11.0802 4.88151 11.1565 4.99163 11.2295 5.10257C11.4667 5.46116 11.672 5.83104 11.8438 6.2078C11.9035 6.33768 11.9588 6.46878 12.0096 6.60026C12.1552 6.97257 12.2674 7.35011 12.3444 7.72807C12.3517 7.76237 12.3581 7.79624 12.3642 7.83054C12.3763 7.89429 12.3876 7.958 12.3973 8.02175C12.4126 8.1214 12.4255 8.21979 12.4356 8.31741C12.438 8.3396 12.4404 8.36179 12.442 8.38397C12.4953 8.95917 12.4578 9.50089 12.3327 9.99421C12.2964 10.1406 12.2516 10.2822 12.1996 10.4194C12.048 10.8201 11.8318 11.1815 11.5543 11.4937Z" fill="#FF525D"/>
<path id="Vector_23" d="M17.7436 16.6219C17.5629 16.8409 17.3729 17.0523 17.174 17.2548L16.6283 16.7091C16.4911 16.5719 16.4911 16.3493 16.6283 16.2117L16.7319 16.108C16.865 15.9749 17.0784 15.9705 17.2168 16.0955C17.2212 16.0996 17.2252 16.1036 17.2297 16.108L17.7436 16.6219Z" fill="#78CAEF"/>
<path id="Vector_24" d="M13.3856 3.97329C13.3739 4.03708 13.3599 4.09997 13.3438 4.16173C13.09 5.13344 12.2974 5.84286 11.3522 6.02383C11.2271 6.04805 11.0991 6.06274 10.9694 6.06758C10.786 6.07466 10.5992 6.06173 10.4111 6.02723C10.0156 5.95477 9.65806 5.79501 9.35502 5.57122C9.26966 5.50844 9.18853 5.44028 9.11232 5.36762C8.50763 4.79317 8.19572 3.93446 8.35709 3.05274C8.41502 2.73657 8.5288 2.44481 8.68634 2.18555C8.77693 2.03645 8.88185 1.89825 8.99927 1.77235C9.42236 1.31794 10.0045 1.02477 10.6374 0.967116C10.864 0.946335 11.0969 0.955827 11.3315 0.998796C12.0479 1.12993 12.6395 1.54801 13.0094 2.11278C13.1117 2.26876 13.197 2.43579 13.263 2.61133C13.4223 3.03161 13.4723 3.49915 13.3856 3.97329Z" fill="#EDBB4C"/>
<path id="Vector_25" d="M13.3856 3.97329C13.3739 4.03708 13.3599 4.09997 13.3438 4.16173C13.0218 4.73575 12.459 5.13969 11.8152 5.26298C11.7059 5.28395 11.5941 5.29684 11.4807 5.3011C11.3204 5.30735 11.1572 5.29606 10.9928 5.26579C10.6471 5.20262 10.3348 5.06301 10.0699 4.86731C9.99544 4.81262 9.92442 4.7529 9.85786 4.68954C9.32946 4.18755 9.05684 3.43696 9.19786 2.66641C9.24852 2.3902 9.34798 2.13516 9.48559 1.90856C9.56489 1.77844 9.65649 1.65755 9.75919 1.54758C10.0013 1.2877 10.3028 1.08794 10.6375 0.967116C10.864 0.946335 11.0969 0.955827 11.3315 0.998796C12.048 1.12993 12.6396 1.54801 13.0094 2.11278C13.1117 2.26876 13.1971 2.43579 13.2631 2.61133C13.4223 3.03161 13.4723 3.49915 13.3856 3.97329Z" fill="#FFD15C"/>
<g id="Icon_3">
<path id="Vector_26" d="M9.58765 4.50707C9.56929 4.86141 9.49785 5.20539 9.37539 5.5298C9.37316 5.53547 9.37074 5.54109 9.36793 5.54656L9.35503 5.57137C9.26968 5.50859 9.18855 5.44043 9.11234 5.36777C9.2116 5.08891 9.26972 4.79434 9.28546 4.49148C9.30441 4.12848 9.16503 3.79863 9.0175 3.44934C8.86394 3.08492 8.69226 2.67898 8.6864 2.18566C8.77699 2.03656 8.88191 1.89836 8.99933 1.77246V1.95004C8.99933 1.95527 8.99914 1.96031 8.99875 1.96535C8.94445 2.49781 9.12343 2.92176 9.29636 3.33152C9.4507 3.69699 9.61003 4.07488 9.58765 4.50707Z" fill="#F9EED7"/>
<path id="Vector_27" d="M13.2631 2.61139C13.224 2.71268 13.1594 2.81334 13.0724 2.90615C12.9013 3.08857 12.659 3.22916 12.3721 3.31291C11.3921 3.59881 10.8827 4.16861 10.858 5.00674C10.8473 5.3683 11.0612 5.75674 11.2678 5.93853C11.2706 5.94096 11.2734 5.94357 11.2761 5.94619L11.3522 6.02389C11.2271 6.04811 11.0991 6.06279 10.9694 6.06764C10.742 5.814 10.5437 5.39959 10.5554 4.99787C10.5753 4.32135 10.8919 3.42932 12.2874 3.02236C12.8004 2.87287 13.0179 2.54842 13.0036 2.37607C13.0032 2.37205 13.003 2.36779 13.003 2.36357V2.35936L13.0094 2.11279C13.1118 2.26877 13.1971 2.43584 13.2631 2.61139Z" fill="#F9EED7"/>
</g>
<g id="Icon_4">
<path id="Vector_28" d="M12.0015 2.67107C12.2856 2.67107 12.516 2.44073 12.516 2.15658C12.516 1.87244 12.2856 1.64209 12.0015 1.64209C11.7173 1.64209 11.487 1.87244 11.487 2.15658C11.487 2.44073 11.7173 2.67107 12.0015 2.67107Z" fill="#FFDC8D"/>
<path id="Vector_29" d="M11.0547 1.94498C11.208 1.94498 11.3322 1.82077 11.3322 1.66756C11.3322 1.51434 11.208 1.39014 11.0547 1.39014C10.9015 1.39014 10.7773 1.51434 10.7773 1.66756C10.7773 1.82077 10.9015 1.94498 11.0547 1.94498Z" fill="#FFDC8D"/>
</g>
</g>
<defs>
<clipPath id="clip0_171_1024">
<rect width="20" height="20" fill="white" transform="translate(0 0.21875)"/>
</clipPath>
</defs>
</svg>
