<svg width="21" height="20" viewBox="0 0 21 20" fill="none" xmlns="http://www.w3.org/2000/svg">
<g id="fi_14539032" clip-path="url(#clip0_188_6631)">
<g id="b">
<g id="c">
<g id="Flag Icon">
<path id="Vector" d="M20.2823 10C20.2823 10.6377 20.222 11.2642 20.105 11.8679H12.3993V19.7736C11.7163 19.9208 11.0107 20 10.2823 20C9.55405 20 8.84461 19.9208 8.16159 19.7736V11.8679H0.459707C0.342726 11.2642 0.282349 10.6377 0.282349 10C0.282349 9.36226 0.342726 8.73585 0.459707 8.13208H8.16159V0.226415C8.84461 0.0792453 9.55405 0 10.2823 0C11.0107 0 11.7163 0.0792453 12.3993 0.226415V8.13208H20.105C20.222 8.73585 20.2823 9.36226 20.2823 10Z" fill="#F30040"/>
<path id="Vector_2" d="M7.54652 0.411133V6.32811L2.9201 3.23C4.13143 1.91679 5.68614 0.928114 7.44463 0.411133H7.54652Z" fill="#14439E"/>
<path id="Vector_3" d="M2.705 7.37719H0.633301C0.735188 6.98474 0.863489 6.60738 1.01443 6.24512L2.705 7.37719Z" fill="#14439E"/>
<path id="Vector_4" d="M6.93897 7.37746H4.41444L1.41821 5.37746C1.61821 4.98501 1.84463 4.61142 2.10123 4.25293L6.93897 7.37746Z" fill="#F30040"/>
<path id="Vector_5" d="M7.54652 13.668V19.5887H7.44463C5.68614 19.068 4.12765 18.0793 2.9201 16.7661L7.54652 13.668Z" fill="#14439E"/>
<path id="Vector_6" d="M2.705 12.6226L1.01443 13.7546C0.863489 13.3924 0.735188 13.015 0.633301 12.6226H2.705Z" fill="#14439E"/>
<path id="Vector_7" d="M6.93897 12.6226L2.10123 15.7471C1.84463 15.3886 1.61821 15.0112 1.41821 14.6188L4.41444 12.6226H6.93897Z" fill="#F30040"/>
<path id="Vector_8" d="M17.6446 3.23L13.0182 6.32811V0.411133H13.1201C14.8786 0.928114 16.4333 1.91679 17.6446 3.23Z" fill="#14439E"/>
<path id="Vector_9" d="M19.9314 7.37719H17.8635L19.554 6.24512C19.7012 6.60738 19.8295 6.98474 19.9314 7.37719Z" fill="#14439E"/>
<path id="Vector_10" d="M19.1465 5.37746L16.1503 7.37746H13.6295L18.4635 4.25293C18.7201 4.61142 18.9465 4.98501 19.1465 5.37746Z" fill="#F30040"/>
<path id="Vector_11" d="M17.6446 16.7661C16.4371 18.0793 14.8786 19.068 13.1201 19.5887H13.0182V13.668L17.6446 16.7661Z" fill="#14439E"/>
<path id="Vector_12" d="M19.9314 12.6226C19.8295 13.0112 19.7012 13.3886 19.554 13.7509L17.8635 12.6226H19.9314Z" fill="#14439E"/>
<path id="Vector_13" d="M19.1465 14.6188C18.9465 15.0112 18.7201 15.3886 18.4635 15.7471L13.6295 12.6226H16.1503L19.1465 14.6188Z" fill="#F30040"/>
<path id="Vector_14" d="M20.105 8.13222H12.3994V0.226562C12.6446 0.279393 12.8861 0.335996 13.1201 0.411468H13.0182V6.32845L17.6446 3.23034C17.939 3.55109 18.2144 3.89071 18.4635 4.25298L13.6295 7.37751H16.1503L19.1465 5.37751C19.3012 5.66052 19.4333 5.94732 19.5541 6.24543L17.8635 7.37751H19.9314C19.9994 7.62279 20.0597 7.87562 20.105 8.13222Z" fill="white"/>
<path id="Vector_15" d="M8.1616 0.226562V8.13222H0.459717C0.505 7.87562 0.565377 7.62279 0.633302 7.37751H2.705L1.01443 6.24543C1.13141 5.94732 1.26349 5.66052 1.41821 5.37751L4.41443 7.37751H6.93896L2.10123 4.25298C2.35028 3.89071 2.62575 3.55109 2.92009 3.23034L7.54651 6.32845V0.411468H7.44462C7.67859 0.335996 7.91632 0.279393 8.1616 0.226562Z" fill="white"/>
<path id="Vector_16" d="M8.1616 11.8682V19.7738C7.91632 19.721 7.67859 19.6644 7.44462 19.5889H7.54651V13.6682L2.92009 16.7663C2.62575 16.4455 2.35028 16.1059 2.10123 15.7474L6.93896 12.6229H4.41443L1.41821 14.6191C1.26349 14.3399 1.13141 14.0531 1.01443 13.755L2.705 12.6229H0.633302C0.565377 12.3776 0.505 12.1248 0.459717 11.8682H8.1616Z" fill="white"/>
<path id="Vector_17" d="M19.9314 12.6229H17.8635L19.5541 13.7512C19.4333 14.0531 19.3012 14.3361 19.1465 14.6191L16.1503 12.6229H13.6295L18.4635 15.7474C18.2144 16.1059 17.939 16.4455 17.6446 16.7663L13.0182 13.6682V19.5889H13.1201C12.8861 19.6644 12.6446 19.721 12.3994 19.7738V11.8682H20.105C20.0597 12.1248 19.9994 12.3776 19.9314 12.6229Z" fill="white"/>
</g>
</g>
</g>
</g>
<defs>
<clipPath id="clip0_188_6631">
<rect width="20" height="20" fill="white" transform="translate(0.282349)"/>
</clipPath>
</defs>
</svg>
