<svg width="32" height="33" viewBox="0 0 32 33" fill="none" xmlns="http://www.w3.org/2000/svg">
<g id="fi_167018" clip-path="url(#clip0_190_27803)">
<g id="Group">
<g id="Group_2">
<path id="Vector" d="M29.6783 8.00396H19.7856L23.2984 2.24016C23.603 1.74045 23.4448 1.08844 22.9451 0.783916C22.4454 0.479245 21.7934 0.63755 21.4888 1.13726L17.3039 8.00396H14.6962L10.5112 1.13726C10.2067 0.637691 9.5547 0.479457 9.05499 0.783916C8.55528 1.08852 8.39705 1.74045 8.70165 2.24016L12.2144 8.00396H2.32158C1.04145 8.00396 0 9.04541 0 10.3255V29.4881C0 30.7681 1.04145 31.8096 2.32158 31.8096H29.6784C30.9586 31.8096 32 30.7681 32 29.4881V10.3255C31.9999 9.04541 30.9585 8.00396 29.6783 8.00396ZM22.4407 26.703C22.4407 27.3999 21.8757 27.965 21.1787 27.965H5.02872C4.33179 27.9649 3.76681 27.3999 3.76681 26.703V13.1106C3.76681 12.4137 4.33179 11.8486 5.02879 11.8486H21.1787C21.8757 11.8486 22.4407 12.4137 22.4407 13.1106V26.703ZM27.1111 26.2997C25.9036 26.2997 24.9212 25.3173 24.9212 24.1099C24.9212 22.9024 25.9036 21.92 27.1111 21.92C28.3185 21.92 29.3009 22.9024 29.3009 24.1099C29.3009 25.3174 28.3185 26.2997 27.1111 26.2997ZM27.1111 17.8936C25.9036 17.8936 24.9212 16.9112 24.9212 15.7037C24.9212 14.4962 25.9036 13.5139 27.1111 13.5139C28.3185 13.5139 29.3009 14.4962 29.3009 15.7037C29.3009 16.9112 28.3185 17.8936 27.1111 17.8936Z" fill="#706C93"/>
</g>
</g>
</g>
<defs>
<clipPath id="clip0_190_27803">
<rect width="32" height="32" fill="white" transform="translate(0 0.21875)"/>
</clipPath>
</defs>
</svg>
