<svg width="20" height="21" viewBox="0 0 20 21" fill="none" xmlns="http://www.w3.org/2000/svg">
<g id="fi_9004824" clip-path="url(#clip0_171_1559)">
<g id="Layer 2">
<g id="Layer 1">
<g id="12.Bell">
<g id="Bell">
<g id="Bell_2">
<path id="Vector" d="M10.017 7.41582C10.2284 7.29378 10.4796 7.26071 10.7153 7.32387C10.9511 7.38704 11.1521 7.54128 11.2741 7.75265L12.1901 9.33919L10.5962 10.2595L9.68014 8.67297C9.5581 8.46159 9.52503 8.21039 9.5882 7.97463C9.65136 7.73887 9.8056 7.53786 10.017 7.41582Z" fill="#FAF180"/>
<path id="Vector_2" d="M10.4687 7.29297L10.4469 7.30508C10.3422 7.36552 10.2504 7.44599 10.1769 7.5419C10.1033 7.6378 10.0493 7.74727 10.018 7.86404C9.98677 7.9808 9.97881 8.10259 9.99461 8.22243C10.0104 8.34228 10.0497 8.45783 10.1102 8.5625L10.9676 10.0469L10.5965 10.2613L9.67969 8.67305C9.59934 8.53373 9.5569 8.3758 9.55659 8.21498C9.55629 8.05415 9.59814 7.89606 9.67796 7.75645C9.75779 7.61683 9.8728 7.50058 10.0115 7.41926C10.1503 7.33794 10.3079 7.29439 10.4687 7.29297Z" fill="#EADC5C"/>
<path id="Vector_3" d="M19.6094 14.1532C19.6094 14.1532 17.1957 13.3719 15.4051 10.2719L15.4 10.263C15.1875 9.89454 14.9045 9.57163 14.5671 9.31266C14.2298 9.0537 13.8447 8.86378 13.4338 8.75374C13.023 8.64371 12.5945 8.61573 12.1729 8.6714C11.7513 8.72707 11.3447 8.8653 10.9766 9.07819C10.6084 9.29071 10.2858 9.57366 10.027 9.91089C9.76828 10.2481 9.57849 10.633 9.46851 11.0436C9.35853 11.4542 9.33051 11.8824 9.38604 12.3038C9.44158 12.7253 9.57959 13.1316 9.79219 13.4997L9.81523 13.5387C11.5824 16.6247 11.057 19.0895 11.057 19.0895L19.6094 14.1532Z" fill="#FFC943"/>
<path id="Vector_4" d="M19.6094 14.1533L19.1461 14.4209C19.1461 14.4209 16.6789 13.5459 14.7867 10.2709L14.7812 10.2615C14.3417 9.49029 13.6262 8.91426 12.7789 8.64941C13.3155 8.67936 13.8362 8.84259 14.2938 9.12433C14.7514 9.40608 15.1316 9.79747 15.4 10.2631L15.4051 10.2721C17.1937 13.3709 19.6094 14.1533 19.6094 14.1533Z" fill="#FAF180"/>
<path id="Vector_5" d="M11.5199 8.82812C10.9469 9.31981 10.5636 9.99628 10.4364 10.7406C10.3093 11.4849 10.4461 12.2502 10.8234 12.9043L10.8465 12.9434C12.6137 16.0293 12.0879 18.4945 12.0879 18.4945L11.057 19.0898C11.057 19.0898 11.5824 16.625 9.81523 13.5391L9.79258 13.5C9.57996 13.1319 9.44193 12.7256 9.38637 12.3042C9.3308 11.8828 9.35879 11.4546 9.46874 11.044C9.57868 10.6334 9.76843 10.2485 10.0271 9.91129C10.2859 9.57404 10.6085 9.29107 10.9766 9.07852C11.1497 8.97868 11.3316 8.89487 11.5199 8.82812Z" fill="#EB982C"/>
<path id="Vector_6" d="M16.7906 19.1487C19.2386 17.7353 20.5698 15.458 19.7639 14.0623C18.9581 12.6665 16.3203 12.6807 13.8723 14.0941C11.4243 15.5075 10.0931 17.7848 10.8989 19.1806C11.7048 20.5764 14.3426 20.5621 16.7906 19.1487Z" fill="#FFAA39"/>
<path id="Vector_7" d="M17.0883 18.9691C16.9914 19.0301 16.8924 19.0897 16.7914 19.148C14.3434 20.5617 11.7055 20.5758 10.8996 19.1797C10.0937 17.7836 11.425 15.5078 13.873 14.0934C13.9738 14.035 14.075 13.9792 14.1766 13.9258C12.5559 14.9805 11.8672 16.8367 12.6398 18.175C13.4125 19.5133 15.366 19.8477 17.0883 18.9691Z" fill="#D98328"/>
<path id="Vector_8" d="M16.4129 18.4939C15.4801 19.0326 14.4488 19.3259 13.584 19.299C12.9266 19.2783 12.4219 19.072 12.234 18.7466C12.0461 18.4212 12.1199 17.881 12.4293 17.3013C12.8387 16.5388 13.6082 15.7927 14.541 15.254C15.4738 14.7154 16.5051 14.422 17.3699 14.449C18.0273 14.4693 18.532 14.6759 18.7199 15.0013C18.9078 15.3267 18.8344 15.8669 18.5246 16.4466C18.1156 17.2111 17.3457 17.9552 16.4129 18.4939Z" fill="#8E2F00"/>
<path id="Vector_9" d="M17.5426 14.4585C16.8603 14.5916 16.2054 14.839 15.6055 15.1901C14.6723 15.7288 13.9027 16.4749 13.4938 17.237C13.1813 17.8167 13.1094 18.3569 13.2984 18.6823C13.4695 18.9788 13.9039 19.1765 14.477 19.2245C14.1832 19.2808 13.8842 19.3055 13.5852 19.2983C12.9277 19.2776 12.423 19.0714 12.2352 18.746C12.0473 18.4206 12.1211 17.88 12.4305 17.3007C12.8391 16.5382 13.609 15.7921 14.5398 15.2534C15.4707 14.7147 16.5039 14.4214 17.3688 14.4479C17.4297 14.4503 17.4871 14.4538 17.5426 14.4585Z" fill="#682000"/>
<path id="Vector_10" d="M16.4207 15.9613C16.4369 16.1479 16.4158 16.3357 16.3588 16.5141C16.3018 16.6924 16.2099 16.8576 16.0884 17.0002C15.967 17.1427 15.8185 17.2597 15.6515 17.3443C15.4845 17.429 15.3024 17.4796 15.1156 17.4933C14.9289 17.507 14.7413 17.4834 14.5638 17.424C14.3862 17.3646 14.2222 17.2705 14.0813 17.1472C13.9404 17.0239 13.8254 16.8739 13.743 16.7058C13.6606 16.5377 13.6124 16.3549 13.6012 16.168C13.5951 16.0813 13.5967 15.9942 13.6059 15.9078C14.1923 15.417 14.8595 15.0319 15.5777 14.7695C15.8134 14.8726 16.0165 15.0381 16.1651 15.2481C16.3136 15.4582 16.402 15.7048 16.4207 15.9613Z" fill="#EB982C"/>
<path id="Vector_11" d="M16.4207 15.9608C16.4365 16.1705 16.4052 16.3811 16.329 16.5772C16.2528 16.7732 16.1337 16.9497 15.9805 17.0937C15.9469 17.0995 15.9125 17.1034 15.8777 17.1062C15.5864 17.1275 15.2984 17.0322 15.0773 16.8413C14.8562 16.6503 14.72 16.3794 14.6986 16.088C14.6773 15.7966 14.7726 15.5087 14.9635 15.2876C15.1545 15.0664 15.4254 14.9302 15.7168 14.9089C15.7516 14.9065 15.7863 14.9058 15.8207 14.9065C15.9929 15.0265 16.1362 15.1834 16.24 15.3658C16.3438 15.5482 16.4055 15.7515 16.4207 15.9608Z" fill="#FFC943"/>
</g>
<g id="Bell_3">
<path id="Vector_12" d="M10.0195 7.44453C10.2318 7.56657 10.387 7.76797 10.4509 8.00442C10.5147 8.24087 10.4821 8.49301 10.36 8.70536L9.444 10.2992L7.84265 9.37891L8.75867 7.78505C8.88071 7.5727 9.08211 7.41752 9.31856 7.35366C9.55501 7.2898 9.80714 7.32249 10.0195 7.44453Z" fill="#FAF180"/>
<path id="Vector_13" d="M10.316 7.74636L10.2945 7.73347C10.0832 7.61146 9.83202 7.57839 9.59629 7.64154C9.36056 7.70468 9.15956 7.85887 9.0375 8.07019L8.17812 9.55456L7.80664 9.34011L8.72383 7.75183C8.80435 7.61257 8.91995 7.49684 9.05912 7.41616C9.1983 7.33548 9.35618 7.29267 9.51704 7.292C9.6779 7.29133 9.83613 7.33282 9.97597 7.41233C10.1158 7.49184 10.2324 7.60661 10.3141 7.74519L10.316 7.74636Z" fill="#EADC5C"/>
<path id="Vector_14" d="M8.94531 19.0908C8.94531 19.0908 8.41563 16.6092 10.2043 13.5092L10.2094 13.5002C10.4218 13.132 10.5597 12.7256 10.6151 12.3042C10.6705 11.8828 10.6423 11.4545 10.5322 11.044C10.4221 10.6334 10.2321 10.2486 9.97327 9.91146C9.71439 9.57432 9.39164 9.29148 9.02344 9.07909C8.28009 8.64996 7.39672 8.53365 6.56763 8.75576C5.73854 8.97787 5.03162 9.5202 4.60234 10.2635L4.5793 10.3025C2.79063 13.3767 0.392578 14.1541 0.392578 14.1541L8.94531 19.0908Z" fill="#FFC943"/>
<path id="Vector_15" d="M8.94531 19.0902L8.48203 18.8227C8.48203 18.8227 8.00586 16.2484 9.89609 12.9723L9.90156 12.9629C10.3493 12.1968 10.4904 11.2897 10.2965 10.4238C10.5383 10.9036 10.6568 11.4361 10.6412 11.9732C10.6257 12.5103 10.4766 13.035 10.2074 13.5L10.2023 13.509C8.41406 16.6086 8.94531 19.0902 8.94531 19.0902Z" fill="#FAF180"/>
<path id="Vector_16" d="M9.51133 9.42355C8.79898 9.17318 8.02154 9.17958 7.31341 9.44163C6.60527 9.70369 6.01096 10.2049 5.6332 10.8587L5.61016 10.8978C3.82148 13.9716 1.42383 14.7501 1.42383 14.7501L0.392578 14.1548C0.392578 14.1548 2.79062 13.3775 4.5793 10.304L4.60195 10.265C5.03097 9.52133 5.73782 8.97858 6.567 8.7561C7.39619 8.53362 8.27979 8.64964 9.02344 9.07863C9.19628 9.17843 9.3596 9.29389 9.51133 9.42355Z" fill="#EB982C"/>
<path id="Vector_17" d="M9.10011 19.1809C9.90599 17.7851 8.57479 15.5078 6.12679 14.0944C3.67879 12.681 1.04099 12.6668 0.235108 14.0625C-0.570774 15.4583 0.760426 17.7356 3.20843 19.149C5.65643 20.5624 8.29422 20.5767 9.10011 19.1809Z" fill="#FFAA39"/>
<path id="Vector_18" d="M3.51211 19.3173C3.41094 19.2637 3.30938 19.2079 3.2086 19.1497C0.760549 17.7364 -0.570701 15.4591 0.234377 14.063C1.03946 12.6669 3.67813 12.6817 6.12617 14.095C6.22695 14.1531 6.32591 14.2127 6.42305 14.2739C4.70078 13.3969 2.74727 13.7298 1.975 15.0677C1.20274 16.4055 1.8918 18.2661 3.51211 19.3173Z" fill="#D98328"/>
<path id="Vector_19" d="M3.58711 18.4939C2.65625 17.9552 1.88477 17.2111 1.47539 16.4466C1.16289 15.8669 1.09102 15.3267 1.28008 15.0013C1.46914 14.6759 1.97266 14.4693 2.63008 14.449C3.49492 14.422 4.52617 14.7154 5.45899 15.254C6.3918 15.7927 7.16133 16.5388 7.5707 17.3013C7.8832 17.8806 7.95508 18.4208 7.76602 18.7466C7.57695 19.0724 7.07344 19.2783 6.41602 19.299C5.55117 19.3259 4.51992 19.0326 3.58711 18.4939Z" fill="#8E2F00"/>
<path id="Vector_20" d="M7.64688 17.4549C7.19054 16.9306 6.6491 16.487 6.04531 16.1428C5.11211 15.6041 4.08125 15.3103 3.21641 15.3377C2.55899 15.358 2.0543 15.5646 1.86641 15.89C1.69531 16.1865 1.74102 16.6615 1.98633 17.1818C1.79135 16.9556 1.62111 16.7091 1.47852 16.4467C1.16602 15.867 1.09375 15.3268 1.2832 15.0014C1.47266 14.676 1.97578 14.4693 2.6332 14.449C3.49805 14.4217 4.52891 14.7154 5.46211 15.2541C6.39531 15.7928 7.16484 16.5389 7.57383 17.3014C7.59883 17.3529 7.62318 17.4041 7.64688 17.4549Z" fill="#682000"/>
<path id="Vector_21" d="M5.7832 17.235C5.62058 17.3448 5.43686 17.4196 5.24376 17.4545C5.05065 17.4894 4.85239 17.4837 4.6616 17.4378C4.4708 17.3919 4.29166 17.3068 4.13557 17.1879C3.97949 17.0689 3.84989 16.9188 3.75503 16.747C3.66016 16.5752 3.60211 16.3855 3.58457 16.1901C3.56704 15.9946 3.5904 15.7977 3.65316 15.6117C3.71593 15.4258 3.81673 15.255 3.94915 15.1101C4.08156 14.9653 4.24269 14.8496 4.42227 14.7705C5.14071 15.0325 5.80799 15.4177 6.39414 15.9088C6.42277 16.1645 6.38099 16.4232 6.27332 16.6569C6.16565 16.8907 5.99618 17.0905 5.7832 17.235Z" fill="#EB982C"/>
<path id="Vector_22" d="M5.7836 17.2345C5.60993 17.3528 5.41201 17.4308 5.20432 17.4628C4.99662 17.4948 4.78441 17.4799 4.5832 17.4193C4.56133 17.3927 4.54063 17.3654 4.5207 17.3361C4.36308 17.0943 4.3066 16.8004 4.36343 16.5175C4.42025 16.2345 4.58583 15.9852 4.82457 15.8231C5.0633 15.661 5.35612 15.599 5.64007 15.6505C5.92401 15.702 6.1764 15.8629 6.34297 16.0986C6.3626 16.1272 6.38072 16.1568 6.39727 16.1872C6.37944 16.3965 6.31509 16.5991 6.20891 16.7803C6.10274 16.9615 5.95743 17.1167 5.7836 17.2345Z" fill="#FFC943"/>
</g>
</g>
<g id="Leafs">
<path id="Vector_23" d="M8.71093 4.98145C7.35781 5.12949 6.76445 3.61426 6.76445 3.61426L6.59375 3.44824L6.41562 3.63145L6.54414 3.75645C5.16914 4.54082 3.79375 3.47676 3.79375 3.47676C3.79375 3.47676 4.89609 4.82168 4.15 6.21816L4.02187 6.09316L3.84375 6.27637L4.01445 6.44238C4.01445 6.44238 5.54648 6.99277 5.43632 8.3502L5.18125 8.61231L5.35156 8.77715C5.35156 8.77715 7.53906 7.56934 8.8414 8.38262C7.99179 7.10215 9.13789 4.88496 9.13789 4.88496L8.96718 4.71895L8.71093 4.98145Z" fill="#00643D"/>
<path id="Vector_24" d="M8.96719 4.71934C8.96719 4.71934 7.82109 6.9373 8.67187 8.21699C7.36797 7.40332 5.18359 8.61113 5.18359 8.61113C5.69805 6.94043 3.84609 6.2752 3.84609 6.2752C4.84922 4.80254 3.62539 3.30957 3.62539 3.30957C3.62539 3.30957 5.15195 4.49082 6.59609 3.44707C6.59492 3.44707 7.31172 5.27988 8.96719 4.71934Z" fill="#00C477"/>
<path id="Vector_25" d="M8.67187 8.21699C7.36797 7.40332 5.18359 8.61113 5.18359 8.61113C5.69805 6.94043 3.84609 6.2752 3.84609 6.2752C4.84922 4.80254 3.62539 3.30957 3.62539 3.30957L8.67187 8.21699Z" fill="#008A55"/>
<path id="Vector_26" d="M4.3707 4.03516C5.6419 5.09488 6.83025 6.2502 7.92539 7.49102C6.65419 6.43129 5.46584 5.27597 4.3707 4.03516Z" fill="#007145"/>
<path id="Vector_27" d="M14.6254 8.30195C14.4965 6.94648 16.0211 6.37461 16.0211 6.37461L16.1895 6.20625L16.0086 6.02578L15.882 6.15234C15.1164 4.7668 16.2 3.40625 16.2 3.40625C16.2 3.40625 14.8395 4.48945 13.4539 3.72422L13.5805 3.59766L13.3984 3.41719L13.2301 3.58555C13.2301 3.58555 12.6582 5.10898 11.3027 4.98086L11.0441 4.72187L10.8758 4.89023C10.8758 4.89023 12.0527 7.09141 11.2211 8.38359C12.5133 7.55195 14.7141 8.72891 14.7141 8.72891L14.8824 8.56055L14.6254 8.30195Z" fill="#00643D"/>
<path id="Vector_28" d="M14.8828 8.55996C14.8828 8.55996 12.682 7.38301 11.3898 8.21465C12.2215 6.92246 11.0445 4.72129 11.0445 4.72129C12.709 5.25762 13.3984 3.4166 13.3984 3.4166C14.857 4.44004 16.3672 3.2373 16.3672 3.2373C16.3672 3.2373 15.1645 4.74707 16.1883 6.20605C16.1895 6.20566 14.3465 6.89824 14.8828 8.55996Z" fill="#00C477"/>
<path id="Vector_29" d="M11.391 8.21465C12.2227 6.92246 11.0457 4.72129 11.0457 4.72129C12.709 5.25762 13.3984 3.4166 13.3984 3.4166C14.857 4.44004 16.3672 3.2373 16.3672 3.2373L11.391 8.21465Z" fill="#008A55"/>
<path id="Vector_30" d="M15.632 3.97363C14.5549 5.22951 13.3832 6.40116 12.1273 7.47832C13.2044 6.22235 14.3761 5.0507 15.632 3.97363Z" fill="#007145"/>
<path id="Vector_31" d="M13.0023 6.30625C11.6742 5.20976 12.527 3.33477 12.527 3.33477V3.03359H12.2039V3.26016C10.2797 2.70508 10.032 0.519531 10.032 0.519531C10.032 0.519531 9.78398 2.70703 7.86055 3.26016V3.03359H7.53906V3.33477C7.53906 3.33477 8.39102 5.20976 7.06328 6.30625H6.59883V6.60781C6.59883 6.60781 9.61992 7.52344 10.032 9.42305C10.4441 7.52344 13.4652 6.60781 13.4652 6.60781V6.30625H13.0023Z" fill="#00643D"/>
<path id="Vector_32" d="M13.4652 6.30664C13.4652 6.30664 10.4441 7.22266 10.032 9.12226C9.61992 7.22266 6.59883 6.30664 6.59883 6.30664C8.56719 5.3 7.53633 3.03398 7.53633 3.03398C9.75742 2.64492 10.032 0.21875 10.032 0.21875C10.032 0.21875 10.3055 2.64492 12.527 3.03398C12.527 3.03398 11.4969 5.3 13.4652 6.30664Z" fill="#00C477"/>
<path id="Vector_33" d="M10.032 9.12226C9.61992 7.22266 6.59883 6.30664 6.59883 6.30664C8.56719 5.3 7.53633 3.03398 7.53633 3.03398C9.75742 2.64492 10.032 0.21875 10.032 0.21875V9.12226Z" fill="#008A55"/>
<path id="Vector_34" d="M10.032 1.53516C10.1916 3.62195 10.1916 5.71789 10.032 7.80469C9.87207 5.7179 9.87207 3.62194 10.032 1.53516Z" fill="#007145"/>
</g>
<g id="Ribbon">
<path id="Vector_35" opacity="0.3" d="M13.6453 6.99512C12.3504 6.99512 11.3836 7.80488 10.7902 8.50371C10.6917 8.39101 10.5702 8.30069 10.4339 8.23881C10.2976 8.17692 10.1497 8.14491 10 8.14491C9.85031 8.14491 9.70236 8.17692 9.56606 8.23881C9.42977 8.30069 9.30828 8.39101 9.20977 8.50371C8.61641 7.80527 7.64961 6.99551 6.35469 6.99551C3.8 6.99551 3.90469 8.41152 3.90469 9.04629C3.90469 9.51934 4.30391 10.8271 6.01992 10.8271C7.00547 10.8271 8.10156 10.5994 9.03906 10.0889C9.23984 10.4459 9.59492 10.683 10 10.683C10.4051 10.683 10.7598 10.4459 10.9609 10.0889C11.8984 10.5994 12.9945 10.8271 13.9801 10.8271C15.6961 10.8271 16.0953 9.51934 16.0953 9.04629C16.0938 8.41113 16.2 6.99512 13.6453 6.99512Z" fill="black"/>
<path id="Vector_36" d="M10.1055 9.02246C10.1055 9.02246 11.368 6.51855 13.6453 6.51855C16.2 6.51855 16.0953 7.93457 16.0953 8.56934C16.0953 9.04238 15.6961 10.3502 13.9801 10.3502C12.6742 10.3502 11.1738 9.95059 10.1055 9.02246Z" fill="#EB2335"/>
<path id="Vector_37" d="M15.0637 8.70273C15.657 8.93125 15.7277 9.74922 15.1762 10.0648C14.8758 10.2367 14.4848 10.35 13.9797 10.35C13.0367 10.35 11.993 10.1418 11.0836 9.67656C11.682 9.07266 12.5445 8.48828 13.6449 8.48828C14.2578 8.48828 14.7188 8.56992 15.0637 8.70273Z" fill="#C22026"/>
<path id="Vector_38" d="M13.9797 10.0863C13.1451 10.0874 12.3186 9.92292 11.548 9.60234C12.2016 9.03789 12.9055 8.75195 13.6449 8.75195C14.1397 8.75195 14.5508 8.8069 14.8781 8.9168C15.3207 9.06563 15.3691 9.68164 14.9492 9.88633C14.702 10.007 14.3852 10.0863 13.9797 10.0863Z" fill="#7D121C"/>
<path id="Vector_39" d="M9.89453 9.02246C9.89453 9.02246 8.63203 6.51855 6.35469 6.51855C3.8 6.51855 3.90469 7.93457 3.90469 8.56934C3.90469 9.04238 4.30391 10.3502 6.01992 10.3502C7.32578 10.3502 8.82813 9.95059 9.89453 9.02246Z" fill="#EB2335"/>
<path id="Vector_40" d="M4.93633 8.70273C4.34297 8.93125 4.27227 9.74922 4.82383 10.0648C5.12422 10.2367 5.51523 10.35 6.02031 10.35C6.96328 10.35 8.00703 10.1418 8.91641 9.67656C8.31797 9.07266 7.45547 8.48828 6.35508 8.48828C5.74219 8.48828 5.28125 8.56992 4.93633 8.70273Z" fill="#C22026"/>
<path id="Vector_41" d="M6.02031 10.0863C6.85489 10.0874 7.6814 9.92292 8.45195 9.60234C7.79844 9.03789 7.09453 8.75195 6.35508 8.75195C5.86029 8.75195 5.44922 8.8069 5.12188 8.9168C4.6793 9.06563 4.63086 9.68164 5.05078 9.88633C5.29805 10.007 5.61484 10.0863 6.02031 10.0863Z" fill="#7D121C"/>
<path id="Vector_42" d="M10 10.2055C10.6267 10.2055 11.1348 9.63743 11.1348 8.93672C11.1348 8.23601 10.6267 7.66797 10 7.66797C9.37329 7.66797 8.86523 8.23601 8.86523 8.93672C8.86523 9.63743 9.37329 10.2055 10 10.2055Z" fill="#FAF180"/>
<path id="Vector_43" d="M11.1352 8.93652C11.1352 9.63965 10.6273 10.2064 10.0004 10.2064C9.37344 10.2064 8.86719 9.6377 8.86719 8.93652C8.86722 8.88694 8.86982 8.8374 8.875 8.78809C8.94062 9.41934 9.42187 9.9084 10.0023 9.9084C10.5828 9.9084 11.0637 9.41934 11.1293 8.78809C11.1338 8.83743 11.1358 8.88698 11.1352 8.93652Z" fill="#EB982C"/>
</g>
</g>
</g>
</g>
</g>
<defs>
<clipPath id="clip0_171_1559">
<rect width="20" height="20" fill="white" transform="translate(0 0.21875)"/>
</clipPath>
</defs>
</svg>
