<svg width="20" height="21" viewBox="0 0 20 21" fill="none" xmlns="http://www.w3.org/2000/svg">
<g id="fi_7887772">
<path id="Vector" d="M18.3072 9.32843C18.0373 9.69418 17.6397 9.94507 17.1934 10.0313C16.7471 10.1176 16.2846 10.0329 15.8978 9.79407C15.6853 9.65345 15.6853 9.65657 15.451 9.89406C14.3041 11.0566 13.9885 11.3691 13.0322 12.3159L12.6041 12.7441C12.5362 12.8064 12.5246 12.8042 12.576 12.8753C13.7947 14.7097 13.0197 16.7659 11.8853 18.0784C11.3089 18.6981 10.71 18.7082 10.1041 18.1504C9.05049 17.0934 8.27339 16.34 7.12909 15.1628C7.01994 15.0677 7.06685 15.0501 6.91971 15.1628C6.01971 15.9003 5.11763 16.6337 4.21346 17.3628C3.66971 17.8035 3.12388 18.2451 2.57596 18.6878C2.40757 18.8499 2.18731 18.9473 1.95409 18.9628C1.86304 18.9611 1.77327 18.9411 1.69008 18.904C1.60689 18.867 1.53196 18.8137 1.46971 18.7472C1.03221 18.3191 1.35721 17.8722 1.49784 17.6816C2.62201 16.1412 3.71822 14.6066 4.86659 13.0691C4.94974 12.953 4.93621 12.9819 4.83534 12.8753C3.79824 11.8472 3.07899 11.1261 2.14784 10.191C1.48824 9.53704 1.52614 8.8763 2.22909 8.26595C3.54784 7.11595 5.80721 6.51595 7.38846 7.66908C7.40096 7.67845 7.41034 7.6847 7.41971 7.69095C8.78172 6.31481 9.3638 5.73349 10.5541 4.55346C10.2681 4.16079 10.1403 3.67488 10.1961 3.19231C10.252 2.70975 10.4874 2.26587 10.8555 1.9489C11.2236 1.63194 11.6976 1.46511 12.1831 1.48158C12.6686 1.49805 13.1301 1.69661 13.4759 2.03778C15.4322 3.97531 16.2697 4.81593 18.2041 6.76595C18.5355 7.10447 18.7296 7.55395 18.7486 8.02735C18.7677 8.50074 18.6104 8.96437 18.3072 9.32843Z" fill="#2A2541"/>
</g>
</svg>
