<svg width="22" height="23" viewBox="0 0 22 23" fill="none" xmlns="http://www.w3.org/2000/svg">
<g id="fi_8868331" clip-path="url(#clip0_171_12867)">
<g id="Icon Frame">
<g id="Icon Frame_2">
<g id="Icon Vector Container">
<path id="Vector" d="M18.7667 10.019C18.5 10.019 18.3 10.2524 18.3 10.4857C18.3 10.7524 18.5333 10.9524 18.7667 10.9524C19.0333 10.9524 19.2333 10.7524 19.2333 10.4857C19.2667 10.219 19.0333 10.019 18.7667 10.019Z" fill="#F55C5C"/>
</g>
<g id="Icon Vector">
<path id="Vector_2" d="M19.2 5.91885H10.9666L15.4666 1.38551C15.6 1.25218 15.6 1.05218 15.4666 0.918848C15.3333 0.785514 15.1333 0.785514 15 0.918848L10.1666 5.75218L6.99998 2.61885C6.86665 2.48551 6.66665 2.48551 6.53331 2.61885C6.39998 2.75218 6.39998 2.95218 6.53331 3.08551L9.36665 5.91885H2.79998C1.43331 5.91885 0.333313 7.01885 0.333313 8.38551V17.8188C0.333313 18.9188 1.06665 19.8522 2.06665 20.1855V21.3188C2.06665 21.4855 2.23331 21.6522 2.39998 21.6522H5.76665C5.96665 21.6522 6.09998 21.4855 6.09998 21.3188V20.2855H15.9V21.3188C15.9 21.4855 16.0666 21.6522 16.2333 21.6522H19.6C19.7666 21.6522 19.9333 21.4855 19.9333 21.3188V20.1855C20.9333 19.8855 21.7 18.9522 21.7 17.8188V8.35218C21.6666 7.01885 20.5666 5.91885 19.2 5.91885ZM16.0666 16.6188C16.0666 17.6855 15.2 18.5188 14.1666 18.5188H4.39998C3.33331 18.5188 2.49998 17.6522 2.49998 16.6188V9.55218C2.49998 8.48551 3.36665 7.65218 4.39998 7.65218H14.1333C15.2 7.65218 16.0333 8.51885 16.0333 9.55218V16.6188H16.0666ZM19.0666 16.8188H18.5C18.3333 16.8188 18.1666 16.6855 18.1666 16.4855C18.1666 16.3188 18.3333 16.1522 18.5 16.1522H19.0666C19.2666 16.1522 19.4 16.3188 19.4 16.4855C19.4 16.6522 19.2333 16.8188 19.0666 16.8188ZM18.7666 14.9522C18.1333 14.9522 17.6333 14.4522 17.6333 13.8188C17.6333 13.1855 18.1333 12.6855 18.7666 12.6855C19.4 12.6855 19.9 13.1855 19.9 13.8188C19.9333 14.4522 19.4 14.9522 18.7666 14.9522ZM18.7666 11.6522C18.1333 11.6522 17.6333 11.1522 17.6333 10.5188C17.6333 9.88551 18.1333 9.38552 18.7666 9.38552C19.4 9.38552 19.9 9.91885 19.9 10.5188C19.9333 11.1188 19.4 11.6522 18.7666 11.6522Z" fill="#F55C5C"/>
</g>
<g id="Icon Vector Container_2">
<path id="Vector_3" d="M18.7667 13.3188C18.5 13.3188 18.3 13.5522 18.3 13.7855C18.3 14.0522 18.5333 14.2522 18.7667 14.2522C19.0333 14.2522 19.2333 14.0188 19.2333 13.7855C19.2667 13.5522 19.0333 13.3188 18.7667 13.3188Z" fill="#F55C5C"/>
</g>
</g>
<g id="Icon Vector Container_3">
<g id="Icon Vector_2">
<path id="Vector_4" d="M11.5 13.3524L7.46667 16.1857C7.36667 16.2524 7.20001 16.2524 7.13334 16.219C7.03334 16.1524 6.96667 16.0524 6.96667 15.919V10.2524C6.96667 10.119 7.03334 10.019 7.13334 9.95235C7.23334 9.88569 7.36667 9.91902 7.46667 9.98569L11.5 12.819C11.6 12.8857 11.6333 12.9857 11.6333 13.0857C11.6333 13.1857 11.5667 13.2857 11.5 13.3524Z" fill="#F55C5C"/>
</g>
</g>
</g>
</g>
<defs>
<clipPath id="clip0_171_12867">
<rect width="22" height="22" fill="white" transform="translate(0 0.21875)"/>
</clipPath>
</defs>
</svg>
