<svg width="20" height="21" viewBox="0 0 20 21" fill="none" xmlns="http://www.w3.org/2000/svg">
<g id="fi_1232342" clip-path="url(#clip0_171_1675)">
<path id="Vector" d="M6.409 0.21875C2.61581 1.94284 1.23657 0.563599 1.23657 0.563599C1.23657 1.61432 3.43613 4.86398 4.48486 6.35355C4.8262 5.65164 5.37827 5.0741 6.06415 4.70148C6.37299 4.51227 6.63712 4.25836 6.83823 3.957C6.59927 2.50009 6.409 0.21875 6.409 0.21875Z" fill="#5DC382"/>
<path id="Vector_2" d="M2.37442 3.13922C1.38855 2.70877 0.546875 2.28809 0.546875 2.28809C0.577087 2.87662 0.693207 3.45752 0.891724 4.01218C1.13312 4.74017 3.08273 6.15024 4.21722 6.92218C4.25522 6.86938 4.29611 6.81888 4.3399 6.77081C4.37668 6.62814 4.4252 6.48868 4.48486 6.35394C3.93616 5.57468 3.07449 4.31461 2.37442 3.13922Z" fill="#23B972"/>
<path id="Vector_3" d="M2.08481 5.33691C2.3291 6.14365 2.50671 6.96899 2.61581 7.80487C3.00064 7.80884 3.38425 7.84775 3.76205 7.92114C3.84918 7.56195 4.00345 7.22275 4.21692 6.92108C3.60992 6.50833 2.77176 5.91278 2.08481 5.33691Z" fill="#5D9069"/>
<path id="Vector_4" d="M16.409 9.18381C15.5238 9.04175 14.6201 9.06434 13.7431 9.25049L13.6504 9.52866C12.8891 10.1704 12.1799 10.8713 11.5289 11.6246C13.3548 11.92 16.772 14.7011 17.0985 14.7011H18.1331C18.1331 13.6667 19.5123 9.52866 19.5123 9.52866C18.4697 9.50593 17.4312 9.39057 16.409 9.18381Z" fill="#5DC382"/>
<path id="Vector_5" d="M17.0541 14.6873C16.5669 14.5353 13.3017 11.9122 11.5289 11.6253L11.5448 11.6084C11.3199 11.8721 11.0451 12.0887 10.7362 12.2459L13.9952 17.4604C13.9952 17.4604 17.0985 16.7708 17.7882 15.7364L17.0541 14.6873Z" fill="#23B972"/>
<path id="Vector_6" d="M10.8228 12.2083C10.7918 12.2222 10.7642 12.2359 10.7366 12.2463L10.8849 12.4808L11.8744 14.0635L11.5814 14.3566L9.85719 15.736L9.75724 15.9394C9.5836 16.2826 9.43727 16.6389 9.31932 17.0049C9.20488 17.3452 9.06419 17.6762 8.89863 17.9946L7.97792 19.836C7.86149 20.0703 7.62239 20.2186 7.3607 20.2187H2.10893C1.86067 20.2181 1.63194 20.0843 1.50987 19.8681C1.3878 19.6519 1.39146 19.3867 1.51933 19.174L3.91923 15.1705C4.83613 13.6298 4.88191 11.7222 4.03993 10.1394C3.80235 9.74601 3.66838 9.29878 3.65037 8.83949C3.61451 8.08799 3.86048 7.35023 4.33992 6.77039C4.68476 5.39115 6.06416 4.70146 6.06416 4.70146C6.45204 4.44892 6.77659 4.11018 7.01234 3.71177C7.08238 3.60267 7.18492 3.51814 7.30546 3.47038C7.5673 3.35212 7.87507 3.40843 8.07786 3.61183L8.13996 3.67393L8.8228 4.12559C9.03825 4.271 9.16734 4.51392 9.16764 4.77393V5.0463L9.19175 5.0222C9.38356 4.83024 9.67683 4.78294 9.91929 4.90501L10.5434 5.21873C10.7573 5.32417 10.8925 5.54237 10.8917 5.78086V6.08085L11.4641 6.36695C11.927 6.59812 12.1492 7.13493 11.9849 7.62565L11.9261 7.80494L12.3538 7.94639C12.7423 8.07685 13.0634 8.35578 13.2469 8.72215L13.6504 9.52903C12.8883 10.1699 12.1791 10.8709 11.5297 11.6256C11.3233 11.8528 11.0851 12.049 10.8228 12.2083Z" fill="#FEDEBB"/>
<g id="Container">
<path id="Vector_7" d="M10.8849 12.4808C10.8699 12.5707 10.8188 12.6505 10.7434 12.7015C10.6859 12.7419 10.6172 12.7636 10.5469 12.7636C10.4343 12.7627 10.3289 12.7074 10.2642 12.6153C9.19177 11.0809 6.53659 8.4188 6.50897 8.39454C6.40399 8.28864 6.37897 8.12736 6.44687 7.99461C6.59503 7.65373 6.59503 7.26661 6.44687 6.92558C6.36905 6.76994 6.41925 6.58073 6.56421 6.48429C8.02279 5.50834 7.76767 4.42909 7.30548 3.47038C7.56732 3.35212 7.87509 3.40843 8.07788 3.61183L8.13998 3.67393C8.45721 4.54627 8.59866 5.82221 7.16754 6.90147C7.2803 7.28339 7.27801 7.68989 7.16067 8.07044C7.76416 8.68079 9.85385 10.8326 10.8228 12.2083C10.8261 12.2118 10.8261 12.2153 10.8296 12.2187C10.8826 12.2951 10.9024 12.3896 10.8849 12.4808Z" fill="#F5A585"/>
<path id="Vector_8" d="M7.44339 8.83924C7.25296 8.83924 7.09854 8.68482 7.09854 8.49439C7.09854 7.38127 8.70377 5.10191 8.88687 4.84571C8.9975 4.69068 9.21295 4.65467 9.36798 4.76545C9.52286 4.87608 9.55887 5.09138 9.44824 5.24641C8.80646 6.14546 7.78824 7.82194 7.78824 8.49439C7.78824 8.68482 7.63382 8.83924 7.44339 8.83924Z" fill="#F5A585"/>
<path id="Vector_9" d="M8.47795 9.87387C8.31773 9.87418 8.17857 9.76416 8.14165 9.60837C8.10487 9.45258 8.1801 9.2919 8.32338 9.22049C8.62169 9.07141 9.16246 8.1452 9.5572 7.46878C9.86131 6.88742 10.2268 6.34039 10.6476 5.83701C10.7829 5.70639 10.9979 5.70822 11.131 5.84113C11.2641 5.97418 11.2659 6.18933 11.1351 6.32452C10.7601 6.78885 10.4309 7.28858 10.1528 7.81668C9.50654 8.92386 9.08143 9.61249 8.63176 9.83771C8.584 9.86151 8.53135 9.87387 8.47795 9.87387Z" fill="#F5A585"/>
<path id="Vector_10" d="M9.85718 11.5975C9.66675 11.5975 9.51233 11.4432 9.51233 11.2528C9.51233 10.4941 10.1834 9.05964 11.6824 7.56062C11.8176 7.43001 12.0328 7.43184 12.1658 7.56489C12.2987 7.6978 12.3007 7.91295 12.17 8.04829C10.8917 9.32652 10.202 10.6534 10.202 11.2528C10.202 11.4432 10.0476 11.5975 9.85718 11.5975Z" fill="#F5A585"/>
<path id="Vector_11" d="M10.5469 12.6328C10.3564 12.6328 10.202 12.4784 10.202 12.288C10.202 12.0976 10.3564 11.9431 10.5469 11.9431C10.7803 11.9431 11.3293 11.3442 11.7703 10.8625C12.2775 10.276 12.8375 9.73749 13.4435 9.25348C13.542 9.17963 13.6725 9.16391 13.7857 9.21228C13.8991 9.26065 13.978 9.36578 13.9926 9.48816C14.0074 9.61053 13.9558 9.73138 13.8573 9.80524C13.286 10.2642 12.7577 10.774 12.2789 11.3287C11.5851 12.0857 11.0838 12.6328 10.5469 12.6328Z" fill="#F5A585"/>
<path id="Vector_12" d="M8.47795 15.3914C8.34657 15.3922 8.22633 15.3182 8.16759 15.2007C7.5641 13.9939 6.00969 13.6635 5.99519 13.6603C5.81331 13.6185 5.6978 13.4394 5.73457 13.2564C5.77135 13.0735 5.94713 12.9529 6.131 12.9845C6.20821 12.9998 8.02751 13.3797 8.78618 14.8925C8.83958 14.9993 8.83394 15.1262 8.77107 15.2279C8.70836 15.3295 8.59743 15.3914 8.47795 15.3914Z" fill="#F5A585"/>
</g>
</g>
<defs>
<clipPath id="clip0_171_1675">
<rect width="20" height="20" fill="white" transform="translate(0 0.21875)"/>
</clipPath>
</defs>
</svg>
