<svg width="32" height="33" viewBox="0 0 32 33" fill="none" xmlns="http://www.w3.org/2000/svg">
<g id="fi_17554945">
<path id="Vector" d="M22.4249 1.01855H5.67355C4.55542 1.01855 3.64115 1.93276 3.64115 3.04748V25.4881C3.64115 26.6028 4.55542 27.517 5.67355 27.517H22.4249C23.5431 27.517 24.4572 26.6028 24.4572 25.3861V3.04748C24.4572 1.93276 23.5431 1.01855 22.4249 1.01855ZM13.898 21.3249C13.4902 19.4964 12.6779 17.8719 11.3593 16.6553C10.1392 15.4352 8.51469 14.521 6.68972 14.1165C8.51469 13.7087 10.1392 12.8965 11.3593 11.5778C12.5759 10.3578 13.4902 8.73326 13.898 6.90822C14.3024 8.73326 15.1147 10.3578 16.4367 11.5778C17.6534 12.7945 19.2779 13.7087 21.1063 14.1165C17.4495 14.8268 14.6083 17.668 13.898 21.3249Z" fill="#706C93"/>
<path id="Vector_2" d="M26.4047 4.92383C26.4081 4.94762 26.4081 4.97481 26.4081 4.99859V27.3372C26.4081 28.5539 25.4938 29.4681 24.3758 29.4681H7.62432C7.5971 29.4681 7.57329 29.4681 7.54616 29.4647C7.5835 30.5455 8.48076 31.4189 9.57508 31.4189H26.3264C27.4446 31.4189 28.3589 30.5047 28.3589 29.288V6.94937C28.3589 5.86183 27.4888 4.96461 26.4047 4.92383Z" fill="#706C93"/>
</g>
</svg>
