<svg width="32" height="33" viewBox="0 0 32 33" fill="none" xmlns="http://www.w3.org/2000/svg">
<g id="fi_3355849" clip-path="url(#clip0_190_27784)">
<g id="Group">
<path id="Vector" d="M0 19.9692H3.90725C4.06769 18.8629 4.49581 17.8514 5.1375 16.9949L2.45513 14.3125C1.15138 15.8756 0.194063 17.829 0 19.9692Z" fill="#706C93"/>
<path id="Vector_2" d="M10.375 25.5938C12.9638 25.5938 15.0625 23.4951 15.0625 20.9062C15.0625 18.3174 12.9638 16.2188 10.375 16.2188C7.78617 16.2188 5.6875 18.3174 5.6875 20.9062C5.6875 23.4951 7.78617 25.5938 10.375 25.5938Z" fill="#706C93"/>
<path id="Vector_3" d="M20.64 21.8438H16.8427C16.6823 22.9501 16.2542 23.9615 15.6125 24.8181L18.2949 27.5004C19.5986 25.9373 20.4459 23.9839 20.64 21.8438Z" fill="#706C93"/>
<path id="Vector_4" d="M2.45513 27.5004L5.1375 24.8181C4.49581 23.9615 4.06769 22.9501 3.90725 21.8438H0C0.194063 23.9839 1.15138 25.9373 2.45513 27.5004Z" fill="#706C93"/>
<path id="Vector_5" d="M6.46319 15.6691C7.31975 15.0274 8.33119 14.5993 9.4375 14.4389V10.6416C7.29731 10.8357 5.34394 11.683 3.78081 12.9867L6.46319 15.6691Z" fill="#706C93"/>
<path id="Vector_6" d="M18.2949 14.3125L15.6125 16.9949C16.2542 17.8514 16.6823 18.8629 16.8427 19.9692H20.64C20.4459 17.829 19.5986 15.8756 18.2949 14.3125Z" fill="#706C93"/>
<path id="Vector_7" d="M14.2868 26.1445C13.4303 26.7862 12.4188 27.2143 11.3125 27.3748V31.172C13.4527 30.978 15.4061 30.1306 16.9692 28.8269L14.2868 26.1445Z" fill="#706C93"/>
<path id="Vector_8" d="M9.4375 27.3748C8.33119 27.2143 7.31975 26.7862 6.46319 26.1445L3.78081 28.8269C5.34394 30.1306 7.29737 30.978 9.4375 31.172V27.3748Z" fill="#706C93"/>
<path id="Vector_9" d="M11.3125 14.4389C12.4188 14.5993 13.4303 15.0274 14.2868 15.6691L16.9692 12.9867C15.4061 11.683 13.4526 10.8357 11.3125 10.6416V14.4389Z" fill="#706C93"/>
<path id="Vector_10" d="M17.0212 10.7038C19.0552 12.0326 20.6647 13.9524 21.6139 16.2171C21.6177 16.2171 21.6213 16.2188 21.6251 16.2188C24.2096 16.2188 26.3126 14.1158 26.3126 11.5312C26.3126 8.94669 24.2096 6.84375 21.6251 6.84375C19.3238 6.84375 17.4144 8.51388 17.0212 10.7038Z" fill="#706C93"/>
<path id="Vector_11" d="M22.5625 5.06385C23.6688 5.22429 24.6802 5.65241 25.5368 6.2941L28.2192 3.61173C26.6561 2.30798 24.7027 1.46066 22.5625 1.2666V5.06385Z" fill="#706C93"/>
<path id="Vector_12" d="M31.9577 12.4688H28.0928C27.9323 13.5751 27.5042 14.5865 26.8625 15.4431L29.5205 18.1011C30.8216 16.5424 31.7615 14.6034 31.9577 12.4688Z" fill="#706C93"/>
<path id="Vector_13" d="M28.1941 19.4268L25.5368 16.7695C24.5897 17.4791 23.4504 17.924 22.2073 18.0357C22.4314 18.9581 22.5625 19.9165 22.5625 20.907C22.5625 21.2082 22.5389 21.5036 22.5173 21.7993C24.6736 21.6132 26.6202 20.737 28.1941 19.4268Z" fill="#706C93"/>
<path id="Vector_14" d="M11.6931 8.79314C12.9762 8.93183 14.1946 9.28077 15.3278 9.78727C15.5485 8.99327 15.9058 8.26245 16.3875 7.61939L13.731 4.96289C12.8073 6.07414 12.0883 7.36208 11.6931 8.79314Z" fill="#706C93"/>
<path id="Vector_15" d="M29.5449 4.9375L26.8625 7.61988C27.5042 8.47644 27.9323 9.48787 28.0928 10.5942H32C31.8059 8.454 30.8486 6.50063 29.5449 4.9375Z" fill="#706C93"/>
<path id="Vector_16" d="M17.7132 6.29379C18.5698 5.6521 19.5812 5.22398 20.6875 5.06354V1.29785C18.551 1.49379 16.6082 2.32679 15.0496 3.63016L17.7132 6.29379Z" fill="#706C93"/>
</g>
</g>
<defs>
<clipPath id="clip0_190_27784">
<rect width="32" height="32" fill="white" transform="translate(0 0.21875)"/>
</clipPath>
</defs>
</svg>
