<svg width="46" height="54" viewBox="0 0 46 54" fill="none" xmlns="http://www.w3.org/2000/svg">
<g id="Team Logo">
<path id="Vector" fill-rule="evenodd" clip-rule="evenodd" d="M21.4901 52.7069C17.5242 51.2571 13.6437 48.9117 10.3602 46.3105C7.71632 44.1783 5.24302 41.705 3.36672 38.8479C1.49042 35.9908 0.211138 32.6646 0.50964 29.2105C1.23457 20.6392 1.9595 12.068 2.68443 3.53932L2.98293 0H42.6411L42.9396 3.53932C43.7071 12.068 44.4321 20.6392 45.157 29.2105C45.4555 32.6646 44.1762 35.9908 42.2999 38.8479C40.4236 41.705 37.9503 44.1783 35.3064 46.3105C31.9803 48.9117 28.0997 51.2571 24.1339 52.7069L22.812 53.2186L21.4901 52.7069Z" fill="#FEBF2C"/>
<path id="Vector_2" fill-rule="evenodd" clip-rule="evenodd" d="M21.8312 51.7688C17.9933 50.3616 14.198 48.0589 10.9998 45.5003C8.44122 43.4534 6.01056 41.0654 4.21955 38.2936C2.47118 35.6497 1.27717 32.5367 1.53303 29.2959C2.25796 20.7246 2.9829 12.1533 3.70783 3.62467L3.92105 1.02344H41.7029L41.9587 3.62467C42.6837 12.1533 43.4086 20.7246 44.1335 29.2959C44.3894 32.5367 43.1954 35.6497 41.447 38.2936C39.656 41.0654 37.2253 43.4534 34.6667 45.5003C31.4685 48.0589 27.6306 50.3616 23.7927 51.7688L22.812 52.11L21.8312 51.7688Z" fill="#282828"/>
<path id="Vector_3" fill-rule="evenodd" clip-rule="evenodd" d="M22.1722 50.4467C18.5049 49.1247 14.795 46.822 11.7247 44.3914C9.29401 42.4724 6.94864 40.1697 5.24291 37.5685C3.66511 35.1378 2.55639 32.366 2.81225 29.4236C3.53719 20.895 4.26213 12.3237 4.98706 3.75245L5.07235 2.47314H40.2529L40.3809 3.75245C41.1058 12.3237 41.8307 20.895 42.5557 29.4236C42.8115 32.366 41.6602 35.1378 40.0824 37.5685C38.3766 40.1697 36.0313 42.4724 33.6006 44.3914C30.5729 46.822 26.8203 49.1247 23.153 50.4467L22.684 50.6173L22.1722 50.4467Z" fill="#ED323C"/>
<path id="Vector_4" fill-rule="evenodd" clip-rule="evenodd" d="M22.8119 49.0821C15.1788 46.3103 3.70775 37.5685 4.39004 29.5516L6.01047 10.1489H39.6559L41.2763 29.5516C41.9586 37.5685 30.4876 46.3103 22.8119 49.0821Z" fill="#282828"/>
<path id="Vector_5" fill-rule="evenodd" clip-rule="evenodd" d="M21.8312 19.7864C21.9592 19.7011 22.0444 19.6158 22.0871 19.5305C22.215 19.1894 22.3003 18.4644 22.4282 18.3365C22.5988 18.1659 22.6415 18.2939 22.6415 18.2939C22.6415 18.2939 22.8973 17.7822 23.0252 17.6969C23.1958 17.6542 23.1958 17.7822 23.1958 17.7822C23.1958 17.7822 23.4943 17.3984 23.8355 17.3557C24.134 17.3131 24.006 17.5263 24.006 17.5263C24.006 17.5263 24.731 17.441 25.0721 17.6969C25.4133 17.9527 25.2 17.9954 25.2 17.9954C25.2 17.9954 25.925 18.2939 26.0103 18.5497C26.0956 18.763 25.9676 18.7203 25.9676 18.7203C25.9676 18.7203 26.4367 19.3599 26.3514 19.5305C26.2661 19.6584 26.1382 19.6158 26.1382 19.6158C26.1382 19.6158 25.925 20.1275 25.8823 20.426C25.797 20.7245 25.7544 20.7672 25.6265 20.8098C25.4985 20.8951 25.4559 21.0231 25.4559 21.1937C25.4559 21.2789 25.4559 21.5348 25.3706 21.7054C25.4985 21.8333 25.6265 22.0039 25.7118 22.1744C26.0103 22.8567 26.2235 23.1126 26.6499 23.3258C27.119 23.539 28.0145 24.0507 28.5262 24.733C29.0379 25.4153 29.7202 26.0976 30.1466 26.055C30.6157 25.9697 31.1701 25.4579 31.4686 25.7564C31.7671 26.0123 31.9377 26.4387 31.895 26.4814C31.8097 26.524 32.0229 26.6946 31.9803 26.8225C31.895 26.9504 31.9377 27.3769 31.5112 27.3769C31.1274 27.3769 30.8716 27.2916 30.8716 27.2916C30.8716 27.2916 30.3172 27.4195 29.8908 27.1637C29.4644 26.9078 27.4601 25.6712 26.7778 25.458C26.0956 25.2448 25.2853 24.6477 25.0295 24.1787C24.8589 23.8802 24.5604 23.5816 24.1766 23.4111C23.9634 24.0507 23.537 24.8609 23.3237 25.33C23.0252 25.927 22.8547 27.3342 22.8547 27.8886C23.1105 28.0592 23.7502 27.9739 24.5177 28.0165C25.328 28.1018 26.6073 28.2298 27.6733 28.443C28.7821 28.6562 28.6541 29.7222 29.3364 30.4045C29.9761 31.0868 30.4451 32.025 30.701 32.7073C30.9142 33.3469 32.0656 34.6689 32.62 34.7541C33.217 34.8821 33.3449 34.5409 33.7713 33.9439C34.1551 33.3896 34.6668 33.0484 35.008 33.219C35.3491 33.3469 35.0933 33.9439 35.1359 34.0292C35.1359 34.1572 35.0933 34.1998 35.0506 34.2851C34.9653 34.413 34.88 34.5836 34.88 34.7115C34.88 34.8395 34.88 34.9247 34.7521 34.9247C34.6242 34.9673 34.4963 35.0953 34.4536 35.2658C34.4536 35.4364 34.3257 35.3938 34.0698 35.6497C33.814 35.9482 33.4728 36.6304 33.4728 36.801C33.4728 36.9716 33.3875 37.0142 33.3022 37.0568C33.2596 37.1421 33.2596 37.3128 33.217 37.4407C33.1743 37.5686 32.9185 37.5259 32.9185 37.5259C32.9185 37.5259 32.5773 37.7818 32.1935 37.5686C31.8097 37.3554 31.7244 36.9716 31.5539 36.5025C31.3833 36.0335 30.0187 34.4556 28.5688 33.2616C27.0763 32.1102 26.7778 31.0015 26.7778 31.0015C26.7778 31.0015 26.5646 30.9589 25.2 31.2574C24.603 31.3853 23.3664 31.897 22.0871 32.3235C22.0018 32.8778 21.4474 35.3085 20.0402 37.1848C18.4198 39.2744 18.0786 39.8287 17.1405 39.6581C16.245 39.4875 15.7333 39.0611 14.8378 38.4215C13.9422 37.7818 12.066 35.607 10.9999 35.2658C9.89116 34.9673 9.59265 35.0527 8.91036 35.1806C8.22807 35.3085 7.41785 35.6496 7.03407 35.4791C6.60763 35.3085 7.20464 34.9247 7.20464 34.9247C7.20464 34.9247 7.11935 34.7541 7.33257 34.6688C7.50314 34.6262 7.63106 34.6262 7.6737 34.4983C7.75899 34.3704 7.75899 34.2424 7.92957 34.1998C8.10014 34.1998 8.14279 34.2425 8.18543 34.1145C8.22808 33.9866 8.22807 33.9439 8.39864 33.9013C8.56922 33.9013 9.6353 33.1764 9.72059 33.0484C9.80587 32.9205 9.76323 32.7926 9.9338 32.8352C10.0617 32.8352 10.147 32.8352 10.1896 32.7073C10.2749 32.622 10.4029 32.4514 10.4882 32.4941C10.6161 32.4941 10.7014 32.5367 10.8719 32.5367C11.0852 32.5367 11.2557 32.6647 11.341 33.0484C11.4263 33.4322 11.4263 33.6028 11.6395 33.8586C11.8954 34.1145 13.6864 35.1379 14.8804 35.6923C16.0318 36.204 16.7567 37.0995 16.7567 37.0995C16.7567 37.0995 16.9699 36.801 17.0126 36.3746C17.0552 35.9055 17.1405 35.3511 17.5243 34.4556C17.8654 33.6028 18.036 33.1337 17.9507 32.1529C17.9081 32.1103 17.9081 32.1103 17.8654 32.0676C17.0552 30.703 17.3537 29.5517 17.6522 28.9121C17.6096 28.8268 17.6522 28.6988 17.6522 28.5709C17.7801 27.2916 18.5477 26.8225 18.036 24.2639C17.8654 24.2639 17.6522 24.3493 17.439 24.3919C17.1405 24.4772 16.9699 24.3066 16.9699 24.3066C16.9699 24.3066 16.5435 24.5624 15.6906 24.9036C14.8378 25.2447 14.7098 25.1594 13.3452 25.8844C11.9807 26.6519 9.55001 28.4003 9.3368 28.7841C9.08094 29.1679 8.78244 29.2105 8.56922 29.3384C8.39865 29.4664 8.22807 29.5517 8.14278 29.4238C8.05749 29.3385 7.71636 29.2958 7.80164 29.1679C7.92957 28.9973 8.10015 29.04 8.18543 29.04C8.31336 29.04 8.48393 28.8694 8.31336 28.8268C8.18543 28.7415 7.63107 28.9973 7.20464 29.1252C6.82085 29.2531 6.39441 29.3811 6.30912 29.2105C6.22384 29.04 6.43706 28.9547 6.7782 28.8268C7.0767 28.6988 7.50313 28.4856 7.46049 28.3577C7.41785 28.2724 6.7782 28.3151 6.39441 28.3151C6.01062 28.3577 5.92534 28.315 5.8827 28.1444C5.84006 28.0165 6.05328 28.0165 6.05328 28.0165C6.05328 28.0165 6.01063 27.9739 6.05328 27.8886C6.09592 27.8033 6.52235 27.7181 6.52235 27.7181C6.52235 27.7181 6.52234 27.6327 6.99141 27.4621C7.46049 27.2916 7.71635 27.4195 8.05749 27.3342C8.39864 27.2916 8.52657 27.249 8.91036 27.1637C9.29415 27.121 9.25151 26.9078 9.42209 26.8651C9.55002 26.7799 12.0233 24.9036 12.7482 24.4345C13.4732 23.9654 13.4732 24.0507 13.9849 23.7522C14.4966 23.4111 15.1789 22.9846 15.8186 22.7287C16.5008 22.4729 16.9699 22.1318 17.6096 21.4495C18.2066 20.8525 19.4859 20.4261 19.7417 20.3834L19.7844 20.3407C19.9123 20.2981 19.9976 20.2981 20.0829 20.2981C21.0637 20.2555 21.8312 19.8291 21.8312 19.7864Z" fill="#FEBF2C"/>
<path id="Vector_6" fill-rule="evenodd" clip-rule="evenodd" d="M37.6517 32.4939C38.8031 32.4939 39.7839 31.5132 39.7839 30.3618C39.7839 29.1678 38.8031 28.187 37.6517 28.187C36.4577 28.187 35.4769 29.1678 35.4769 30.3618C35.4769 31.5132 36.4577 32.4939 37.6517 32.4939Z" fill="#FEBF2C"/>
<path id="Vector_7" fill-rule="evenodd" clip-rule="evenodd" d="M39.6134 4.8185V8.18734H38.8032V6.14043L38.0783 8.18734H37.396L36.6284 6.14043V8.18734H35.8182V4.8185H36.799L37.7371 7.12126L38.6753 4.8185H39.6134ZM34.1551 6.95066L33.7713 5.71403L33.3449 6.95066H34.1551ZM34.3683 7.59034H33.1316L32.9184 8.18734H32.0656L33.3022 4.8185H34.2404L35.4344 8.18734H34.5815L34.3683 7.59034ZM30.5304 5.45818V6.14043H31.5965V6.78011H30.5304V7.50504H31.7671V8.18734H29.6776V4.8185H31.7671V5.45818H30.5304ZM29.2938 4.8185V5.45818H28.3983V8.18734H27.588V5.45818H26.6925V4.8185H29.2938ZM23.5369 6.31103H24.0487C24.2192 6.31103 24.3045 6.31102 24.3898 6.22573C24.4751 6.14044 24.5177 6.05515 24.5177 5.88458C24.5177 5.75665 24.4751 5.6714 24.3898 5.58611C24.3045 5.54347 24.2192 5.5008 24.0487 5.5008H23.5369V6.31103ZM24.4324 8.18734L23.7502 6.90804H23.5369V8.18734H22.7267V4.8185H24.0913C24.3472 4.8185 24.603 4.86114 24.7736 4.94642C24.9868 5.03171 25.1147 5.15969 25.2 5.33026C25.2853 5.50083 25.328 5.67136 25.328 5.88458C25.328 6.09779 25.2853 6.31101 25.1574 6.48158C25.0295 6.65215 24.8162 6.78013 24.603 6.86542L25.3706 8.18734H24.4324ZM20.9357 5.45818V6.14043H22.0444V6.78011H20.9357V7.50504H22.1724V8.18734H20.1255V4.8185H22.1724V5.45818H20.9357ZM16.3303 6.48158C16.3303 6.14043 16.4155 5.84197 16.5435 5.58611C16.714 5.33025 16.8846 5.11704 17.1405 4.98911C17.3963 4.86118 17.6948 4.77588 18.036 4.77588C18.4198 4.77588 18.7609 4.86113 19.0594 5.07435C19.3579 5.28756 19.5285 5.58609 19.6138 5.96988H18.7183C18.6756 5.79931 18.5477 5.71402 18.4624 5.62873C18.3345 5.54344 18.1639 5.5008 18.036 5.5008C17.7801 5.5008 17.5669 5.62877 17.3963 5.79934C17.2684 5.96991 17.1831 6.18308 17.1831 6.48158C17.1831 6.78008 17.2684 7.03593 17.3963 7.2065C17.5669 7.37708 17.7801 7.46242 18.036 7.46242C18.1639 7.46242 18.3345 7.41978 18.4624 7.33449C18.5477 7.29185 18.6756 7.16389 18.7183 7.03596H19.6138C19.5285 7.37711 19.3579 7.67559 19.0594 7.88881C18.7609 8.10203 18.4198 8.18734 18.036 8.18734C17.6948 8.18734 17.3963 8.14469 17.1405 7.97411C16.8846 7.84619 16.714 7.63297 16.5435 7.37711C16.4155 7.12125 16.3303 6.82272 16.3303 6.48158ZM12.7056 6.48158C12.7056 6.14043 12.7482 5.84197 12.9188 5.58611C13.0467 5.33025 13.2599 5.11704 13.5158 4.98911C13.7717 4.86118 14.0702 4.77588 14.3687 4.77588C14.7951 4.77588 15.1362 4.86113 15.3921 5.07435C15.6906 5.28756 15.8612 5.58609 15.9891 5.96988H15.0936C15.0083 5.79931 14.923 5.71402 14.7951 5.62873C14.6672 5.54344 14.5392 5.5008 14.3687 5.5008C14.1128 5.5008 13.8996 5.62877 13.7717 5.79934C13.6011 5.96991 13.5158 6.18308 13.5158 6.48158C13.5158 6.78008 13.6011 7.03593 13.7717 7.2065C13.8996 7.37708 14.1128 7.46242 14.3687 7.46242C14.5392 7.46242 14.6672 7.41978 14.7951 7.33449C14.923 7.29185 15.0083 7.16389 15.0936 7.03596H15.9891C15.8612 7.37711 15.6906 7.67559 15.3921 7.88881C15.1362 8.10203 14.7951 8.18734 14.3687 8.18734C14.0702 8.18734 13.7717 8.14469 13.5158 7.97411C13.2599 7.84619 13.0467 7.63297 12.9188 7.37711C12.7482 7.12125 12.7056 6.82272 12.7056 6.48158ZM10.6587 7.46242C10.9146 7.46242 11.1278 7.37708 11.2984 7.2065C11.4689 7.03593 11.5542 6.78008 11.5542 6.48158C11.5542 6.18308 11.4689 5.96987 11.2984 5.75665C11.1278 5.58608 10.9146 5.5008 10.6587 5.5008C10.3602 5.5008 10.147 5.58608 10.0191 5.75665C9.8485 5.92723 9.76321 6.18308 9.76321 6.48158C9.76321 6.78008 9.8485 7.03593 10.0191 7.2065C10.147 7.37708 10.3602 7.46242 10.6587 7.46242ZM10.6587 8.22996C10.3176 8.22996 10.0617 8.14469 9.76321 7.97411C9.50735 7.84619 9.29413 7.63297 9.1662 7.37711C8.99563 7.12125 8.91034 6.82272 8.91034 6.48158C8.91034 6.14043 8.99563 5.84197 9.1662 5.58611C9.29413 5.33025 9.50735 5.11704 9.76321 4.98911C10.0617 4.81854 10.3176 4.77588 10.6587 4.77588C10.9572 4.77588 11.2557 4.81854 11.5116 4.98911C11.7674 5.11704 11.9807 5.33025 12.1512 5.58611C12.2792 5.84197 12.3644 6.14043 12.3644 6.48158C12.3644 6.82272 12.2792 7.12125 12.1512 7.37711C11.9807 7.63297 11.7674 7.84619 11.5116 7.97411C11.2557 8.14469 10.9572 8.22996 10.6587 8.22996ZM7.33255 8.22996C7.07669 8.22996 6.86347 8.18733 6.65026 8.10204C6.47969 8.01675 6.30911 7.88884 6.18118 7.71827C6.0959 7.59034 6.0106 7.3771 6.0106 7.16388H6.90612C6.90612 7.29181 6.94876 7.37713 7.03405 7.46242C7.07669 7.50506 7.20463 7.54766 7.28991 7.54766C7.41784 7.54766 7.50313 7.50506 7.58841 7.46242C7.6737 7.41977 7.71634 7.33448 7.71634 7.24919C7.71634 7.1639 7.67369 7.0786 7.63105 7.03596C7.54576 6.99332 7.50312 6.95068 7.41784 6.90804C7.33255 6.86539 7.20461 6.82275 7.07668 6.78011C6.86347 6.69483 6.65026 6.65217 6.52233 6.56688C6.3944 6.52424 6.26647 6.39634 6.18118 6.26841C6.0959 6.14049 6.0106 5.96987 6.0106 5.75665C6.0106 5.45815 6.13854 5.2023 6.35176 5.03173C6.60762 4.86115 6.90611 4.77588 7.24726 4.77588C7.63105 4.77588 7.92955 4.86115 8.14276 5.03173C8.35598 5.2023 8.48391 5.45815 8.52655 5.75665H7.63105C7.63105 5.67137 7.58841 5.58609 7.50312 5.5008C7.41784 5.45816 7.33255 5.4155 7.20462 5.4155C7.11934 5.4155 7.03404 5.45816 6.9914 5.5008C6.90611 5.54345 6.90612 5.62875 6.90612 5.71403C6.90612 5.84196 6.94876 5.92724 7.03405 5.96988C7.16198 6.05517 7.2899 6.09782 7.54576 6.18311C7.75898 6.2684 7.92954 6.31105 8.05747 6.39634C8.1854 6.43898 8.31334 6.56688 8.39863 6.69481C8.52656 6.82274 8.5692 6.99331 8.5692 7.16388C8.5692 7.3771 8.52656 7.54769 8.39863 7.71827C8.31334 7.8462 8.18542 7.97413 7.9722 8.05942C7.80163 8.14471 7.58841 8.22996 7.33255 8.22996Z" fill="#282828"/>
<path id="Vector_8" fill-rule="evenodd" clip-rule="evenodd" d="M14.8377 13.7313C14.8377 13.4328 14.7951 13.2196 14.7524 13.049C14.6671 12.8784 14.5392 12.8358 14.326 12.8358C14.1128 12.8358 13.9848 12.8784 13.9422 13.049C13.8569 13.2196 13.8569 13.4328 13.8569 13.7313C13.8569 13.9445 13.8569 14.1151 13.8569 14.243C13.8995 14.3709 13.9422 14.4989 14.0275 14.5841C14.0701 14.6268 14.1981 14.6694 14.326 14.6694C14.4966 14.6694 14.5819 14.6268 14.6671 14.5841C14.7098 14.4989 14.7951 14.3709 14.7951 14.243C14.8377 14.1151 14.8377 13.9445 14.8377 13.7313ZM13.0893 13.7313C13.0893 13.2196 13.1746 12.8357 13.3878 12.5372C13.601 12.2387 13.8996 12.1108 14.326 12.1108C14.7951 12.1108 15.0936 12.2387 15.3068 12.5372C15.4773 12.8357 15.5626 13.2196 15.5626 13.7313C15.5626 14.243 15.4773 14.6694 15.3068 14.9679C15.0936 15.2664 14.7951 15.3944 14.326 15.3944C13.8996 15.3944 13.601 15.2664 13.3878 14.9679C13.1746 14.6694 13.0893 14.243 13.0893 13.7313ZM10.5307 14.7974C10.616 14.7121 10.6587 14.6694 10.6587 14.7121C10.9572 14.4562 11.1704 14.243 11.341 14.1151C11.5115 13.9445 11.6821 13.7739 11.7674 13.6033C11.8953 13.4327 11.938 13.3048 11.938 13.1342C11.938 13.0063 11.938 12.9211 11.8527 12.8358C11.81 12.7931 11.7248 12.7505 11.5968 12.7505C11.5115 12.7505 11.4262 12.7931 11.341 12.8784C11.2983 12.9637 11.2557 13.049 11.2557 13.2195H10.5307C10.5307 12.9637 10.5734 12.7505 10.7013 12.5799C10.7866 12.4093 10.9145 12.2814 11.0851 12.2388C11.2557 12.1535 11.4262 12.1108 11.6395 12.1108C11.9806 12.1108 12.2791 12.1961 12.4497 12.3667C12.6203 12.5373 12.7055 12.7931 12.7055 13.0916C12.7055 13.3901 12.6203 13.6886 12.3644 13.9445C12.1512 14.243 11.8953 14.4988 11.5542 14.7547H12.7482V15.3517H10.5307V14.7974Z" fill="#FEFEFE"/>
<path id="Vector_9" fill-rule="evenodd" clip-rule="evenodd" d="M32.9184 14.7974C33.0037 14.7121 33.0464 14.6694 33.0464 14.7121C33.3449 14.4562 33.5581 14.243 33.7286 14.1151C33.8992 13.9445 34.0272 13.7739 34.1551 13.6033C34.283 13.4327 34.3256 13.3048 34.3256 13.1342C34.3256 13.0063 34.283 12.9211 34.2404 12.8358C34.1977 12.7931 34.1124 12.7505 33.9845 12.7505C33.8566 12.7505 33.7713 12.7931 33.7286 12.8784C33.6434 12.9637 33.6434 13.049 33.6434 13.2195H32.8758C32.9184 12.9637 32.9611 12.7505 33.0464 12.5799C33.1743 12.4093 33.3022 12.2814 33.4728 12.2388C33.6434 12.1535 33.8139 12.1108 34.0271 12.1108C34.3683 12.1108 34.6241 12.1961 34.7947 12.3667C35.0079 12.5373 35.0932 12.7931 35.0932 13.0916C35.0932 13.3901 34.9653 13.6886 34.7521 13.9445C34.5389 14.243 34.283 14.4988 33.9419 14.7547H35.1359V15.3517H32.9184V14.7974ZM30.3598 14.7974C30.4878 14.7121 30.5304 14.6694 30.4878 14.7121C30.7863 14.4562 31.0421 14.243 31.2127 14.1151C31.3406 13.9445 31.5112 13.7739 31.5965 13.6033C31.7244 13.4327 31.8097 13.3048 31.8097 13.1342C31.8097 13.0063 31.7671 12.9211 31.7244 12.8358C31.6391 12.7931 31.5538 12.7505 31.4686 12.7505C31.3406 12.7505 31.2553 12.7931 31.1701 12.8784C31.1274 12.9637 31.0848 13.049 31.0848 13.2195H30.3598C30.3598 12.9637 30.4025 12.7505 30.5304 12.5799C30.6157 12.4093 30.7436 12.2814 30.9142 12.2388C31.0848 12.1535 31.298 12.1108 31.4686 12.1108C31.8524 12.1108 32.1082 12.1961 32.2788 12.3667C32.4493 12.5373 32.5346 12.7931 32.5346 13.0916C32.5346 13.3901 32.4494 13.6886 32.2361 13.9445C32.0229 14.243 31.7244 14.4988 31.3833 14.7547H32.5773V15.3517H30.3598V14.7974Z" fill="#FEFEFE"/>
<path id="Vector_10" fill-rule="evenodd" clip-rule="evenodd" d="M22.812 11.5562L23.4943 13.0487L25.1147 13.2192L23.9207 14.328L24.2618 15.9484L22.812 15.0955L21.4047 15.9484L21.7459 14.328L20.5519 13.2192L22.1723 13.0487L22.812 11.5562Z" fill="#FEBF2C"/>
</g>
</svg>
