<svg width="46" height="54" viewBox="0 0 46 54" fill="none" xmlns="http://www.w3.org/2000/svg">
<g id="Team Logo">
<path id="Vector" fill-rule="evenodd" clip-rule="evenodd" d="M0.651092 8.95502L6.53585 2.26008L7.04756 2.64385C7.51664 2.985 8.24157 3.28351 8.75329 3.45408C10.4164 4.05109 12.2074 4.2643 13.9558 4.17901C16.8981 4.09372 20.4802 2.30271 22.6976 0.383773L23.1667 0L23.6357 0.383773C25.8532 2.30271 29.4352 4.09372 32.3776 4.17901C34.126 4.2643 35.917 4.05109 37.58 3.45408C38.0918 3.28351 38.8167 2.985 39.2858 2.64385L39.7975 2.26008L45.6822 8.95502L45.4264 9.38148C44.1471 11.6416 42.9957 14.0296 43.2516 16.7161C43.4222 18.166 43.8912 19.6158 44.275 21.023C44.9147 23.1552 45.3837 25.2447 45.6822 27.5048C46.791 35.9055 44.9147 42.6857 36.9404 46.5236C34.2965 47.7603 31.5674 48.5279 28.8382 49.4234C27.2178 49.9777 24.7445 50.8306 23.7637 52.3231L23.1667 53.2186L22.5697 52.3231C21.5889 50.8306 19.0729 49.9777 17.4951 49.4234C14.766 48.5279 12.0368 47.7603 9.39293 46.5236C1.41867 42.6857 -0.45763 35.9055 0.651092 27.5048C0.949594 25.2447 1.41867 23.1552 2.05832 21.023C2.4421 19.6158 2.91118 18.166 3.08175 16.7161C3.33761 14.0296 2.18624 11.6416 0.906948 9.38148L0.651092 8.95502Z" fill="#FEFEFE"/>
<path id="Vector_2" fill-rule="evenodd" clip-rule="evenodd" d="M1.50389 9.04036L6.66371 3.19827C6.66371 3.19827 9.2223 5.07455 13.9983 4.90397C18.7317 4.7334 23.1666 0.895508 23.1666 0.895508C23.1666 0.895508 27.6015 4.7334 32.3349 4.90397C37.1109 5.07455 39.6695 3.19827 39.6695 3.19827L44.7867 9.04036C40.2239 17.0573 43.7632 18.1234 44.9999 27.5902C47.8996 49.8072 27.0471 46.0546 23.1666 51.9393C19.2861 46.0546 -1.56642 49.8072 1.33332 27.5902C2.56997 18.1234 6.10935 17.0573 1.50389 9.04036Z" fill="#2B2C2F"/>
<path id="Vector_3" fill-rule="evenodd" clip-rule="evenodd" d="M3.25242 9.21071C4.53171 11.6414 5.42722 14.1147 5.17136 16.9292C5.00079 18.507 4.53171 20.0421 4.06264 21.5773C3.46563 23.6668 3.03921 25.6283 2.7407 27.7605C2.27163 31.5557 2.31427 35.8201 4.23322 39.2315C5.5978 41.7475 7.77259 43.3679 10.3312 44.6045C12.8471 45.8412 15.5336 46.5235 18.1775 47.419C19.798 47.9734 21.7595 48.6983 23.1668 49.8496C24.574 48.6983 26.5356 47.9734 28.156 47.419C30.7999 46.5235 33.4864 45.8412 36.0024 44.6045C38.5609 43.3679 40.6931 41.7475 42.1003 39.2315C44.0193 35.8201 44.0619 31.5557 43.5928 27.7605C43.2943 25.6283 42.8253 23.6668 42.2709 21.5773C41.8018 20.0421 41.3327 18.507 41.1622 16.9292C40.8637 14.1147 41.8018 11.6414 43.0811 9.21071L39.3712 5.0317C37.2816 6.0125 34.3819 6.3963 32.2924 6.31101C29.2647 6.18308 25.7254 4.64795 23.1668 2.729C20.6082 4.64795 17.0688 6.18308 14.0411 6.31101C11.9516 6.3963 9.05189 6.0125 6.96237 5.0317L3.25242 9.21071Z" fill="#FEBF2C"/>
<path id="Vector_4" fill-rule="evenodd" clip-rule="evenodd" d="M4.91528 9.4243C6.10929 11.8123 6.83422 14.2857 6.57836 17.0575C6.40779 18.7632 5.89607 20.3409 5.427 22.004C4.87263 23.9656 4.40356 25.9272 4.1477 27.9741C3.67863 31.4282 3.67863 35.4366 5.427 38.5496C6.70629 40.8097 8.66787 42.2595 10.928 43.3256C13.4013 44.5196 16.0451 45.2446 18.6037 46.0974C20.1389 46.6091 21.7593 47.2062 23.1665 48.1017C24.5738 47.2062 26.1516 46.6091 27.7294 46.0974C30.288 45.2446 32.9318 44.5196 35.4051 43.3256C37.6652 42.2595 39.6268 40.8097 40.8635 38.5496C42.6545 35.4366 42.6545 31.4282 42.1854 27.9741C41.9295 25.9272 41.4605 23.9656 40.9061 22.004C40.437 20.3409 39.9253 18.7632 39.7547 17.0575C39.4989 14.2857 40.2238 11.8123 41.4178 9.4243L38.9872 6.69514C36.8976 7.46272 34.3817 7.80389 32.2495 7.7186C29.1792 7.59067 25.8104 6.18343 23.1665 4.43506C20.5227 6.18343 17.1539 7.59067 14.0836 7.7186C11.9514 7.80389 9.43545 7.46272 7.34594 6.69514L4.91528 9.4243Z" fill="#384890"/>
<path id="Vector_5" fill-rule="evenodd" clip-rule="evenodd" d="M23.1668 19.7865C16.8129 19.7865 11.6531 24.9036 11.6531 31.2574C11.6531 37.6113 16.8129 42.7711 23.1668 42.7711C29.5206 42.7711 34.6804 37.6113 34.6804 31.2574C34.6804 24.9036 29.5206 19.7865 23.1668 19.7865ZM23.1668 18.4219C30.2455 18.4219 36.0023 24.1787 36.0023 31.2574C36.0023 38.3788 30.2455 44.1357 23.1668 44.1357C16.088 44.1357 10.3312 38.3788 10.3312 31.2574C10.3312 24.1787 16.088 18.4219 23.1668 18.4219Z" fill="#FEBF2C"/>
<path id="Vector_6" fill-rule="evenodd" clip-rule="evenodd" d="M15.6189 17.4412C15.7895 17.2707 16.0027 17.1001 16.2586 17.0148C16.4291 16.9721 16.5997 16.9721 16.7276 17.0148C17.0688 16.9721 17.4099 16.9722 17.7084 16.9722C18.0922 17.0575 18.5187 17.1854 18.7319 17.5265C19.1583 17.6971 19.67 17.953 19.798 18.3794C19.8406 18.5073 19.8832 18.5926 19.8406 18.7206C20.0965 19.0617 20.267 19.4455 20.0538 19.8293C19.9685 19.9145 19.9259 19.9998 19.8406 20.0851C20.267 20.0851 20.7787 20.2131 21.2052 20.2557C21.5037 20.2557 21.8448 20.2984 22.1433 20.2557C22.3992 20.2557 22.6977 20.213 22.9962 20.1704C23.2947 20.1278 23.5932 20.1278 23.8491 20.2983C23.8917 20.341 23.9343 20.3836 23.977 20.4263C23.977 20.4263 23.977 20.4263 24.0196 20.4263C24.5313 20.5968 24.9578 20.8527 25.0004 21.4497C25.0431 21.9614 24.7446 22.3452 24.2755 22.3452C24.2755 22.729 24.0196 23.0701 23.5932 23.1128C23.1241 23.1981 22.5698 22.8996 22.2713 22.5158C22.1007 22.5584 21.8022 22.6437 21.6743 22.6437C20.992 22.8996 20.1391 23.2834 19.3715 23.3686C19.2862 24.1362 19.1583 25.7566 19.3289 26.2683C19.4142 26.5242 19.4142 26.7801 19.4995 26.9933C19.5421 27.0359 19.6274 27.1212 19.67 27.1639C20.1391 27.5903 20.6508 28.102 20.7361 28.699C21.0346 28.827 21.2905 28.9122 21.5463 28.9975C22.4418 29.2107 23.2094 29.6798 23.977 30.1915C24.2755 30.4047 24.7446 30.7459 24.9151 31.1297C25.2989 31.3002 25.768 31.5135 26.0239 31.8546C26.2371 32.0679 26.4076 32.1531 26.6635 32.2384C27.3458 32.3664 28.5398 33.006 29.0089 33.475C29.2221 33.6883 30.1602 34.4559 30.4161 34.4985C30.5014 34.4985 30.7146 34.4132 30.7999 34.3706C31.141 33.8589 31.5248 33.4324 32.1645 33.475C32.8468 33.475 33.1879 34.072 33.2305 34.669C33.3585 34.9249 33.3585 35.2234 33.2305 35.4367C33.1879 35.4793 33.1453 35.5219 33.1026 35.5646C33.1453 35.8204 33.0173 36.0337 32.8041 36.1616C32.7615 36.2042 32.7188 36.2469 32.6762 36.2469C32.6762 36.2895 32.6762 36.3748 32.6335 36.4174C32.6762 36.5454 32.7188 36.588 32.7188 36.7586C32.6762 36.8439 32.6335 36.9718 32.5909 37.0571C32.6335 37.3982 32.463 37.6541 32.1218 37.8247C31.738 38.0379 31.4395 38.0379 31.0131 37.91C30.9705 37.91 30.9278 37.9099 30.8425 37.8673C30.5014 37.7394 30.2882 37.4835 30.0323 37.2277C29.7338 36.9718 29.4353 36.8012 29.0942 36.6733C28.8383 36.5453 28.5398 36.4601 28.2413 36.3321C27.5164 36.1189 26.4503 35.8204 25.8533 35.394C25.5974 35.2234 24.7019 34.5838 24.4461 34.5411C23.7638 34.5411 23.2521 34.0721 22.655 33.9441C22.3139 33.9015 21.9728 33.8588 21.6316 33.8162C21.3331 33.7736 20.7787 33.6456 20.4802 33.6883C20.4802 33.6883 20.4802 33.6883 20.4376 33.6883C20.6935 34.2 20.864 34.7544 21.0346 35.3087C21.2052 35.8204 21.3758 35.991 21.7169 36.3748C21.8448 36.588 22.058 36.9291 22.2286 37.0571C22.5698 37.3129 22.7403 37.5688 22.9109 37.9526C23.0388 38.2511 23.1668 38.2938 23.4226 38.507C24.0196 38.8908 24.4887 39.4451 24.9578 39.9994C25.2136 40.2979 26.0239 41.0229 26.4076 41.1082C26.7061 41.1935 26.9194 41.2787 27.1326 41.5346C27.5164 41.6625 27.7296 41.8331 28.0707 42.0464C28.156 42.089 28.2413 42.1316 28.3266 42.1743C28.8383 42.3449 29.2221 42.4728 29.6485 42.7713C30.7999 43.6241 30.2455 45.2446 28.7957 45.2019C28.3266 45.1593 27.9428 45.0313 27.559 44.8181C27.2179 44.6476 26.962 44.4343 26.6635 44.2211C26.4929 44.0932 26.365 43.9653 26.1944 43.8374C26.0239 43.7094 25.768 43.6242 25.5974 43.5815C25.3416 43.4536 25.1283 43.3257 24.9578 43.1124C24.7019 42.8566 23.6358 42.3022 23.252 42.089C22.8683 41.8758 22.4418 41.6625 22.058 41.4067C21.589 41.1508 21.1625 40.8097 20.864 40.3833C20.7361 40.2127 20.6508 39.9994 20.5229 39.7862C20.3523 39.7009 20.267 39.6583 20.0965 39.4451C20.0112 39.3598 19.8832 39.2319 19.7553 39.1466C19.5421 38.9334 19.4568 38.7628 19.1583 38.6349C18.9025 38.507 18.6892 38.2937 18.476 38.0805C18.3907 38.0379 18.3054 37.9099 18.2628 37.8673C18.1775 37.8673 18.1349 37.8247 18.0496 37.8247C17.6232 37.6967 17.3247 37.5261 17.0688 37.1424C16.685 36.5454 16.2159 35.9483 15.7895 35.394C15.491 35.0102 15.2351 34.669 14.9366 34.3279C14.7234 34.0294 14.5102 33.7309 14.3823 33.3897C13.5294 33.2618 12.5486 32.7928 12.3354 31.8546C12.2928 31.5988 12.2501 31.3429 12.1648 31.087C12.0795 30.7885 11.9516 30.5327 11.8663 30.2768C11.4825 29.4239 10.7576 28.2299 11.2267 27.3344C11.2693 27.2491 11.312 27.1639 11.3546 27.0786C11.0988 26.9933 10.7576 26.908 10.587 26.7801C10.3312 26.5669 10.118 26.3536 10.0753 26.0125C10.0327 25.6287 10.2032 25.2875 10.2032 24.8611C10.2032 24.1362 10.5017 23.3686 10.8429 22.729C11.2267 22.0893 11.6531 21.7056 12.2075 21.2365C12.2928 21.1086 12.4207 21.0659 12.5486 20.9806C12.6339 20.938 12.7618 20.8527 12.8898 20.81C13.4015 20.6395 13.4015 20.213 14.1264 20.1704C14.2117 20.1704 14.297 20.1704 14.4249 20.1704C14.4249 20.1278 14.4249 20.0425 14.4249 19.9572C14.3823 19.3602 14.5102 18.2515 14.9366 17.7824C15.1072 17.6118 15.3204 17.4412 15.6189 17.4412Z" fill="#384890"/>
<path id="Vector_7" fill-rule="evenodd" clip-rule="evenodd" d="M20.0537 29.1678C20.3522 29.2957 20.8213 29.4663 21.3756 29.6368C22.1858 29.8501 22.9534 30.3191 23.5931 30.7455C24.2327 31.2146 24.318 31.4278 24.318 31.4278C24.318 31.4278 24.3606 31.6411 24.6591 31.769C24.9576 31.8543 25.2988 32.0675 25.512 32.2807C25.7252 32.5366 26.0664 32.7924 26.5354 32.8777C27.0045 33.0056 28.1132 33.56 28.5397 33.9865C29.0087 34.3702 29.9042 35.0952 30.288 35.1805C30.6718 35.2231 31.2262 34.9246 31.3541 34.754C31.482 34.5834 31.7379 34.1144 32.1643 34.157C32.5481 34.157 32.5908 34.8819 32.5908 34.8819C32.5908 34.8819 32.6761 35.0099 32.6334 35.0952C32.5908 35.1804 32.4202 35.2231 32.4202 35.351C32.3775 35.4363 32.5055 35.5643 32.4202 35.6495C32.3349 35.6922 32.1643 35.7348 32.079 35.9054C32.0364 36.1186 31.9511 36.4171 31.9938 36.545C31.9938 36.6303 32.0791 36.673 31.9938 36.7156C31.9085 36.8009 31.9085 36.9714 31.9085 37.0567C31.9511 37.142 31.9085 37.142 31.8232 37.1847C31.7379 37.2273 31.6526 37.3979 31.1835 37.2699C30.7145 37.142 30.4586 36.5024 29.3499 36.0333C28.2412 35.5642 26.7913 35.2657 26.2369 34.8393C25.6826 34.4555 24.915 33.9011 24.4886 33.8585C24.0195 33.8585 23.4651 33.3894 22.7402 33.3042C22.0579 33.1762 20.5654 32.963 20.3522 33.0056C20.2243 33.0483 19.8405 33.0909 19.3288 33.0483C19.3714 33.0909 19.3714 33.1336 19.414 33.1762C19.8405 33.7732 20.139 34.7966 20.3948 35.5215C20.608 36.2465 20.9065 36.4597 21.1624 36.8009C21.4609 37.1846 21.5462 37.3979 21.8021 37.6111C22.1006 37.8243 22.1858 37.9522 22.3138 38.2081C22.4417 38.5066 22.4843 38.6771 23.0387 39.0609C23.5931 39.4447 24.0621 39.9565 24.4459 40.4255C24.7871 40.8946 25.6826 41.6195 26.1943 41.7475C26.7487 41.918 26.5781 42.046 26.9192 42.1739C27.2177 42.2592 27.2177 42.3445 27.6868 42.643C28.1985 42.9415 28.7102 42.9415 29.2646 43.3253C29.7763 43.709 29.7337 44.5193 28.7955 44.5193C27.8574 44.4766 26.9619 43.5385 26.5781 43.2826C26.1943 43.0268 25.7679 43.0268 25.4694 42.6856C25.1709 42.3445 23.4225 41.4063 22.3991 40.8093C21.3756 40.255 21.2477 39.7006 21.0771 39.4021C20.9492 39.1462 20.8213 39.2742 20.6507 39.0183C20.4375 38.8051 20.3948 38.8477 20.2243 38.6772C20.0537 38.4639 19.9258 38.2508 19.4993 38.0375C19.0729 37.8243 18.7744 37.3552 18.4759 37.2273C18.1774 37.142 17.9215 37.1847 17.623 36.7582C17.3672 36.3744 16.2158 34.7967 15.4482 33.9012C15.1924 33.56 14.9792 33.1336 14.8512 32.7498L14.8086 32.7924C14.8086 32.7924 13.2308 32.6218 13.0176 31.7263C12.8044 30.7882 12.847 30.9161 12.4632 29.978C12.0794 29.0825 11.5677 28.187 11.8236 27.6326C11.9515 27.4194 12.1221 27.0356 12.25 26.5665C11.653 26.4386 11.1413 26.3533 10.9707 26.2254C10.5443 25.9269 10.8854 25.5005 10.8854 24.9034C10.8854 24.3064 11.0986 23.6668 11.4398 23.0698C11.7809 22.4728 12.0794 22.2596 12.6764 21.7052C12.7191 21.6626 12.8044 21.6199 12.847 21.5773C12.9323 21.5346 13.0602 21.492 13.1455 21.4494C13.6999 21.2361 13.7425 20.895 14.1263 20.8524C14.2542 20.8524 14.5527 20.8523 14.9365 20.895C15.0218 20.6391 15.1071 20.17 15.1071 19.9568C15.1071 19.6583 15.1497 18.5496 15.4482 18.2511C15.7041 17.91 15.7894 18.2511 15.7894 18.2511C15.7894 18.2511 16.1732 17.7394 16.429 17.6967C16.6849 17.6115 16.5996 17.8247 16.5996 17.8247C16.5996 17.8247 16.8554 17.5688 17.623 17.6541C18.348 17.7394 18.0921 18.0379 18.0921 18.0379C18.0921 18.0379 19.0729 18.3364 19.1582 18.5923C19.2435 18.8481 18.9876 18.8054 18.9876 18.8054C18.9876 18.8054 19.5846 19.3172 19.4567 19.4877C19.3714 19.6583 19.2008 19.6584 19.2008 19.6584C19.2008 19.6584 19.0729 20.0421 19.1155 20.2554C19.2008 20.5112 19.2008 20.5538 19.0302 20.6391C18.945 20.6818 18.9023 20.7244 18.8597 20.7671C19.0729 20.7671 19.3714 20.8097 19.6273 20.7671C20.011 20.7244 21.4183 21.0229 22.1858 20.9376C22.9961 20.8523 23.2946 20.7671 23.4225 20.8524C23.5931 20.9803 23.5078 20.9803 23.8063 21.1082C24.1048 21.1935 24.318 21.2361 24.318 21.492C24.318 21.7052 24.318 21.7052 24.1048 21.6625C23.9342 21.6199 23.5078 21.6199 23.5504 21.8758C23.5931 22.089 23.721 22.4301 23.4651 22.4301C23.2093 22.4728 22.8255 22.2169 22.7402 22.0464C22.6123 21.8331 22.0579 21.7905 21.4609 22.0464C20.8213 22.2596 19.6273 22.8139 18.945 22.686C18.8597 22.6433 18.7744 22.6434 18.6891 22.6434C18.7317 22.7713 18.7744 22.8992 18.7317 23.0698C18.6465 23.752 18.4759 25.7989 18.6891 26.4812C18.9023 27.1635 18.7744 27.2488 19.2008 27.6752C19.6699 28.059 20.2243 28.5707 20.0537 29.1251C20.0537 29.1251 20.0537 29.1251 20.0537 29.1678Z" fill="#FEFEFE"/>
<path id="Vector_8" fill-rule="evenodd" clip-rule="evenodd" d="M31.61 28.8693C32.676 28.7413 33.6568 29.5515 33.7848 30.6603C33.8701 31.7263 33.1025 32.7072 31.9938 32.8351C30.885 32.963 29.9042 32.1528 29.819 31.0441C29.691 29.978 30.5012 28.9972 31.61 28.8693Z" fill="#FEFEFE"/>
<path id="Vector_9" fill-rule="evenodd" clip-rule="evenodd" d="M36.7272 14.2853C36.8551 14.2853 36.9404 14.2427 36.983 14.2C37.0683 14.1147 37.111 14.0295 37.111 13.9442C37.111 13.8589 37.0683 13.7736 36.983 13.6883C36.9404 13.6457 36.8125 13.603 36.6845 13.603H36.1728V14.2853H36.7272ZM36.1728 13.0913H36.6419C36.7698 13.0913 36.8551 13.0487 36.9404 13.006C36.983 12.9207 37.0257 12.8781 37.0257 12.7502C37.0257 12.6649 36.983 12.5796 36.9404 12.5369C36.8551 12.4517 36.7698 12.4517 36.6419 12.4517H36.1728V13.0913ZM37.2815 13.3045C37.4521 13.3472 37.5801 13.4325 37.6653 13.5604C37.7933 13.731 37.8359 13.8589 37.8359 14.0295C37.8359 14.2853 37.7506 14.4985 37.58 14.6265C37.4095 14.797 37.1536 14.8397 36.8551 14.8397H35.4479V11.8547H36.8125C37.111 11.8547 37.3242 11.9399 37.4948 12.0679C37.6653 12.1958 37.7933 12.409 37.7933 12.6222C37.7933 12.7928 37.708 12.9634 37.6227 13.0913C37.5374 13.1766 37.4095 13.2619 37.2815 13.3045ZM33.1452 11.8547V13.6457C33.1452 13.8163 33.1878 13.9868 33.2731 14.0721C33.3584 14.1574 33.4863 14.2 33.6569 14.2C33.8275 14.2 33.9554 14.1574 34.0407 14.0721C34.1686 13.9868 34.2112 13.8163 34.2112 13.6457V11.8547H34.9362V13.6457C34.9362 13.9016 34.8509 14.1574 34.7656 14.328C34.6377 14.4986 34.5097 14.6691 34.2965 14.7544C34.126 14.8397 33.8701 14.8823 33.6569 14.8823C33.401 14.8823 33.1878 14.8397 33.0172 14.7544C32.8467 14.6691 32.6761 14.4986 32.5908 14.328C32.4629 14.1574 32.4202 13.9016 32.4202 13.6457V11.8547H33.1452ZM31.0983 14.2853H32.0791V14.8397H30.3734V11.8547H31.0983V14.2853ZM27.0046 13.3472C27.0046 13.0487 27.0472 12.7928 27.1751 12.5796C27.3031 12.3238 27.4736 12.1532 27.7295 12.0252C27.9427 11.8973 28.1986 11.812 28.4971 11.812C28.8808 11.812 29.1794 11.8973 29.4352 12.1105C29.6911 12.2811 29.8616 12.5369 29.9469 12.8781H29.1367C29.0514 12.7502 28.9661 12.6649 28.8808 12.5796C28.7529 12.537 28.625 12.4943 28.4971 12.4943C28.2838 12.4943 28.0706 12.5796 27.9427 12.7075C27.8148 12.8781 27.7295 13.0913 27.7295 13.3472C27.7295 13.603 27.8148 13.8163 27.9427 13.9869C28.0706 14.1574 28.2838 14.2 28.4971 14.2C28.625 14.2 28.7529 14.2001 28.8808 14.1148C28.9661 14.0721 29.0514 13.9442 29.1367 13.8162H29.9469C29.8616 14.1574 29.6911 14.4133 29.4352 14.5839C29.1794 14.7971 28.8808 14.8823 28.4971 14.8823C28.1986 14.8823 27.9427 14.797 27.7295 14.6691C27.4736 14.5412 27.3031 14.3706 27.1751 14.1574C27.0472 13.9015 27.0046 13.6457 27.0046 13.3472ZM24.1475 13.2192H24.6165C24.7445 13.2192 24.8298 13.1766 24.915 13.0913C24.9577 13.0487 25.0003 12.9634 25.0003 12.8355C25.0003 12.7075 24.9577 12.6223 24.915 12.5796C24.8298 12.4943 24.7445 12.4517 24.6165 12.4517H24.1475V13.2192ZM24.9577 14.8397L24.318 13.731H24.1475V14.8397H23.4225V11.8547H24.6592C24.8724 11.8547 25.0856 11.8973 25.2562 11.9826C25.4268 12.0679 25.5547 12.1958 25.64 12.3238C25.7253 12.4517 25.7679 12.6223 25.7679 12.7929C25.7679 13.0061 25.6826 13.1766 25.5973 13.3472C25.4694 13.4751 25.2988 13.603 25.0856 13.6883L25.7679 14.8397H24.9577ZM21.8447 12.4517V13.0487H22.8255V13.603H21.8447V14.2853H22.9535V14.8397H21.1198V11.8547H22.9535V12.4517H21.8447ZM17.7083 13.3472C17.7083 13.0487 17.7936 12.7928 17.9216 12.5796C18.0495 12.3238 18.2201 12.1532 18.4333 12.0252C18.6891 11.8973 18.945 11.812 19.2435 11.812C19.5846 11.812 19.8831 11.8973 20.139 12.1105C20.3949 12.2811 20.5654 12.5369 20.6507 12.8781H19.8405C19.7979 12.7502 19.7126 12.6649 19.5846 12.5796C19.4994 12.537 19.3714 12.4943 19.2009 12.4943C18.9876 12.4943 18.8171 12.5796 18.6891 12.7075C18.5186 12.8781 18.4759 13.0913 18.4759 13.3472C18.4759 13.603 18.5186 13.8163 18.6891 13.9869C18.8171 14.1574 18.9876 14.2 19.2009 14.2C19.3714 14.2 19.4994 14.2001 19.5846 14.1148C19.7126 14.0721 19.7979 13.9442 19.8405 13.8162H20.6507C20.5654 14.1574 20.3949 14.4133 20.139 14.5839C19.8831 14.7971 19.5846 14.8823 19.2435 14.8823C18.945 14.8823 18.6891 14.797 18.4333 14.6691C18.2201 14.5412 18.0495 14.3706 17.9216 14.1574C17.7936 13.9015 17.7083 13.6457 17.7083 13.3472ZM14.4675 13.3472C14.4675 13.0487 14.5101 12.7928 14.638 12.5796C14.766 12.3238 14.9365 12.1532 15.1924 12.0252C15.4056 11.8973 15.6615 11.812 15.96 11.812C16.3011 11.812 16.6423 11.8973 16.8981 12.1105C17.154 12.2811 17.3246 12.5369 17.4098 12.8781H16.5996C16.5143 12.7502 16.4291 12.6649 16.3438 12.5796C16.2158 12.537 16.0879 12.4943 15.96 12.4943C15.7468 12.4943 15.5335 12.5796 15.4056 12.7075C15.2777 12.8781 15.1924 13.0913 15.1924 13.3472C15.1924 13.603 15.2777 13.8163 15.4056 13.9869C15.5335 14.1574 15.7468 14.2 15.96 14.2C16.0879 14.2 16.2158 14.2001 16.3438 14.1148C16.4291 14.0721 16.5143 13.9442 16.5996 13.8162H17.4098C17.3246 14.1574 17.154 14.4133 16.8981 14.5839C16.6423 14.7971 16.3011 14.8823 15.96 14.8823C15.6615 14.8823 15.4056 14.797 15.1924 14.6691C14.9365 14.5412 14.766 14.3706 14.638 14.1574C14.5101 13.9015 14.4675 13.6457 14.4675 13.3472ZM12.6338 14.2427C12.8897 14.2427 13.0602 14.1574 13.1882 13.9869C13.3587 13.8163 13.444 13.603 13.444 13.3472C13.444 13.0913 13.3587 12.8781 13.1882 12.7075C13.0602 12.537 12.8897 12.4943 12.6338 12.4943C12.378 12.4943 12.2074 12.537 12.0368 12.7075C11.9089 12.8781 11.8236 13.0913 11.8236 13.3472C11.8236 13.603 11.9089 13.8163 12.0368 13.9869C12.2074 14.1574 12.378 14.2427 12.6338 14.2427ZM12.6338 14.8823C12.3353 14.8823 12.0795 14.8397 11.8662 14.7118C11.6104 14.5838 11.4398 14.3706 11.3119 14.1574C11.1413 13.9015 11.0987 13.6457 11.0987 13.3472C11.0987 13.0487 11.1413 12.7928 11.3119 12.5369C11.4398 12.3237 11.6104 12.1532 11.8662 12.0252C12.0795 11.8973 12.3353 11.812 12.6338 11.812C12.9323 11.812 13.1882 11.8973 13.4014 12.0252C13.6572 12.1532 13.8278 12.3237 13.9558 12.5369C14.0837 12.7928 14.169 13.0487 14.169 13.3472C14.169 13.6457 14.0837 13.9015 13.9558 14.1574C13.8278 14.3706 13.6572 14.5838 13.4014 14.7118C13.1882 14.8397 12.9323 14.8823 12.6338 14.8823ZM9.64879 14.8823C9.43558 14.8823 9.265 14.8397 9.09443 14.7971C8.88122 14.7118 8.75329 14.6265 8.668 14.4559C8.54007 14.328 8.49743 14.1574 8.49743 13.9442H9.265C9.265 14.0721 9.30765 14.1574 9.39293 14.2C9.43558 14.2853 9.52086 14.2853 9.64879 14.2853C9.73408 14.2853 9.81937 14.2853 9.90465 14.2427C9.9473 14.2001 9.98994 14.1148 9.98994 14.0295C9.98994 13.9442 9.98994 13.9016 9.90465 13.8589C9.86201 13.7736 9.81937 13.731 9.73408 13.731C9.6488 13.6884 9.56351 13.6457 9.43558 13.603C9.22236 13.5604 9.05179 13.4751 8.9665 13.4325C8.83857 13.3898 8.71065 13.2619 8.62536 13.1766C8.54007 13.0487 8.49743 12.8781 8.49743 12.7075C8.49743 12.409 8.58272 12.1958 8.79593 12.0679C9.00915 11.8973 9.265 11.812 9.60615 11.812C9.94729 11.812 10.2032 11.8973 10.4164 12.0679C10.5869 12.1958 10.7149 12.409 10.7149 12.7075H9.94729C9.90465 12.6223 9.90465 12.537 9.81937 12.4943C9.77672 12.409 9.69144 12.409 9.56351 12.409C9.47822 12.409 9.39294 12.4091 9.35029 12.4517C9.30765 12.537 9.265 12.5796 9.265 12.6649C9.265 12.7502 9.30765 12.8355 9.39293 12.9208C9.52086 12.9634 9.64879 13.006 9.81937 13.0913C10.0326 13.134 10.2032 13.2193 10.3311 13.2619C10.4164 13.3046 10.5443 13.3898 10.6296 13.5178C10.7149 13.6457 10.7575 13.7736 10.7575 13.9869C10.7575 14.1574 10.7149 14.2853 10.6296 14.4132C10.5443 14.5838 10.4164 14.6691 10.2458 14.7544C10.0752 14.8397 9.90465 14.8823 9.64879 14.8823Z" fill="#FEFEFE"/>
<path id="Vector_10" fill-rule="evenodd" clip-rule="evenodd" d="M23.1668 6.65234L23.7638 7.5905L24.8299 7.84635L24.1049 8.6992L24.1902 9.85058L23.1668 9.42412L22.1433 9.85058L22.2286 8.6992L21.4611 7.84635L22.5698 7.5905L23.1668 6.65234Z" fill="#FEFEFE"/>
</g>
</svg>
