<svg width="65" height="64" viewBox="0 0 65 64" fill="none" xmlns="http://www.w3.org/2000/svg">
<g id="fi_12129584">
<path id="Vector" d="M51.4988 41.9994H48.4988C47.7091 41.9904 46.9547 41.6703 46.3994 41.1087C45.8442 40.547 45.5327 39.7891 45.5327 38.9993C45.5327 38.2095 45.8441 37.4516 46.3994 36.8899C46.9547 36.3282 47.709 36.0082 48.4988 35.9992H57.499C57.764 35.9984 58.0179 35.8928 58.2052 35.7054C58.3926 35.518 58.4982 35.2642 58.499 34.9992V30.999C58.4982 30.7341 58.3926 30.4802 58.2052 30.2928C58.0179 30.1054 57.764 29.9998 57.499 29.999H48.4987C47.316 29.9978 46.1446 30.2297 45.0516 30.6814C43.9585 31.1332 42.9652 31.7959 42.1284 32.6318C41.2917 33.4677 40.6279 34.4603 40.175 35.5529C39.7221 36.6454 39.489 37.8166 39.489 38.9993C39.489 40.182 39.7221 41.3532 40.175 42.4458C40.6279 43.5383 41.2917 44.5309 42.1284 45.3668C42.9652 46.2027 43.9585 46.8655 45.0516 47.3172C46.1446 47.7689 47.316 48.0008 48.4987 47.9996H51.4987C52.2885 48.0086 53.0428 48.3286 53.5981 48.8903C54.1534 49.4519 54.4648 50.2098 54.4649 50.9996C54.4649 51.7894 54.1534 52.5474 53.5982 53.1091C53.0429 53.6707 52.2885 53.9908 51.4988 53.9998H42.4985C42.2336 54.0006 41.9797 54.1062 41.7923 54.2935C41.6049 54.4809 41.4993 54.7348 41.4985 54.9998V58.9999C41.4993 59.2649 41.6049 59.5188 41.7923 59.7062C41.9797 59.8935 42.2336 59.9991 42.4985 59.9999H51.4988C52.6816 60.0012 53.8529 59.7693 54.946 59.3175C56.0391 58.8658 57.0324 58.203 57.8691 57.3672C58.7059 56.5313 59.3697 55.5387 59.8226 54.4461C60.2755 53.3535 60.5086 52.1824 60.5086 50.9996C60.5086 49.8169 60.2755 48.6458 59.8226 47.5532C59.3697 46.4606 58.7059 45.468 57.8691 44.6321C57.0324 43.7963 56.0391 43.1335 54.946 42.6818C53.8529 42.23 52.6816 41.9981 51.4988 41.9994Z" fill="#F0F0F0"/>
<path id="Vector_2" d="M15.8477 33.6292L25.258 6.51843C25.3009 6.39239 25.3183 6.25911 25.3092 6.1263C25.3002 5.99349 25.2649 5.86379 25.2054 5.74472C25.1458 5.62566 25.0633 5.51959 24.9624 5.43267C24.8616 5.34575 24.7445 5.2797 24.618 5.23836L20.7979 4.04836C20.5459 3.97022 20.2733 3.99466 20.0392 4.11637C19.8052 4.23807 19.6286 4.44721 19.5479 4.69836L14.9077 19.5388L10.2676 4.69836C10.1864 4.44749 10.0098 4.23865 9.77589 4.11701C9.54196 3.99536 9.26955 3.9707 9.01758 4.04836L5.19745 5.23836C5.07092 5.27971 4.95386 5.34576 4.85304 5.43268C4.75223 5.51961 4.66966 5.62567 4.61013 5.74474C4.5506 5.8638 4.5153 5.99349 4.50625 6.1263C4.49721 6.25911 4.51461 6.39239 4.55745 6.51843L13.9577 33.6292C14.0294 33.822 14.1583 33.9883 14.3273 34.1057C14.4962 34.2231 14.697 34.2861 14.9027 34.2861C15.1084 34.2861 15.3092 34.2232 15.4781 34.1058C15.6471 33.9883 15.776 33.8221 15.8477 33.6292Z" fill="#F0F0F0"/>
<path id="Vector_3" d="M39.9985 25.9988H36.2784L38.4684 17.2385C38.5032 17.0914 38.5044 16.9384 38.472 16.7907C38.4397 16.643 38.3745 16.5045 38.2813 16.3855C38.1882 16.2664 38.0695 16.1698 37.9339 16.1028C37.7984 16.0358 37.6496 16.0002 37.4984 15.9985H29.9982C29.7876 16.0001 29.5829 16.0675 29.4125 16.1912C29.2422 16.3149 29.1148 16.4888 29.0482 16.6885L24.048 31.6889C24 31.8389 23.988 31.9982 24.0129 32.1537C24.0379 32.3093 24.0991 32.4568 24.1915 32.5843C24.284 32.7118 24.4052 32.8158 24.5453 32.8879C24.6854 32.9599 24.8405 32.998 24.998 32.999H31.3182L29.0081 46.8394C28.9755 47.073 29.0262 47.3106 29.1514 47.5105C29.2765 47.7105 29.468 47.86 29.6924 47.9328C29.9167 48.0056 30.1595 47.997 30.3782 47.9087C30.5969 47.8203 30.7775 47.6577 30.8882 47.4494L40.8885 27.4488C40.9636 27.2964 40.9988 27.1275 40.9909 26.9578C40.983 26.7881 40.9323 26.6231 40.8434 26.4783C40.7545 26.3335 40.6304 26.2136 40.4827 26.1298C40.3349 26.0459 40.1684 26.0009 39.9985 25.9988Z" fill="#F0F0F0"/>
<path id="Vector_4" d="M26.9307 36.1525L11.7907 51.2927C11.6968 51.3853 11.6222 51.4956 11.5711 51.6171C11.5201 51.7387 11.4935 51.8692 11.4931 52.0011C11.4926 52.1329 11.5183 52.2636 11.5685 52.3855C11.6188 52.5074 11.6927 52.6182 11.7859 52.7114C11.8792 52.8047 11.9899 52.8786 12.1118 52.9288C12.2338 52.9791 12.3644 53.0048 12.4963 53.0043C12.6281 53.0039 12.7586 52.9774 12.8802 52.9263C13.0018 52.8752 13.1121 52.8006 13.2047 52.7068L28.3447 37.5667C28.5262 37.3779 28.6263 37.1256 28.6238 36.8638C28.6212 36.602 28.516 36.3516 28.3309 36.1665C28.1458 35.9814 27.8954 35.8762 27.6336 35.8736C27.3718 35.871 27.1195 35.9711 26.9307 36.1525Z" fill="#F0F0F0"/>
<path id="Vector_5" d="M41.4985 23.9986C41.6299 23.9987 41.7599 23.9729 41.8813 23.9227C42.0026 23.8724 42.1128 23.7986 42.2056 23.7056L53.2058 12.7053C53.387 12.5165 53.487 12.2642 53.4843 12.0025C53.4816 11.7409 53.3765 11.4907 53.1915 11.3056C53.0065 11.1206 52.7563 11.0155 52.4946 11.0127C52.233 11.01 51.9807 11.11 51.7919 11.2912L40.7915 22.2915C40.6549 22.4326 40.5625 22.6105 40.5257 22.8034C40.489 22.9963 40.5094 23.1958 40.5845 23.3772C40.6597 23.5586 40.7862 23.7141 40.9486 23.8245C41.111 23.9349 41.3022 23.9954 41.4985 23.9986Z" fill="#F0F0F0"/>
</g>
</svg>
